<svg width="927" height="823" viewBox="0 0 927 823" fill="none" xmlns="http://www.w3.org/2000/svg">
<path d="M257.897 822.91C364.322 822.91 450.597 805.493 450.597 784.007C450.597 762.522 364.322 745.104 257.897 745.104C151.472 745.104 65.1972 762.522 65.1972 784.007C65.1972 805.493 151.472 822.91 257.897 822.91Z" fill="#E5D3DA"/>
<path d="M358.283 42.3919C352.581 59.7397 320.264 170.311 313.61 200.655C306.956 231.009 294.516 279.22 291.745 299.305C288.983 319.391 238.524 290.631 238.524 290.631C238.524 290.631 258.485 238.597 265.139 219.088C271.793 199.579 322.167 5.54452 322.167 5.54452C332.62 -6.38572 362.081 3.37364 366.84 12.0476C367.573 13.3828 368.011 14.6219 368.205 15.813C369.291 22.3641 363.109 27.7336 358.283 42.3919Z" fill="#1B2043"/>
<path d="M358.283 42.3918C357.525 44.7067 356.287 48.6835 354.703 53.9186C352.084 62.5445 348.505 74.5804 344.538 88.1724C342.213 96.1355 339.745 104.637 337.26 113.301C333.849 125.183 330.396 137.373 327.187 148.88C323.675 161.512 320.458 173.317 317.939 183.038C316.061 190.233 314.57 196.275 313.61 200.655C312.439 206.015 311.083 211.922 309.626 218.147C306.417 231.912 302.737 247.166 299.519 261.161C295.957 276.655 292.941 290.612 291.745 299.305C288.983 319.391 238.524 290.631 238.524 290.631C238.524 290.631 250.888 258.395 259.403 235.149C261.702 228.867 263.724 223.238 265.139 219.088C266.276 215.745 268.71 207.264 271.944 195.516C274.336 186.842 277.166 176.391 280.249 164.903C283.466 152.915 286.953 139.793 290.507 126.384C292.815 117.652 295.148 108.805 297.447 100.083C300.783 87.4039 304.042 74.9742 307.049 63.505C315.674 30.548 322.167 5.5444 322.167 5.5444C330.556 -4.03245 351.183 0.366948 361.458 6.95644C363.994 8.5798 365.897 10.3376 366.84 12.0474C367.573 13.3826 368.011 14.6218 368.205 15.8129C369.291 22.3639 363.109 27.7335 358.283 42.3918Z" fill="url(#paint0_linear_6_15)"/>
<path d="M368.205 15.8128C341.59 35.466 322.168 5.54432 322.168 5.54432C332.62 -6.38592 362.082 3.37344 366.84 12.0474C367.573 13.3826 368.011 14.6217 368.205 15.8128Z" fill="url(#paint1_linear_6_15)"/>
<path d="M354.704 53.9186C352.084 62.5445 348.505 74.5804 344.538 88.1724C330.472 90.9869 312.684 95.0405 297.447 100.083C300.783 87.404 304.042 74.9742 307.049 63.5051C321.426 59.8357 339.071 55.8782 354.704 53.9186Z" fill="url(#paint2_linear_6_15)"/>
<path d="M337.261 113.301C333.849 125.183 330.396 137.373 327.187 148.88C312.355 153.02 294.567 158.592 280.249 164.903C283.466 152.915 286.953 139.793 290.507 126.384C304.169 121.85 321.485 116.596 337.261 113.301Z" fill="url(#paint3_linear_6_15)"/>
<path d="M317.939 183.038C316.061 190.233 314.57 196.275 313.61 200.655C312.439 206.015 311.083 211.922 309.626 218.147C293.144 222.498 273.705 228.406 259.403 235.149C261.703 228.867 263.724 223.238 265.139 219.088C266.276 215.745 268.71 207.264 271.944 195.516C284.772 191.433 301.844 186.429 317.939 183.038Z" fill="url(#paint4_linear_6_15)"/>
<path d="M358.283 42.3917C357.525 44.7067 356.287 48.6835 354.704 53.9186C352.084 62.5444 348.505 74.5804 344.538 88.1724C342.213 96.1355 339.745 104.636 337.261 113.301C333.849 125.183 330.396 137.373 327.187 148.88C323.675 161.512 320.458 173.317 317.939 183.038C316.061 190.233 314.57 196.275 313.61 200.655C312.44 206.015 311.083 211.922 309.626 218.147C306.417 231.912 302.737 247.165 299.519 261.161C294.643 264.456 292.007 265.243 292.79 262.342C297.262 245.782 327.17 91.9186 328.754 87.4327C330.337 82.9469 346.719 43.8902 355.925 32.3634C361.029 25.966 361.795 15.2461 361.458 6.95642C363.994 8.57978 365.897 10.3376 366.84 12.0474C367.573 13.3826 368.011 14.6217 368.205 15.8128C369.291 22.3639 363.109 27.7335 358.283 42.3917Z" fill="url(#paint5_linear_6_15)"/>
<path d="M422.449 131.305C412.223 145.701 350.867 238.908 336.13 265.288C321.391 291.676 296.203 332.913 287.998 350.964C279.801 369.018 239.924 323.515 239.924 323.515C239.924 323.515 273.306 281.368 285.035 265.266C296.763 249.164 398.424 83.3099 398.424 83.3099C411.65 75.7685 436.887 95.6667 438.992 105.613C439.316 107.144 439.387 108.477 439.241 109.678C438.452 116.284 431.097 119.145 422.449 131.305Z" fill="#1B2043"/>
<path d="M422.449 131.305C421.087 133.227 418.809 136.552 415.853 140.946C410.973 148.182 404.236 158.305 396.699 169.765C392.282 176.478 387.581 183.651 382.819 190.971C376.284 201.01 369.624 211.325 363.385 221.081C356.546 231.794 350.216 241.83 345.128 250.141C341.349 256.287 338.257 261.48 336.129 265.289C333.53 269.949 330.603 275.063 327.494 280.44C320.628 292.338 312.901 305.478 305.963 317.59C298.282 331 291.546 343.15 287.998 350.963C279.801 369.017 239.924 323.514 239.924 323.514C239.924 323.514 260.603 297.402 275.135 278.428C279.061 273.3 282.54 268.691 285.035 265.265C287.041 262.505 291.706 255.339 298.035 245.364C302.713 238.001 308.299 229.11 314.414 219.326C320.794 209.117 327.745 197.931 334.839 186.495C339.453 179.047 344.122 171.498 348.725 164.055C355.41 153.233 361.953 142.62 367.99 132.827C385.323 104.682 398.425 83.31 398.425 83.31C409.041 77.2556 427.385 88.8785 435.302 98.8395C437.255 101.296 438.573 103.65 438.993 105.612C439.317 107.144 439.388 108.476 439.242 109.677C438.452 116.284 431.097 119.145 422.449 131.305Z" fill="url(#paint6_linear_6_15)"/>
<path d="M439.241 109.678C408.538 118.707 398.425 83.31 398.425 83.31C411.651 75.7686 436.888 95.6667 438.993 105.613C439.316 107.145 439.387 108.478 439.241 109.678Z" fill="url(#paint7_linear_6_15)"/>
<path d="M415.853 140.946C410.973 148.182 404.236 158.305 396.699 169.765C382.575 167.354 364.577 164.775 348.725 164.055C355.41 153.233 361.953 142.62 367.99 132.827C382.645 134.54 400.481 137.159 415.853 140.946Z" fill="url(#paint8_linear_6_15)"/>
<path d="M382.819 190.972C376.284 201.011 369.624 211.326 363.385 221.082C348.166 219.652 329.747 218.513 314.413 219.327C320.793 209.118 327.744 197.932 334.838 186.496C349.056 187.13 366.94 188.4 382.819 190.972Z" fill="url(#paint9_linear_6_15)"/>
<path d="M345.128 250.142C341.349 256.288 338.257 261.481 336.129 265.289C333.53 269.95 330.603 275.064 327.494 280.441C310.651 278.616 290.572 277.199 275.135 278.429C279.06 273.301 282.54 268.692 285.034 265.266C287.041 262.506 291.705 255.34 298.034 245.365C311.336 246.126 328.919 247.545 345.128 250.142Z" fill="url(#paint10_linear_6_15)"/>
<path d="M422.449 131.305C421.087 133.227 418.809 136.552 415.853 140.946C410.973 148.182 404.236 158.305 396.699 169.765C392.282 176.478 387.581 183.651 382.819 190.971C376.284 201.01 369.624 211.325 363.385 221.081C356.545 231.795 350.216 241.831 345.128 250.141C341.349 256.287 338.257 261.48 336.129 265.289C333.53 269.949 330.603 275.063 327.494 280.441C320.628 292.338 312.901 305.478 305.963 317.59C300.423 318.954 297.703 318.75 299.252 316.28C308.093 302.188 384.709 173.448 387.457 169.764C390.204 166.081 411.064 128.549 422.997 120.94C429.615 116.716 433.318 106.825 435.301 98.8395C437.254 101.296 438.572 103.65 438.992 105.612C439.316 107.144 439.387 108.476 439.241 109.677C438.452 116.284 431.097 119.145 422.449 131.305Z" fill="url(#paint11_linear_6_15)"/>
<path d="M270.875 321.955C264.44 337.632 256.11 351.003 246.475 359.052C245.582 359.802 244.639 360.522 243.653 361.204C232.443 369.061 215.589 373.115 196.614 374.258C192.217 374.527 187.703 374.633 183.121 374.594C153.895 374.364 121.797 368.216 98.2051 359.052C98.2051 359.052 46.8785 308.104 54.4756 262.583C58.8974 236.119 66.8482 222.479 74.7822 211.865C80.5011 204.209 86.2199 198.128 90.5996 189.954C92.461 186.477 94.9625 182.817 97.9609 179.176C104.286 171.511 112.827 163.894 122.327 158.054C125.149 156.315 128.063 154.74 131.019 153.366C139.871 149.255 149.186 146.949 158.081 147.679C184.696 149.85 212.254 173.692 228.417 176.948C244.571 180.195 273.09 186.698 282.59 225.726C288.89 251.574 283.508 291.207 270.875 321.955Z" fill="#98D2E9"/>
<path d="M270.875 321.955C264.44 337.632 256.11 351.003 246.475 359.052C245.582 359.802 244.639 360.522 243.653 361.204C232.443 369.061 215.589 373.115 196.614 374.258C192.217 374.527 187.703 374.633 183.121 374.594C153.895 374.364 121.797 368.216 98.2051 359.052C98.2051 359.052 46.8785 308.104 54.4756 262.583C58.8974 236.119 66.8482 222.479 74.7822 211.865C80.5011 204.209 86.2199 198.128 90.5996 189.954C92.461 186.477 94.9625 182.817 97.9609 179.176C104.286 171.511 112.827 163.894 122.327 158.054C125.149 156.315 128.063 154.74 131.019 153.366C139.871 149.255 149.186 146.949 158.081 147.679C184.696 149.85 212.254 173.692 228.417 176.948C244.571 180.195 273.09 186.698 282.59 225.726C288.89 251.574 283.508 291.207 270.875 321.955Z" fill="url(#paint12_linear_6_15)"/>
<path d="M158.62 357.4C167.345 361.194 181.049 367.505 196.613 374.258C164.162 376.208 125.502 369.657 98.2051 359.052C98.2051 359.052 46.8785 308.104 54.4756 262.583C62.0811 217.052 80.1389 209.463 90.5996 189.954C92.461 186.477 94.9625 182.817 97.9609 179.177C100.176 187.37 101.625 196.793 100.344 205.496C97.1354 227.359 85.1334 242.074 100.824 273.139C116.507 304.204 124.087 342.396 158.62 357.4Z" fill="url(#paint13_linear_6_15)"/>
<path d="M270.874 321.955C250.492 290.612 225.435 258.491 210.906 240.557C183.887 207.187 134.194 240.835 123.245 175.017C122.217 168.85 121.956 163.212 122.327 158.054C133.596 151.128 146.213 146.709 158.08 147.68C184.696 149.85 212.254 173.692 228.417 176.948C244.571 180.195 273.09 186.698 282.59 225.726C288.89 251.575 283.508 291.208 270.874 321.955Z" fill="url(#paint14_linear_6_15)"/>
<path d="M183.121 374.594C153.895 374.364 121.796 368.216 98.2051 359.052C98.2051 359.052 46.8785 308.104 54.4756 262.583C58.8974 236.119 66.8482 222.479 74.7822 211.865C74.7569 227.868 76.9046 243.554 84.5017 249.365C102.189 262.9 115.555 263.678 115.606 249.365C115.665 235.043 144.183 263.591 137.926 296.971C134.464 315.443 157.381 349.312 183.121 374.594Z" fill="url(#paint15_linear_6_15)"/>
<path d="M270.874 321.955C264.44 337.632 256.11 351.003 246.475 359.052C245.582 359.802 244.638 360.522 243.653 361.204C237.319 339.678 226.656 316.048 222.521 303.493C214.208 278.269 194.567 281.515 196.613 255.849C198.66 230.183 182.203 261.977 173.78 251.872C165.358 241.767 182.851 217.013 169.468 196.726C156.093 176.448 165.332 227.416 149.759 223.065C134.194 218.713 150.635 196.928 141.101 175.017C137.808 167.458 134.346 160.023 131.019 153.366C139.871 149.255 149.186 146.949 158.081 147.679C184.696 149.85 212.254 173.692 228.417 176.948C244.571 180.195 273.09 186.698 282.59 225.726C288.89 251.574 283.508 291.207 270.874 321.955Z" fill="url(#paint16_linear_6_15)"/>
<path d="M166.986 144.857C166.986 144.857 176.034 155.714 175.113 171.825C174.193 187.937 172.96 185.657 168.219 182.137C163.478 178.617 166.723 160.3 164.156 153.84C161.591 147.38 164.35 140.885 166.986 144.857Z" fill="url(#paint17_linear_6_15)"/>
<path d="M151.662 233.523C151.402 240.427 150.484 249.116 155.712 251.628C160.941 254.14 158.723 243.605 157.833 235.996C156.943 228.387 151.858 228.319 151.662 233.523Z" fill="url(#paint18_linear_6_15)"/>
<path d="M216.004 656.732C216.004 656.732 185.373 749.143 159.209 790.335C159.209 790.335 203.38 802.197 210.984 795.694C210.984 795.694 202.754 781.445 189.448 774.942C189.448 774.942 211.417 711.485 219.971 656.732H216.004Z" fill="#1B2043"/>
<path d="M291.045 633.236C291.045 633.236 307.143 712.371 309.969 764.498C309.969 764.498 354.695 773.193 361.933 766.166C361.933 766.166 349.119 745.834 326.369 746.353C326.369 746.353 307.234 683.295 297.789 632.05L291.045 633.236Z" fill="#1B2043"/>
<path d="M216.004 656.732C216.004 656.732 185.373 749.143 159.209 790.335C159.209 790.335 203.38 802.197 210.984 795.694C210.984 795.694 202.754 781.445 189.448 774.942C189.448 774.942 211.417 711.485 219.971 656.732H216.004Z" fill="url(#paint19_linear_6_15)"/>
<path d="M291.045 633.236C291.045 633.236 307.143 712.371 309.969 764.498C309.969 764.498 354.695 773.193 361.933 766.166C361.933 766.166 349.119 745.834 326.369 746.353C326.369 746.353 307.234 683.295 297.789 632.05L291.045 633.236Z" fill="url(#paint20_linear_6_15)"/>
<path d="M360.155 573.616C360.155 573.616 435.05 517.611 439.343 512.332C443.635 507.055 451.772 476.098 456.654 474.099C461.54 472.099 462.086 503.584 456.689 519.374C456.689 519.374 463.647 524.41 462.686 531.555C461.726 538.7 450.342 527.799 450.342 527.799L361.337 580.174L360.155 573.616Z" fill="#1B2043"/>
<path d="M360.155 573.616C360.155 573.616 435.05 517.611 439.343 512.332C443.635 507.055 451.772 476.098 456.654 474.099C461.54 472.099 462.086 503.584 456.689 519.374C456.689 519.374 463.647 524.41 462.686 531.555C461.726 538.7 450.342 527.799 450.342 527.799L361.337 580.174L360.155 573.616Z" fill="url(#paint21_linear_6_15)"/>
<path d="M196.327 433.823C193.943 437.512 191.08 441.017 187.728 444.263C179.617 452.102 168.6 458.404 154.282 462.034C153.743 462.169 153.195 462.303 152.639 462.438C145.042 464.206 136.477 465.128 127.498 465.368C85.6639 466.502 35.1121 452.89 33.5708 441.44C33.1665 438.434 31.8021 435.514 29.8397 432.44C22.6553 421.163 7.43585 407.782 2.20549 379.657C1.8349 377.659 1.50642 375.689 1.22006 373.74C-1.56778 354.336 0.234639 337.103 8.5729 320.37C13.6011 310.284 21.0045 300.381 31.2125 290.295C32.8718 288.643 34.6068 287 36.4176 285.348C69.6864 254.994 121.013 275.589 140.023 299.44C159.032 323.281 172.34 333.04 185.647 343.885C185.647 343.885 198.955 360.138 204.657 388.321C207.655 403.162 205.39 419.808 196.327 433.823Z" fill="#EC141F"/>
<path d="M196.327 433.823C193.943 437.512 191.08 441.017 187.728 444.263C179.617 452.102 168.6 458.404 154.282 462.034C153.743 462.169 153.195 462.303 152.639 462.438C145.042 464.206 136.477 465.128 127.498 465.368C85.6639 466.502 35.1121 452.89 33.5708 441.44C33.1665 438.434 31.8021 435.514 29.8397 432.44C22.6553 421.163 7.43585 407.782 2.20549 379.657C1.8349 377.659 1.50642 375.689 1.22006 373.74C-1.56778 354.336 0.234639 337.103 8.5729 320.37C13.6011 310.284 21.0045 300.381 31.2125 290.295C32.8718 288.643 34.6068 287 36.4176 285.348C69.6864 254.994 121.013 275.589 140.023 299.44C159.032 323.281 172.34 333.04 185.647 343.885C185.647 343.885 198.955 360.138 204.657 388.321C207.655 403.162 205.39 419.808 196.327 433.823Z" fill="url(#paint22_linear_6_15)"/>
<path d="M102.955 433.535C118.217 448.299 136.098 457.434 152.64 462.439C109.592 472.438 35.4407 455.349 33.5709 441.441C31.6674 427.35 8.85929 415.429 2.20552 379.658C1.83493 377.66 1.50646 375.69 1.22009 373.74C6.88001 377.295 13.3485 380.935 20.4908 384.893C51.654 402.182 62.6032 394.497 102.955 433.535Z" fill="url(#paint23_linear_6_15)"/>
<path d="M87.2474 447.405C98.6767 456.521 113.029 462.179 127.498 465.368C85.664 466.501 35.1122 452.89 33.5709 441.44C33.1666 438.434 31.8022 435.514 29.8398 432.44C37.7822 434.361 40.0646 425.898 36.5188 419.587C30.6483 409.136 55.8652 422.354 87.2474 447.405Z" fill="url(#paint24_linear_6_15)"/>
<path d="M196.327 433.823C179.575 401.26 145.767 349.293 131.668 330.351C111.908 303.81 103.031 297.48 66.3849 300.362C45.6066 301.995 35.8028 295.885 31.2126 290.295C32.8718 288.643 34.6069 287 36.4177 285.348C69.6865 254.994 121.013 275.589 140.023 299.44C159.032 323.281 172.34 333.04 185.647 343.885C185.647 343.885 198.955 360.138 204.657 388.321C207.655 403.162 205.39 419.808 196.327 433.823Z" fill="url(#paint25_linear_6_15)"/>
<path d="M196.327 433.823C193.943 437.512 191.08 441.017 187.728 444.263C179.76 434.198 166.469 422.584 155.267 413.708C133.344 396.342 133.352 371.444 132.51 352.146C131.668 332.848 127.835 325.288 115.606 325.336C103.385 325.385 113.98 345.508 102.955 351.983C91.9218 358.466 94.6086 323.415 90.3973 337.516C86.1861 351.608 107.242 378.168 96.251 378.888C85.2596 379.609 76.0791 314.77 64.9362 324.376C53.7932 333.982 75.2369 353.193 64.9362 351.983C54.6355 350.782 52.4961 326.297 31.2125 330.351C20.8192 332.329 13.4242 326.672 8.57288 320.37C13.6011 310.284 21.0045 300.381 31.2125 290.295C32.8717 288.643 34.6068 287 36.4176 285.348C69.6864 254.994 121.013 275.589 140.023 299.44C159.032 323.281 172.34 333.04 185.647 343.885C185.647 343.885 198.955 360.138 204.657 388.321C207.655 403.162 205.39 419.808 196.327 433.823Z" fill="url(#paint26_linear_6_15)"/>
<path d="M36.5161 344.068C36.5161 344.068 38.599 358.856 50.3905 367.792C62.182 376.727 61.3398 374.226 61.7609 367.792C62.182 361.358 47.4426 353.193 44.4947 346.949C41.5469 340.706 35.3454 339.269 36.5161 344.068Z" fill="url(#paint27_linear_6_15)"/>
<path d="M36.5171 308.527C39.8389 314.307 43.5389 321.974 49.0708 320.534C54.6027 319.093 47.4099 312.014 42.7944 306.428C38.1788 300.841 34.0139 304.171 36.5171 308.527Z" fill="url(#paint28_linear_6_15)"/>
<path d="M364.322 567.178C362.418 598.618 364.305 654.984 364.305 654.984C364.305 654.984 351.756 663.726 332.637 668.961C329.419 669.845 326.025 670.622 322.462 671.247C297.751 675.579 248.277 674.504 210.258 671.247C196.883 670.104 178.084 669.768 159.335 669.816C124.786 669.883 90.3973 671.247 90.3973 671.247C90.3973 671.247 90.3973 660.412 90.3973 643.063C90.3973 625.715 85.7481 592.116 81.9412 571.521C78.1426 550.927 64.9362 471.814 64.9362 471.814C64.9362 471.814 102.197 469.297 150.753 466.896C189.985 464.965 236.595 463.111 276.88 462.727C329.428 462.227 371.228 464.226 371.927 471.814C373.831 492.427 366.225 535.749 364.322 567.178Z" fill="#98D2E9"/>
<path d="M364.322 567.178C362.418 598.618 364.305 654.984 364.305 654.984C364.305 654.984 351.756 663.726 332.637 668.961C329.419 669.845 326.025 670.622 322.462 671.247C297.751 675.579 248.277 674.504 210.258 671.247C196.883 670.104 178.084 669.768 159.335 669.816C124.786 669.883 90.3973 671.247 90.3973 671.247C90.3973 671.247 90.3973 660.412 90.3973 643.063C90.3973 625.715 85.7481 592.116 81.9412 571.521C78.1426 550.927 64.9362 471.814 64.9362 471.814C64.9362 471.814 102.197 469.297 150.753 466.896C189.985 464.965 236.595 463.111 276.88 462.727C329.428 462.227 371.228 464.226 371.927 471.814C373.831 492.427 366.225 535.749 364.322 567.178Z" fill="url(#paint29_linear_6_15)"/>
<path d="M159.209 616.936C164.246 632.843 162.182 651.872 159.335 669.815C124.786 669.882 90.3973 671.246 90.3973 671.246C90.3973 671.246 90.3973 660.411 90.3973 643.062C90.3973 625.714 85.7481 592.115 81.9412 571.52C78.1426 550.926 64.9362 471.813 64.9362 471.813C64.9362 471.813 102.197 469.297 150.753 466.895C153.406 471.544 152.741 478.23 147.342 487.567C114.604 544.144 147.342 579.483 159.209 616.936Z" fill="url(#paint30_linear_6_15)"/>
<path d="M69.0684 496.543L71.7686 512.525C71.7686 512.525 138.973 501.272 162.272 501.687C185.572 502.102 223.473 505.343 246.213 496.554C268.954 487.765 348.127 480.948 348.127 480.948H81.975L69.0684 496.543Z" fill="url(#paint31_linear_6_15)"/>
<path d="M364.322 567.179C362.419 598.618 364.305 654.984 364.305 654.984C364.305 654.984 351.756 663.726 332.637 668.961C329.68 645.657 325.107 614.669 326.488 591.135C328.771 552.367 320.416 523.29 291.552 489.997C284.393 481.746 279.777 472.285 276.88 462.726C329.428 462.226 371.229 464.225 371.928 471.813C373.831 492.427 366.226 535.749 364.322 567.179Z" fill="url(#paint32_linear_6_15)"/>
<path d="M409.003 367.794C408.052 401.337 392.849 417.589 382.397 432.766C371.936 447.943 350.602 465.579 285.235 465.435C264.288 465.387 247.519 467.587 233.546 469.413C215.724 471.747 202.467 473.475 190.937 469.192C183.298 466.358 176.416 460.884 169.468 451.201C143.821 415.43 130.514 406.755 151.427 356.893C158.409 340.237 172.34 339.545 191.349 318.951C195.182 314.801 200.159 309.239 205.895 302.938C228.602 278.011 263.092 241.596 284.41 235.996C311.109 228.984 348.176 228.936 377.638 270.154C381.428 275.456 384.78 280.461 387.745 285.216C407.782 317.431 409.829 338.563 409.003 367.794Z" fill="#FBABB1"/>
<path d="M409.003 367.794C408.052 401.337 392.849 417.589 382.397 432.766C371.936 447.943 350.602 465.579 285.235 465.435C264.288 465.387 247.519 467.587 233.546 469.413C215.724 471.747 202.467 473.475 190.937 469.192C183.298 466.358 176.416 460.884 169.468 451.201C143.821 415.43 130.514 406.755 151.427 356.893C158.409 340.237 172.34 339.545 191.349 318.951C195.182 314.801 200.159 309.239 205.895 302.938C228.602 278.011 263.092 241.596 284.41 235.996C311.109 228.984 348.176 228.936 377.638 270.154C381.428 275.456 384.78 280.461 387.745 285.216C407.782 317.431 409.829 338.563 409.003 367.794Z" fill="url(#paint33_linear_6_15)"/>
<path d="M203.697 384.892C186.228 422.334 170.234 456.329 190.937 469.191C183.297 466.357 176.416 460.883 169.468 451.2C143.821 415.429 130.514 406.754 151.427 356.892C158.409 340.236 172.34 339.544 191.349 318.95C195.182 314.8 200.159 309.238 205.895 302.937C198.989 335.413 219.75 350.494 203.697 384.892Z" fill="url(#paint34_linear_6_15)"/>
<path d="M409.003 367.793C408.052 401.336 392.849 417.589 382.397 432.766C371.936 447.943 350.602 465.579 285.235 465.435C277.427 465.416 270.209 465.714 263.488 466.184C252.177 466.972 242.314 468.269 233.546 469.412C245.413 460.151 244.478 440.056 247.898 420.798C252.951 392.355 281.588 386.813 303.427 377.927C325.267 369.042 332.03 368.821 368.331 320.226C376.888 308.776 383.155 296.808 387.745 285.214C395.393 297.499 400.421 308.181 403.663 318.315C408.927 334.731 409.517 349.716 409.003 367.793Z" fill="url(#paint35_linear_6_15)"/>
<path d="M409.003 367.794C408.052 401.336 392.849 417.589 382.397 432.766C371.936 447.943 350.602 465.579 285.235 465.435C277.427 465.416 270.209 465.714 263.488 466.184C266.646 451.393 274.218 437.868 279.962 433.824C290.962 426.081 311.067 418.512 310.553 403.777C310.039 389.041 338.019 371.444 338.019 378.888C338.019 386.332 332.965 402.182 344.436 396.447C352.834 392.25 354.527 375.411 354.83 366.708C355.209 369.849 356.481 373.451 360.153 374.604C367.135 376.804 375.077 351.272 391.99 337.516C397.069 333.386 400.859 326.259 403.663 318.315C408.927 334.731 409.517 349.716 409.003 367.794Z" fill="url(#paint36_linear_6_15)"/>
<path d="M360.288 384.313C358.124 390.768 354.839 398.679 359.101 402.949C363.363 407.22 364.186 396.426 365.454 388.889C366.724 381.351 361.92 379.449 360.288 384.313Z" fill="url(#paint37_linear_6_15)"/>
<path d="M386.398 352.615C384.234 359.07 380.949 366.98 385.211 371.251C389.472 375.521 390.295 364.727 391.564 357.19C392.834 349.652 388.03 347.75 386.398 352.615Z" fill="url(#paint38_linear_6_15)"/>
<path d="M173.937 334.358C173.937 334.358 186.695 336.542 199.609 328.218C212.523 319.894 225.695 315.053 229.496 321.955C233.298 328.858 238.914 340.375 243.406 334.617C247.898 328.858 233.639 315.437 238.523 302.936C243.407 290.435 242.283 312.235 247.898 302.936C253.513 293.637 246.407 285.871 251.364 275.025C256.32 264.179 264.027 254.394 260.174 249.361C256.32 244.329 232.204 266.885 222.52 276.888C212.836 286.892 176.34 320.005 173.937 334.358Z" fill="white"/>
<path d="M173.937 334.358C173.937 334.358 188.66 330.28 201.574 321.955C214.488 313.63 227.671 307.386 231.474 314.29C235.277 321.194 238.914 340.375 243.406 334.616C247.898 328.858 229.32 301.336 234.204 288.835C239.087 276.334 242.283 312.235 247.898 302.936C253.513 293.637 246.407 285.871 251.364 275.025C256.32 264.179 264.027 254.394 260.174 249.361C256.32 244.329 236.104 275.21 226.421 285.214C216.737 295.217 176.34 320.005 173.937 334.358Z" fill="url(#paint39_linear_6_15)"/>
<path d="M38.8264 447.728C38.8264 447.728 33.6289 450.15 38.8264 471.811C44.0239 493.472 54.4788 501.059 83.944 496.724C113.409 492.389 175.788 490.22 205.904 486.968C236.02 483.717 293.998 480.464 307.305 481.548C320.612 482.631 350.213 479.38 358.224 481.548C366.235 483.717 393.798 483.754 391.897 471.811C389.995 459.867 392.084 449.028 391.991 440.356C391.897 431.685 389.458 422.888 388.39 424.371C387.322 425.854 307.832 419.98 285.232 424.206C262.632 428.431 193.249 429.515 187.546 430.599C181.843 431.684 62.1432 431.252 38.8264 447.728Z" fill="#6EBACC"/>
<path d="M358.224 481.544C356.405 481.054 353.482 480.843 349.886 480.795C337.631 480.631 317.594 482.38 307.302 481.544C293.994 480.468 236.022 483.715 205.903 486.97C195.123 488.133 180.215 489.16 164.17 490.198C135.357 492.052 102.863 493.934 83.9457 496.72C54.4755 501.063 44.0232 493.473 38.8265 471.812C33.6298 450.152 38.8265 447.731 38.8265 447.731C50.2221 439.672 84.6364 435.657 117.518 433.534C151.915 431.306 182.657 438.558 185.571 438C191.273 436.925 262.758 437.76 285.363 433.534C299.058 430.969 333.529 422.795 358.898 423.765C375.389 424.399 387.972 424.956 388.393 424.37C389.455 422.891 391.897 431.68 391.99 440.355C392.082 449.028 389.994 459.864 391.897 471.813C393.801 483.753 366.234 483.715 358.224 481.544Z" fill="url(#paint40_linear_6_15)"/>
<path d="M95.3498 685.338C95.3498 685.338 118.161 690.216 139.072 689.133C159.982 688.049 199.144 686.58 214.256 687.314C229.368 688.048 252.178 686.037 269.287 687.314C286.395 688.59 336.295 685.88 349.126 681.544C361.957 677.208 367.185 675.04 369.087 669.619C370.988 664.2 371.463 656.07 364.334 654.986C357.205 653.902 315.859 668.537 291.622 669.079C267.386 669.619 187.546 666.91 161.407 666.91C135.269 666.91 87.746 663.417 87.2701 674.107C86.7959 684.797 95.3498 685.338 95.3498 685.338Z" fill="#98D2E9"/>
<path d="M95.3498 685.338C95.3498 685.338 118.161 690.216 139.072 689.133C159.982 688.049 199.144 686.58 214.256 687.314C229.368 688.048 258.022 677.73 275.13 679.008C292.239 680.285 336.295 685.88 349.126 681.545C361.957 677.21 367.185 675.041 369.087 669.62C370.988 664.201 371.463 656.071 364.334 654.987C357.205 653.903 315.859 668.537 291.622 669.08C267.386 669.62 187.546 666.911 161.407 666.911C135.269 666.911 87.746 663.418 87.2701 674.108C86.7959 684.797 95.3498 685.338 95.3498 685.338Z" fill="url(#paint41_linear_6_15)"/>
<path d="M365.418 191.964C365.418 191.964 369.674 216.95 361.417 235.897C361.417 235.897 388.078 232.591 394.764 240.158C394.764 240.158 382.351 246.777 371.831 243.78C361.31 240.783 343.291 234.666 343.291 234.666C343.291 234.666 316.871 218.567 316.173 208.532C315.477 198.498 345.854 229.59 345.854 229.59C345.854 229.59 356.305 192.011 365.418 191.964Z" fill="#6EBACC"/>
<path d="M365.418 191.964C365.418 191.964 361.281 201.373 360.613 213.022C360.191 220.356 364.607 228.578 361.417 235.897C361.417 235.897 388.078 232.591 394.764 240.158C394.764 240.158 388.329 237.787 382.404 239.037C378.542 239.852 375.982 244.964 371.831 243.781C361.312 240.785 343.292 234.667 343.292 234.667C343.292 234.667 316.871 218.568 316.174 208.533C315.867 204.119 321.844 212.906 328.334 218.262C336.595 225.08 345.855 229.591 345.855 229.591C345.855 229.591 356.305 192.011 365.418 191.964Z" fill="url(#paint42_linear_6_15)"/>
<path d="M351.655 234.043C365.388 238.352 386.387 257.456 390.75 273.267C395.113 289.079 391.117 314.723 364.699 337.148C338.281 359.572 312.082 381.074 304.304 373.302C296.527 365.529 283.947 317.117 286.952 287.438C289.956 257.761 306.359 219.833 351.655 234.043Z" fill="#EC141F"/>
<path d="M365.771 336.22C365.417 336.537 365.063 336.844 364.701 337.151C342.457 356.027 320.357 374.258 309.289 374.902C307.218 375.027 305.533 374.527 304.303 373.298C296.529 365.527 283.946 317.114 286.953 287.442C288.772 269.508 295.477 248.568 310.494 237.944C320.323 230.961 333.723 228.425 351.655 234.044C355.411 235.226 359.715 237.512 364.078 240.538C375.642 248.568 387.585 261.785 390.752 273.264C395.056 288.854 391.223 314.021 365.771 336.22Z" fill="url(#paint43_linear_6_15)"/>
<path d="M311.067 239.039C325.385 268 315.278 284.993 311.909 318.305C309.635 340.773 309.281 362.895 309.289 374.902C307.218 375.027 305.533 374.527 304.303 373.298C296.529 365.527 283.946 317.114 286.953 287.442C288.772 269.508 295.477 248.568 310.494 237.944C310.696 238.299 310.881 238.665 311.067 239.039Z" fill="url(#paint44_linear_6_15)"/>
<path d="M365.771 336.22C372.517 315.385 370.487 295.521 367.177 280.123C364.44 267.385 363.859 252.823 364.078 240.538C375.642 248.568 387.585 261.785 390.752 273.264C395.056 288.854 391.223 314.021 365.771 336.22Z" fill="url(#paint45_linear_6_15)"/>
<path d="M322.146 261.107C319.145 260.449 315.524 271.879 319.106 272.735C322.689 273.592 325.146 261.766 322.146 261.107Z" fill="url(#paint46_linear_6_15)"/>
<path d="M357.52 261.107C354.52 260.449 350.898 271.879 354.48 272.735C358.063 273.592 360.52 261.766 357.52 261.107Z" fill="url(#paint47_linear_6_15)"/>
<path d="M305.301 291.845C302.301 291.187 298.679 302.617 302.261 303.473C305.844 304.33 308.301 292.504 305.301 291.845Z" fill="url(#paint48_linear_6_15)"/>
<path d="M338.991 292.806C335.99 292.148 332.369 303.578 335.951 304.434C339.534 305.29 341.991 293.465 338.991 292.806Z" fill="url(#paint49_linear_6_15)"/>
<path d="M319.619 332.189C316.619 331.531 312.997 342.961 316.579 343.817C320.162 344.674 322.619 332.848 319.619 332.189Z" fill="url(#paint50_linear_6_15)"/>
<path d="M352.467 315.86C349.467 315.202 345.845 326.631 349.427 327.487C353.01 328.344 355.467 316.519 352.467 315.86Z" fill="url(#paint51_linear_6_15)"/>
<path d="M374.365 284.161C371.365 283.503 367.743 294.933 371.325 295.788C374.908 296.645 377.365 284.82 374.365 284.161Z" fill="url(#paint52_linear_6_15)"/>
<path d="M321.303 259.186C324.303 259.845 321.847 271.671 318.264 270.814C314.681 269.958 318.304 258.528 321.303 259.186Z" fill="white"/>
<path d="M321.303 259.186C324.303 259.845 321.847 271.671 318.264 270.814C314.681 269.958 318.304 258.528 321.303 259.186Z" fill="url(#paint53_linear_6_15)"/>
<path d="M356.678 259.186C359.678 259.845 357.221 271.671 353.638 270.814C350.056 269.958 353.679 258.528 356.678 259.186Z" fill="white"/>
<path d="M356.678 259.186C359.678 259.845 357.221 271.671 353.638 270.814C350.056 269.958 353.679 258.528 356.678 259.186Z" fill="url(#paint54_linear_6_15)"/>
<path d="M304.458 289.924C307.459 290.583 305.002 302.409 301.419 301.552C297.836 300.696 301.459 289.266 304.458 289.924Z" fill="white"/>
<path d="M304.458 289.924C307.459 290.583 305.002 302.409 301.419 301.552C297.836 300.696 301.459 289.266 304.458 289.924Z" fill="url(#paint55_linear_6_15)"/>
<path d="M338.148 290.885C341.148 291.544 338.691 303.369 335.109 302.512C331.527 301.657 335.149 290.227 338.148 290.885Z" fill="white"/>
<path d="M338.148 290.885C341.148 291.544 338.691 303.369 335.109 302.512C331.527 301.657 335.149 290.227 338.148 290.885Z" fill="url(#paint56_linear_6_15)"/>
<path d="M318.777 330.268C321.777 330.927 319.32 342.753 315.737 341.896C312.155 341.04 315.777 329.61 318.777 330.268Z" fill="white"/>
<path d="M318.777 330.268C321.777 330.927 319.32 342.753 315.737 341.896C312.155 341.04 315.777 329.61 318.777 330.268Z" fill="url(#paint57_linear_6_15)"/>
<path d="M351.624 313.938C354.624 314.597 352.167 326.423 348.584 325.566C345.002 324.71 348.625 313.28 351.624 313.938Z" fill="white"/>
<path d="M351.624 313.938C354.624 314.597 352.167 326.423 348.584 325.566C345.002 324.71 348.625 313.28 351.624 313.938Z" fill="url(#paint58_linear_6_15)"/>
<path d="M373.523 282.24C376.523 282.899 374.066 294.724 370.483 293.867C366.901 293.011 370.524 281.582 373.523 282.24Z" fill="white"/>
<path d="M373.523 282.24C376.523 282.899 374.066 294.724 370.483 293.867C366.901 293.011 370.524 281.582 373.523 282.24Z" fill="url(#paint59_linear_6_15)"/>
<path d="M167.042 579.107V592.116C167.042 592.116 124.448 617.708 132.748 640.894C136.948 652.623 179.099 676.666 179.099 676.666C179.099 676.666 196.682 682.387 194.781 687.114C192.88 691.842 185.829 694.011 185.829 694.011C185.829 694.011 193.001 709.292 183.412 713.571C173.823 717.848 162.013 687.506 162.013 687.506C162.013 687.506 112.014 659.542 115.816 635.583C119.618 611.628 167.042 579.107 167.042 579.107Z" fill="#1B2043"/>
<path d="M167.042 579.107V592.116C167.042 592.116 124.448 617.708 132.748 640.894C136.948 652.623 179.099 676.666 179.099 676.666C179.099 676.666 196.682 682.387 194.781 687.114C192.88 691.842 185.829 694.011 185.829 694.011C185.829 694.011 193.001 709.292 183.412 713.571C173.823 717.848 162.013 687.506 162.013 687.506C162.013 687.506 112.014 659.542 115.816 635.583C119.618 611.628 167.042 579.107 167.042 579.107Z" fill="url(#paint60_linear_6_15)"/>
<path d="M305.446 316.657C305.446 316.657 233.154 304.54 255.733 211.893L264.846 205.494C264.846 205.495 322.344 224.517 305.446 316.657Z" fill="#6EBACC"/>
<path d="M305.449 316.653C305.449 316.653 233.15 304.54 255.731 211.893L261.214 208.042L264.844 205.496C264.844 205.496 289.333 215.208 299.928 254.375C304.159 270.016 310.271 290.356 305.449 316.653Z" fill="url(#paint61_linear_6_15)"/>
<path d="M243.878 214.761C243.878 214.761 216.314 212.594 201.107 189.83C185.899 167.066 183.048 128.543 180.196 110.948C180.196 110.948 264.904 124.683 264.846 205.494C264.846 205.495 252.75 216.473 243.878 214.761Z" fill="#6EBACC"/>
<path d="M264.844 205.496C264.844 205.496 262.722 207.417 259.605 209.53C255.285 212.47 249.035 215.755 243.881 214.766C243.881 214.766 221.115 210.74 205.904 187.974C190.702 165.209 183.045 128.544 180.198 110.947C180.198 110.947 264.903 124.684 264.844 205.496Z" fill="url(#paint62_linear_6_15)"/>
<path d="M264.844 205.496C264.844 205.496 262.722 207.417 259.605 209.53C224.888 188.686 180.198 110.947 180.198 110.947C180.198 110.947 264.903 124.684 264.844 205.496Z" fill="url(#paint63_linear_6_15)"/>
<path d="M210.911 240.554C210.911 240.554 212.016 198.967 254.592 205.83L257.497 209.753C257.497 209.753 252.884 244.174 210.911 240.554Z" fill="#6EBACC"/>
<path d="M310.553 186.043C310.553 186.043 280.487 162.478 260.174 205.7L261.231 210.691C261.232 210.692 288.302 226.795 310.553 186.043Z" fill="#6EBACC"/>
<path d="M310.553 186.043C310.553 186.043 286.497 175.021 260.174 205.7L261.231 210.691C261.232 210.692 288.302 226.795 310.553 186.043Z" fill="url(#paint64_linear_6_15)"/>
<path d="M210.911 240.554C210.911 240.554 212.016 198.967 254.592 205.83L257.497 209.753C257.497 209.753 251.362 229.908 210.911 240.554Z" fill="url(#paint65_linear_6_15)"/>
<path d="M305.449 316.653C305.449 316.653 233.15 304.54 255.731 211.893L261.214 208.042C264.482 220.875 279.381 275.637 305.449 316.653Z" fill="url(#paint66_linear_6_15)"/>
<path d="M164.17 490.199C140.899 491.698 115.227 493.215 96.251 495.203C91.7282 495.683 87.5843 496.184 83.9458 496.721C54.4755 501.063 44.0232 493.474 38.8265 471.813C33.6298 450.152 38.8265 447.732 38.8265 447.732C44.8654 443.457 57.3728 440.326 72.6849 438.001C86.262 435.946 102.063 434.524 117.518 433.535C105.238 445.274 99.5948 454.975 122.546 465.435C151.233 478.499 147.03 470.171 164.17 490.199Z" fill="url(#paint67_linear_6_15)"/>
<path d="M358.224 481.544C356.405 481.054 353.482 480.843 349.886 480.795C363.353 468.932 366.882 458.577 361.93 443.486C360.161 438.088 359.26 431.162 358.898 423.766C375.389 424.4 387.972 424.957 388.393 424.371C389.455 422.892 391.897 431.681 391.99 440.356C392.083 449.029 389.994 459.865 391.897 471.814C393.801 483.753 366.234 483.715 358.224 481.544Z" fill="url(#paint68_linear_6_15)"/>
<path d="M96.251 495.203C91.7281 495.683 87.5842 496.184 83.9457 496.721C54.4754 501.063 44.0231 493.474 38.8265 471.813C33.6298 450.152 38.8265 447.732 38.8265 447.732C44.8654 443.457 57.3728 440.326 72.6848 438.001C72.2132 452.323 74.7231 470.228 87.2473 482.658C91.248 486.625 94.1622 490.871 96.251 495.203Z" fill="url(#paint69_linear_6_15)"/>
<path d="M354.83 366.698C354.484 363.874 354.863 361.425 354.863 361.425C354.863 361.425 354.939 363.519 354.83 366.698Z" fill="url(#paint70_linear_6_15)"/>
<path d="M325.222 367.792C325.222 367.792 332.007 359.488 337.399 349.937C342.791 340.385 343.294 339.04 355.928 332.162C368.562 325.285 371.795 304.143 381.707 298.629C391.618 293.115 392.265 289.897 392.265 289.897C392.265 289.897 399.209 300.885 391.775 313.912C384.341 326.938 371.049 332.61 369.835 341.941C368.62 351.272 371.695 367.021 365.665 367.792C359.636 368.562 362.92 358.464 360.155 351.986C357.39 345.507 350.874 349.937 350.874 349.937C350.874 349.937 334.606 367.021 325.222 367.792Z" fill="white"/>
<path d="M325.222 367.792C325.222 367.792 332.007 359.488 337.399 349.937C342.791 340.385 343.294 339.04 355.928 332.162C368.562 325.285 374.993 316.443 384.903 310.929C394.814 305.415 392.265 289.897 392.265 289.897C392.265 289.897 399.209 300.885 391.775 313.912C384.341 326.938 371.049 332.61 369.835 341.941C368.62 351.272 371.695 367.021 365.665 367.792C359.636 368.562 362.92 358.464 360.155 351.986C357.39 345.507 347.936 343.861 347.936 343.861C347.936 343.861 334.606 367.021 325.222 367.792Z" fill="url(#paint71_linear_6_15)"/>
<path d="M219.22 630.795C221.695 630.795 223.702 626.747 223.702 621.753C223.702 616.759 221.695 612.711 219.22 612.711C216.745 612.711 214.739 616.759 214.739 621.753C214.739 626.747 216.745 630.795 219.22 630.795Z" fill="#1B2043"/>
<path d="M338.82 615.426C341.295 615.426 343.301 611.378 343.301 606.384C343.301 601.39 341.295 597.342 338.82 597.342C336.344 597.342 334.338 601.39 334.338 606.384C334.338 611.378 336.344 615.426 338.82 615.426Z" fill="#1B2043"/>
<path d="M243.828 599.14C243.828 599.14 287.915 604.039 312.881 597.323C312.881 597.323 321.755 633.829 281.457 637.115C241.16 640.402 242.567 602.065 243.828 599.14Z" fill="#1B2043"/>
<path opacity="0.5" d="M299.831 631.94C295.283 634.581 289.303 636.482 281.461 637.117C241.159 640.402 242.566 602.066 243.829 599.137C243.829 599.137 258.745 600.797 276.137 600.856C288.645 600.904 302.433 600.126 312.877 597.321C312.878 597.321 318.639 620.999 299.831 631.94Z" fill="url(#paint72_linear_6_15)"/>
<path d="M299.831 631.94C295.283 634.582 289.303 636.483 281.461 637.117C241.159 640.403 242.566 602.066 243.829 599.136C243.829 599.136 258.745 600.797 276.137 600.856C284.57 608.771 294.095 619.549 299.831 631.94Z" fill="#EC141F"/>
<path d="M299.831 631.94C295.283 634.582 289.303 636.483 281.461 637.117C241.159 640.403 242.566 602.066 243.829 599.136C243.829 599.136 258.745 600.797 276.137 600.856C284.57 608.771 294.095 619.549 299.831 631.94Z" fill="url(#paint73_linear_6_15)"/>
<path d="M690.813 822.91C797.238 822.91 883.513 805.493 883.513 784.007C883.513 762.522 797.238 745.104 690.813 745.104C584.388 745.104 498.113 762.522 498.113 784.007C498.113 805.493 584.388 822.91 690.813 822.91Z" fill="#E5D3DA"/>
<path d="M728.098 652.89C728.098 652.89 758.728 745.374 784.892 786.566C784.892 786.566 740.721 798.467 733.117 791.963C733.117 791.963 743.031 776.698 756.337 770.194C756.337 770.194 730.999 707.642 722.445 652.89H728.098Z" fill="#1B2043"/>
<path d="M728.098 652.89C728.098 652.89 758.728 745.374 784.892 786.566C784.892 786.566 740.721 798.467 733.117 791.963C733.117 791.963 743.031 776.698 756.337 770.194C756.337 770.194 730.999 707.642 722.445 652.89H728.098Z" fill="url(#paint74_linear_6_15)"/>
<path d="M576.375 550.741C576.375 550.741 493.287 513.078 488.151 508.895C483.015 504.712 469.66 476.256 464.523 475.418C459.385 474.581 464.448 505.547 472.522 519.775C472.522 519.775 466.616 526.305 468.817 533.083C471.019 539.862 480.098 526.57 480.098 526.57L576.375 557.437V550.741Z" fill="#1B2043"/>
<path d="M576.375 550.741C576.375 550.741 493.287 513.078 488.151 508.895C483.015 504.712 469.66 476.256 464.523 475.418C459.385 474.581 464.448 505.547 472.522 519.775C472.522 519.775 466.616 526.305 468.817 533.083C471.019 539.862 480.098 526.57 480.098 526.57L576.375 557.437V550.741Z" fill="url(#paint75_linear_6_15)"/>
<path d="M597.2 309.563L575.864 281.953C575.864 281.953 606.074 243.756 618.745 233.842C631.417 223.928 617.159 206.584 617.159 206.584C617.159 206.584 684.752 161.056 690.875 161.056C696.999 161.056 713.157 219.592 710.305 228.264C707.454 236.935 597.2 309.563 597.2 309.563Z" fill="#1B2043"/>
<path d="M597.2 309.563L575.864 281.953C575.864 281.953 606.074 243.756 618.745 233.842C631.417 223.928 617.159 206.584 617.159 206.584C617.159 206.584 684.752 161.056 690.875 161.056C696.999 161.056 713.157 219.592 710.305 228.264C707.454 236.935 597.2 309.563 597.2 309.563Z" fill="url(#paint76_linear_6_15)"/>
<path d="M641.189 556.432C641.189 556.432 735.282 610.088 773.774 629.599C812.267 649.11 866.441 662.118 886.4 652.362C906.36 642.605 904.935 538.402 909.21 507.583C913.486 476.762 920.614 432.398 922.04 387.919C923.465 343.439 914.911 290.009 922.04 240.306C929.168 190.604 928.068 156.197 922.202 145.76C916.337 135.324 912.06 123.942 876.419 114.187C840.779 104.431 829.375 106.056 805.137 97.927C780.903 89.7977 750.962 94.6755 740.984 123.942C731.005 153.209 641.189 556.432 641.189 556.432Z" fill="#6EBACC"/>
<path d="M631.925 557.392C631.925 557.392 726.017 611.048 764.509 630.559C803.002 650.07 857.176 663.079 877.135 653.322C897.095 643.566 895.67 539.362 899.945 508.543C904.221 477.723 911.349 433.359 912.775 388.88C914.2 344.4 905.646 290.969 912.775 241.267C919.903 191.564 918.803 157.157 912.938 146.721C907.072 136.284 902.795 124.903 867.155 115.147C831.514 105.392 820.11 107.017 795.873 98.8876C771.638 90.7583 741.698 95.6361 731.719 124.903C721.74 154.169 631.925 557.392 631.925 557.392Z" fill="url(#paint77_linear_6_15)"/>
<path d="M889.944 465.659C892.797 499.262 886.142 511.186 884.241 530.785C882.34 550.383 873.787 584.897 875.688 622.837C877.588 660.778 865.233 662.945 850.975 671.096C836.717 679.248 813.906 678.12 796.798 679.205C779.691 680.289 730.266 662.944 730.266 662.944L694.08 493.582C757.41 482.611 795.268 428.964 827.395 421.214C863.331 412.542 876.638 415.382 891.845 402.038C894.203 399.969 896.835 397.042 899.601 393.562C895.239 413.55 887.73 439.609 889.944 465.659Z" fill="#EC141F"/>
<path d="M889.944 465.656C892.8 499.266 886.146 511.187 884.242 530.783C882.338 550.388 873.79 584.901 875.685 622.834C877.588 660.776 865.233 662.947 850.973 671.093C846.838 673.456 841.987 675.04 836.756 676.126C837.716 673.599 838.642 671.045 839.544 668.489C850.822 636.464 837.304 582.096 839.544 557.438C841.784 532.781 840.9 462.784 848.034 416.879C869.259 413.007 879.972 412.451 891.848 402.038C894.207 399.974 896.835 397.044 899.605 393.567C895.242 413.545 887.729 439.606 889.944 465.656Z" fill="url(#paint78_linear_6_15)"/>
<path d="M710.638 272.337C698.7 276.37 686.638 280.662 675.965 286.635C682.609 227.796 690.346 155.699 690.346 139.006C690.346 109.738 705.552 119.495 730.265 104.319C754.976 89.1425 761.164 97.1316 773.986 104.319C786.808 111.505 860.479 129.25 880.439 145.759C890.951 154.452 895.666 159.028 898.222 164.242C896.986 168.166 894.942 171.461 891.845 173.695C873.787 186.703 830.426 184.144 813.906 197.76C797.388 211.373 739.485 262.581 710.638 272.337Z" fill="white"/>
<path d="M898.224 164.24C896.985 168.168 894.947 171.463 891.848 173.692C878.187 183.528 850.038 184.469 829.994 190.233C823.542 192.087 817.924 194.45 813.906 197.764C802.857 206.87 773.301 232.786 746.299 251.872C732.932 261.324 720.197 269.105 710.638 272.332C698.703 276.367 686.642 280.66 675.963 286.635C680.671 244.975 685.917 196.668 688.588 166.084C689.691 153.472 690.348 143.876 690.348 139.006C690.348 116.932 698.99 117.057 713.839 111.946C718.681 110.275 724.181 108.056 730.262 104.32C754.974 89.1426 761.164 97.1345 773.983 104.32C786.81 111.505 860.482 129.246 880.435 145.758C890.955 154.452 895.663 159.024 898.224 164.24Z" fill="url(#paint79_linear_6_15)"/>
<path d="M829.993 190.233C823.542 192.087 817.924 194.45 813.905 197.764C802.856 206.87 773.301 232.786 746.298 251.872L710.637 196.726L688.587 166.084C689.69 153.472 690.347 143.876 690.347 139.006C690.347 116.932 698.989 117.057 713.838 111.946C719.371 119.602 727.667 128.459 738.575 132.848C758.259 140.773 820.476 139.265 829.993 190.233Z" fill="url(#paint80_linear_6_15)"/>
<path d="M902.3 377.851C901.871 382.481 900.868 387.764 899.605 393.565C896.835 397.043 894.207 399.972 891.848 402.037C879.972 412.45 869.26 413.006 848.034 416.877C842.071 417.963 835.282 419.308 827.399 421.21C795.267 428.961 757.408 482.61 694.079 493.58L666.58 364.845C666.58 364.845 670.968 328.055 675.963 283.753C686.643 277.779 698.704 273.485 710.639 269.451C739.486 259.701 797.39 208.493 813.906 194.882C818.548 191.049 825.319 188.504 833.05 186.525C849.752 182.25 870.943 180.656 884.941 174.623C887.51 173.519 889.835 172.26 891.847 170.81C894.947 168.581 896.986 165.287 898.223 161.358C900.522 166.055 901.095 171.252 902.56 180.435C905.66 199.819 896.597 278.125 895.645 303.042C894.695 327.949 904.204 357.256 902.3 377.851Z" fill="white"/>
<path d="M839.544 668.49C838.643 671.045 837.717 673.599 836.756 676.126C823.97 678.777 808.944 678.44 796.8 679.209C779.694 680.284 730.262 662.946 730.262 662.946L694.079 493.58C757.408 482.61 795.267 428.961 827.399 421.21C835.282 419.309 842.071 417.963 848.034 416.878C840.9 462.783 841.785 532.78 839.544 557.437C837.304 582.095 850.822 636.464 839.544 668.49Z" fill="url(#paint81_linear_6_15)"/>
<path d="M848.034 416.878C842.071 417.964 835.282 419.309 827.399 421.211C795.267 428.962 757.408 482.611 694.079 493.581L666.58 364.845C666.58 364.845 670.968 328.055 675.963 283.753C686.643 277.779 698.704 273.485 710.639 269.451C739.486 259.701 797.39 208.493 813.906 194.882C818.548 191.049 825.319 188.504 833.05 186.525C833.05 186.525 823.946 251.68 833.05 283.753C842.163 315.827 855.159 370.973 848.034 416.878Z" fill="url(#paint82_linear_6_15)"/>
<path d="M827.213 443.979C826.263 465.659 813.906 525.279 811.055 544.79C808.203 564.301 800.599 602.242 802.501 625.007C804.401 647.769 801.494 678.002 784.888 687.824C781.629 689.754 776.876 690.425 771.229 690.144C748.124 689.059 709.982 672.312 696.998 661.862C680.84 648.855 661.983 634.763 635.293 634.763C608.604 634.763 555.377 620.888 554.427 601.267C553.476 581.647 562.981 494.201 570.585 455.536C578.188 416.88 570.585 310.811 572.486 296.09C574.387 281.381 574.387 279.103 586.744 279.701C599.1 280.296 624.762 262.888 620.96 242.866C617.158 222.844 608.605 216.341 617.158 206.584C625.712 196.828 642.821 223.928 659.93 201.164C677.038 178.399 670.384 155.637 666.582 132.871C666.565 132.764 666.554 132.654 666.535 132.557C664.975 121.566 679.974 122.085 687.492 119.864C695.087 117.62 721.71 134.454 739.769 142.878C757.827 151.3 820.559 174.498 822.459 194.877C824.361 215.255 810.103 339.915 817.706 364.847C825.313 389.779 828.164 422.298 827.213 443.979Z" fill="#98D2E9"/>
<path d="M827.214 443.976C826.262 465.656 813.905 525.28 811.058 544.788C808.203 564.297 800.598 602.239 802.502 625.005C804.406 647.77 801.491 677.999 784.891 687.826C784.36 688.143 783.786 688.421 783.172 688.681C780.048 689.949 775.946 690.382 771.229 690.142C748.126 689.056 709.98 672.313 697.001 661.863C680.839 648.856 661.98 634.765 635.29 634.765C608.606 634.765 555.377 620.885 554.425 601.27C553.474 581.645 562.983 494.204 570.589 455.532C578.187 416.878 570.589 310.813 572.484 296.087C574.387 281.381 574.387 279.104 586.743 279.7C588.226 279.767 589.902 279.585 591.696 279.162C604.836 276.079 624.308 260.489 620.965 242.862C617.157 222.844 608.608 216.341 617.157 206.582C625.714 196.832 642.82 223.929 659.935 201.164C677.041 178.398 670.387 155.633 666.58 132.868C666.563 132.762 666.556 132.656 666.538 132.56C664.98 121.562 679.972 122.09 687.493 119.862C695.091 117.623 721.714 134.453 739.771 142.877C757.829 151.301 820.56 174.499 822.463 194.882C824.358 215.255 810.108 339.918 817.705 364.845C825.31 389.781 828.165 422.296 827.214 443.976Z" fill="url(#paint83_linear_6_15)"/>
<path d="M827.213 443.979C826.263 465.659 813.906 525.279 811.055 544.79C808.203 564.301 800.599 602.242 802.501 625.007C804.401 647.769 801.494 678.002 784.888 687.824C781.629 689.754 776.876 690.425 771.229 690.144C804.972 660.116 784.471 606.762 784.888 580.562C785.335 552.379 803.451 499.263 805.352 476.499C807.254 453.735 806.303 400.619 805.352 372.164C804.401 343.709 804.401 266.204 800.599 223.928C796.797 181.652 761.63 175.149 739.77 169.728C717.908 164.308 686.543 148.048 676.088 142.878C672.942 141.317 669.634 137.35 666.536 132.558C664.976 121.566 679.975 122.086 687.493 119.865C695.087 117.621 721.711 134.455 739.77 142.879C757.828 151.301 820.56 174.499 822.46 194.878C824.362 215.256 810.104 339.916 817.707 364.847C825.313 389.779 828.164 422.298 827.213 443.979Z" fill="url(#paint84_linear_6_15)"/>
<path d="M653.057 637.228C653.057 637.228 636.959 716.363 634.132 768.49C634.132 768.49 589.406 777.185 582.169 770.159C582.169 770.159 594.983 749.827 617.733 750.345C617.733 750.345 636.026 687.287 645.47 636.042L653.057 637.228Z" fill="#1B2043"/>
<path d="M653.057 637.228C653.057 637.228 636.959 716.363 634.132 768.49C634.132 768.49 589.406 777.185 582.169 770.159C582.169 770.159 594.983 749.827 617.733 750.345C617.733 750.345 636.026 687.287 645.47 636.042L653.057 637.228Z" fill="url(#paint85_linear_6_15)"/>
<path d="M817.258 613.95V622.157C817.258 622.157 860.251 647.75 851.95 670.935C847.75 682.665 805.799 706.707 805.799 706.707C805.799 706.707 788.315 712.428 790.215 717.156C792.117 721.883 799.217 724.052 799.217 724.052C799.217 724.052 792.069 739.333 801.657 743.612C811.248 747.889 823.071 717.547 823.071 717.547C823.071 717.547 872.678 689.583 868.877 665.625C865.075 641.668 817.258 613.95 817.258 613.95Z" fill="#1B2043"/>
<path d="M817.258 613.95V622.157C817.258 622.157 860.251 647.75 851.95 670.935C847.75 682.665 805.799 706.707 805.799 706.707C805.799 706.707 788.315 712.428 790.215 717.156C792.117 721.883 799.217 724.052 799.217 724.052C799.217 724.052 792.069 739.333 801.657 743.612C811.248 747.889 823.071 717.547 823.071 717.547C823.071 717.547 872.678 689.583 868.877 665.625C865.075 641.668 817.258 613.95 817.258 613.95Z" fill="url(#paint86_linear_6_15)"/>
<path d="M783.173 688.681C780.048 689.949 775.946 690.382 771.229 690.142C748.126 689.056 709.98 672.313 697.001 661.863C680.839 648.857 661.98 634.765 635.29 634.765C608.606 634.765 555.377 620.885 554.425 601.27C553.474 581.645 562.983 494.204 570.589 455.532C578.187 416.878 570.589 310.813 572.484 296.087C574.387 281.381 574.387 279.104 586.743 279.7C588.226 279.767 589.902 279.585 591.696 279.162C599.075 308.565 612.163 345.547 635.291 382.01C685.867 461.737 732.191 504.108 753.669 619.318C759.143 648.692 770.008 671.304 783.173 688.681Z" fill="url(#paint87_linear_6_15)"/>
<path d="M687.351 176.749C682.315 189.389 659.764 229.83 653.057 229.602C646.35 229.375 635.607 227.565 635.294 246.48C634.98 265.394 609.427 295.348 598.201 301.983C586.975 308.618 600.585 343.397 598.201 364.908C595.818 386.419 584.943 528.345 582.169 549.591C579.395 570.838 565.498 602.537 599.608 606.859C633.717 611.18 651.258 616.419 675.965 628.208C700.672 639.997 755.242 678.807 769.015 665.885C782.788 652.964 774.191 622.709 769.015 586.689C763.839 550.668 766.333 518.278 776.456 475.402C786.579 432.526 786.347 373.453 787.094 343.197C787.841 312.941 790.033 243.886 778.199 220.062C766.364 196.238 694.388 159.081 687.351 176.749Z" fill="url(#paint88_linear_6_15)"/>
<g opacity="0.7">
<g opacity="0.7">
<path opacity="0.7" d="M722.766 278.352C722.766 278.352 728.054 271.602 730.196 258.097C732.338 244.591 744.637 250.093 746.829 258.097C749.023 266.1 731.975 264.847 738.116 275.851C744.257 286.855 748.205 291.858 753.468 299.86C758.731 307.863 751.713 308.865 740.748 308.364C729.783 307.864 727.255 319.368 727.641 330.373C728.028 341.377 715.749 329.872 720.134 309.364C724.522 288.856 725.836 288.856 722.766 278.352Z" fill="url(#paint89_linear_6_15)"/>
<path opacity="0.7" d="M723.769 270.264C726.353 270.412 731.201 270.736 730.011 282.667C728.822 294.598 726.297 309.968 720.4 309.967C714.504 309.966 718.296 292.829 720.4 282.667C722.505 272.505 721.052 270.109 723.769 270.264Z" fill="#1B2043"/>
<path opacity="0.7" d="M723.769 270.264C726.353 270.412 731.201 270.736 730.011 282.667C728.822 294.598 726.297 309.968 720.4 309.967C714.504 309.966 718.296 292.829 720.4 282.667C722.505 272.505 721.052 270.109 723.769 270.264Z" fill="url(#paint90_linear_6_15)"/>
</g>
<g opacity="0.7">
<path opacity="0.7" d="M646.122 261.062C646.122 261.062 648.856 249.057 650.997 235.551C653.139 222.046 657.043 226.579 659.235 234.582C661.429 242.585 655.331 247.556 661.472 258.561C667.612 269.565 671.56 274.568 676.823 282.57C682.087 290.573 675.068 291.574 664.104 291.074C653.138 290.573 650.61 302.078 650.997 313.082C651.383 324.087 639.104 312.582 643.49 292.074C647.877 271.566 649.192 271.566 646.122 261.062Z" fill="url(#paint91_linear_6_15)"/>
<path opacity="0.7" d="M647.125 252.974C649.709 253.122 654.556 253.446 653.367 265.377C652.178 277.308 649.652 292.678 643.756 292.677C637.859 292.676 641.651 275.539 643.756 265.377C645.861 255.215 644.408 252.818 647.125 252.974Z" fill="#1B2043"/>
<path opacity="0.7" d="M647.125 252.974C649.709 253.122 654.556 253.446 653.367 265.377C652.178 277.308 649.652 292.678 643.756 292.677C637.859 292.676 641.651 275.539 643.756 265.377C645.861 255.215 644.408 252.818 647.125 252.974Z" fill="url(#paint92_linear_6_15)"/>
</g>
<g opacity="0.7">
<path opacity="0.7" d="M714.344 408.989C714.344 408.989 717.078 396.984 719.22 383.479C721.362 369.972 727.502 366.972 729.695 374.975C731.888 382.977 723.554 395.484 729.695 406.487C735.836 417.492 741.567 405.705 746.83 413.709C752.094 421.711 746.846 427.657 735.881 427.157C724.916 426.656 712.861 449.989 713.248 460.993C713.636 471.999 707.328 460.509 711.714 440.001C716.099 419.492 717.414 419.492 714.344 408.989Z" fill="url(#paint93_linear_6_15)"/>
<path opacity="0.7" d="M715.347 400.902C717.931 401.05 722.778 401.373 721.589 413.304C720.4 425.235 717.875 440.605 711.978 440.604C706.081 440.604 709.873 423.466 711.978 413.304C714.083 403.142 712.63 400.747 715.347 400.902Z" fill="#1B2043"/>
<path opacity="0.7" d="M715.347 400.902C717.931 401.05 722.778 401.373 721.589 413.304C720.4 425.235 717.875 440.605 711.978 440.604C706.081 440.604 709.873 423.466 711.978 413.304C714.083 403.142 712.63 400.747 715.347 400.902Z" fill="url(#paint94_linear_6_15)"/>
</g>
<g opacity="0.7">
<path opacity="0.7" d="M637.699 391.699C637.699 391.699 640.433 379.694 642.575 366.188C644.717 352.683 647.797 359.598 649.99 367.601C652.183 375.605 646.909 378.194 653.05 389.197C659.191 400.202 664.922 386.494 670.185 394.497C675.449 402.5 670.201 406.405 659.236 405.905C628.807 404.518 653.552 440.604 642.576 443.719C633.204 446.378 630.683 443.218 635.069 422.711C639.454 402.202 640.769 402.202 637.699 391.699Z" fill="url(#paint95_linear_6_15)"/>
<path opacity="0.7" d="M638.702 383.612C641.286 383.76 646.133 384.083 644.944 396.014C643.755 407.945 641.23 423.315 635.333 423.314C629.437 423.314 633.228 406.176 635.333 396.014C637.438 385.852 635.985 383.456 638.702 383.612Z" fill="#1B2043"/>
<path opacity="0.7" d="M638.702 383.612C641.286 383.76 646.133 384.083 644.944 396.014C643.755 407.945 641.23 423.315 635.333 423.314C629.437 423.314 633.228 406.176 635.333 396.014C637.438 385.852 635.985 383.456 638.702 383.612Z" fill="url(#paint96_linear_6_15)"/>
</g>
<g opacity="0.7">
<path opacity="0.7" d="M712.659 531.942C712.659 531.942 717.947 537.094 720.089 523.589C722.231 510.082 730.794 507.562 732.986 515.564C735.179 523.567 721.868 518.436 728.009 529.44C734.15 540.445 739.882 535.699 745.145 543.702C750.408 551.705 741.606 562.453 730.641 561.953C719.676 561.453 717.148 572.957 717.534 583.962C717.922 594.967 705.642 583.461 710.027 562.954C714.415 542.445 715.729 542.445 712.659 531.942Z" fill="url(#paint97_linear_6_15)"/>
<path opacity="0.7" d="M713.662 523.855C716.246 524.003 721.094 524.326 719.904 536.257C718.715 548.188 716.19 563.558 710.293 563.557C704.397 563.557 708.189 546.419 710.293 536.257C712.398 526.095 710.945 523.699 713.662 523.855Z" fill="#1B2043"/>
<path opacity="0.7" d="M713.662 523.855C716.246 524.003 721.094 524.326 719.904 536.257C718.715 548.188 716.19 563.558 710.293 563.557C704.397 563.557 708.189 546.419 710.293 536.257C712.398 526.095 710.945 523.699 713.662 523.855Z" fill="url(#paint98_linear_6_15)"/>
</g>
<g opacity="0.7">
<path opacity="0.7" d="M636.015 514.652C636.015 514.652 638.749 502.647 640.89 489.141C643.032 475.634 651.366 480.637 653.559 488.641C655.752 496.643 645.224 501.147 651.365 512.15C657.506 523.156 661.454 528.157 666.717 536.161C671.98 544.163 664.962 545.164 653.997 544.664C643.032 544.163 640.504 555.668 640.89 566.672C641.278 577.677 628.998 566.172 633.383 545.665C637.77 525.155 639.085 525.155 636.015 514.652Z" fill="url(#paint99_linear_6_15)"/>
<path opacity="0.7" d="M637.018 506.565C639.602 506.713 644.449 507.035 643.26 518.967C642.07 530.898 639.545 546.268 633.649 546.267C627.752 546.267 631.544 529.128 633.649 518.967C635.754 508.805 634.301 506.409 637.018 506.565Z" fill="#1B2043"/>
<path opacity="0.7" d="M637.018 506.565C639.602 506.713 644.449 507.035 643.26 518.967C642.07 530.898 639.545 546.268 633.649 546.267C627.752 546.267 631.544 529.128 633.649 518.967C635.754 508.805 634.301 506.409 637.018 506.565Z" fill="url(#paint100_linear_6_15)"/>
</g>
</g>
<path d="M902.3 377.851C901.87 382.481 900.868 387.764 899.605 393.565C896.835 397.043 894.207 399.972 891.848 402.037C873.26 378.311 873.749 344.633 884.841 317.344C895.933 290.045 887.646 227.935 885.119 188.273C884.807 183.432 884.774 178.879 884.942 174.623C887.511 173.519 889.836 172.26 891.848 170.81C894.948 168.581 896.986 165.287 898.224 161.358C900.523 166.055 901.096 171.252 902.561 180.435C905.661 199.819 896.598 278.125 895.646 303.042C894.694 327.949 904.203 357.256 902.3 377.851Z" fill="url(#paint101_linear_6_15)"/>
<path d="M868.181 438.203C865.844 436.732 869.899 456.454 873.268 455.974C876.637 455.493 876.569 443.486 868.181 438.203Z" fill="url(#paint102_linear_6_15)"/>
<path d="M847.124 487.192C844.787 485.72 848.843 505.443 852.212 504.962C855.58 504.482 855.513 492.475 847.124 487.192Z" fill="url(#paint103_linear_6_15)"/>
<path d="M864.812 564.998C862.474 563.526 866.53 583.249 869.899 582.769C873.268 582.288 873.2 570.281 864.812 564.998Z" fill="url(#paint104_linear_6_15)"/>
<path d="M822.699 579.406C820.362 577.935 824.417 597.657 827.786 597.177C831.155 596.697 831.088 584.69 822.699 579.406Z" fill="url(#paint105_linear_6_15)"/>
<path d="M853.573 440.62C854.637 437.827 837.803 444.292 838.54 448.072C839.278 451.852 849.752 450.642 853.573 440.62Z" fill="url(#paint106_linear_6_15)"/>
<path d="M847.677 544.361C848.741 541.568 831.907 548.033 832.644 551.813C833.382 555.593 843.856 554.384 847.677 544.361Z" fill="url(#paint107_linear_6_15)"/>
<path d="M879.682 494.412C880.747 491.618 863.913 498.084 864.65 501.864C865.388 505.643 875.862 504.434 879.682 494.412Z" fill="url(#paint108_linear_6_15)"/>
<path d="M865.364 609.68C866.429 606.886 849.595 613.352 850.332 617.132C851.069 620.912 861.544 619.702 865.364 609.68Z" fill="url(#paint109_linear_6_15)"/>
<path d="M730.044 584.934C727.618 584.379 724.952 587.899 724.092 592.795C723.231 597.691 724.5 602.11 726.927 602.665C729.354 603.22 732.019 599.701 732.88 594.805C733.741 589.908 732.471 585.489 730.044 584.934Z" fill="#1B2043"/>
<path d="M615.434 543.041C613.007 542.486 610.342 546.005 609.481 550.902C608.62 555.798 609.89 560.217 612.317 560.772C614.743 561.327 617.409 557.808 618.269 552.911C619.13 548.015 617.861 543.596 615.434 543.041Z" fill="#1B2043"/>
<path d="M684.299 596.916C679.003 597.773 672.597 597.315 664.865 594.881C664.638 594.809 664.418 594.74 664.199 594.669C664.019 594.609 663.841 594.549 663.663 594.488C655.413 591.72 649.694 587.953 645.79 583.769C631.99 568.944 640.915 548.815 640.915 548.815C664.235 560.996 708.302 566.079 708.302 566.079C708.889 568.603 705.645 593.45 684.299 596.916Z" fill="#1B2043"/>
<path d="M684.299 596.916C679.003 597.773 672.597 597.315 664.865 594.881C664.638 594.809 664.418 594.74 664.199 594.669C664.019 594.609 663.841 594.549 663.663 594.488C655.413 591.72 649.694 587.953 645.79 583.769C631.99 568.944 640.915 548.815 640.915 548.815C664.235 560.996 708.302 566.079 708.302 566.079C708.889 568.603 705.645 593.45 684.299 596.916Z" fill="url(#paint110_linear_6_15)"/>
<path d="M664.802 591.035C664.584 592.279 664.198 593.444 663.662 594.487C655.413 591.719 649.693 587.952 645.789 583.768C647.746 579.14 652.263 576.411 656.879 577.467C662.355 578.72 665.898 584.8 664.802 591.035Z" fill="white"/>
<path d="M684.299 596.916C679.003 597.773 672.597 597.315 664.865 594.881C664.638 594.809 664.418 594.74 664.199 594.669C664.227 594.403 664.268 594.127 664.314 593.863C665.411 587.628 670.736 583.575 676.203 584.826C681.248 585.98 684.647 591.225 684.299 596.916Z" fill="white"/>
<path d="M437.059 221.459C438.287 214.515 438.318 199.271 429.729 198.524C425.56 198.162 422.295 202.225 420.855 206.162C418.613 212.289 418.982 219.898 419.105 226.384C419.356 239.671 415.549 255.727 422.438 267.419C424.736 271.318 428.53 273.545 431.769 269.793C435.308 265.693 435.852 257.966 435.568 252.583C435.47 250.737 432.943 250.726 433.041 252.583C433.294 257.377 432.727 262.396 430.667 266.649C427.275 273.648 422.399 262.315 421.651 258.68C419.654 248.971 421.925 238.262 421.677 228.377C421.476 220.382 419.861 205.435 427.929 201.783C435.643 198.292 435.436 216.087 434.62 220.691C434.301 222.507 436.737 223.28 437.059 221.459Z" fill="#EC141F"/>
<path d="M508.474 271.839C510.696 248.865 509.292 225.744 510.008 202.696C509.475 203.159 508.942 203.622 508.41 204.085C520.553 206.252 521.999 239.884 507.978 238.014C506.916 237.873 506.254 239.717 507.084 240.474C516.257 248.83 516.772 263.477 518.27 275.723C518.495 277.557 520.928 276.773 520.707 274.957C519.143 262.167 518.434 247.147 508.87 238.437C508.572 239.257 508.275 240.076 507.977 240.897C525.061 243.175 523.962 203.963 509.08 201.307C508.259 201.16 507.513 201.684 507.482 202.696C506.765 225.744 508.168 248.864 505.947 271.839C505.768 273.685 508.297 273.665 508.474 271.839Z" fill="#EC141F"/>
<path d="M466.041 200.071C466.139 222.359 469.901 244.875 466.854 267.08C466.771 267.678 466.887 268.419 467.434 268.707C470.811 270.488 473.92 271.363 477.616 270.602C479.218 270.273 478.538 267.496 476.945 267.823C473.921 268.445 471.433 267.655 468.709 266.218C468.903 266.761 469.097 267.303 469.29 267.846C472.377 245.346 468.666 222.65 468.568 200.07C468.559 198.213 466.033 198.212 466.041 200.071Z" fill="#EC141F"/>
<path d="M466.667 201.315C470.196 204.105 474.307 204.079 478.384 203.21C479.985 202.869 479.306 200.092 477.713 200.431C474.273 201.165 470.918 201.178 467.941 198.826C466.6 197.765 465.338 200.264 466.667 201.315Z" fill="#EC141F"/>
<path d="M467.434 222.32C470.602 224 473.833 224.264 477.28 224.268C478.91 224.268 478.91 221.387 477.28 221.386C474.323 221.383 471.438 221.28 468.709 219.832C467.242 219.054 465.958 221.537 467.434 222.32Z" fill="#EC141F"/>
<path d="M486.762 200.946C486.762 224.58 486.783 248.216 487.53 271.839C487.549 272.466 487.899 273.076 488.458 273.228C492.066 274.212 495.569 274.836 499.105 273.228C500.599 272.548 499.948 269.76 498.434 270.449C495.292 271.878 492.327 271.321 489.129 270.449C489.438 270.912 489.747 271.375 490.057 271.838C489.31 248.215 489.29 224.579 489.29 200.945C489.289 199.087 486.762 199.087 486.762 200.946Z" fill="#EC141F"/>
<path d="M486.621 202.19C490.413 204.654 494.105 204.999 498.337 204.085C499.937 203.74 499.258 200.963 497.666 201.306C494.102 202.076 491.086 201.774 487.895 199.701C486.478 198.781 485.205 201.271 486.621 202.19Z" fill="#EC141F"/>
<path d="M486.621 222.32C489.096 224.114 492.003 225.078 494.932 225.143C496.563 225.178 496.559 222.296 494.932 222.261C492.431 222.206 490.005 221.36 487.896 219.832C486.516 218.833 485.25 221.327 486.621 222.32Z" fill="#EC141F"/>
<path d="M440.716 201.821C443.046 225.074 444.513 248.427 444.554 271.839C444.557 273.697 447.084 273.697 447.08 271.839C447.041 248.427 445.573 225.073 443.243 201.821C443.06 199.997 440.532 199.977 440.716 201.821Z" fill="#EC141F"/>
<path d="M444.714 239.095C449.381 240.71 454.865 241.315 459.727 241.396C461.357 241.424 461.355 238.542 459.727 238.515C455.052 238.435 449.872 237.868 445.386 236.316C443.822 235.775 443.159 238.557 444.714 239.095Z" fill="#EC141F"/>
<path d="M455.298 204.446C454.716 226.806 461.247 248.579 459.902 270.964C459.791 272.819 462.318 272.807 462.429 270.964C463.775 248.576 457.243 226.805 457.824 204.446C457.873 202.588 455.346 202.592 455.298 204.446Z" fill="#EC141F"/>
<path d="M546.032 225.069C544.844 218.375 546.062 200.84 536.046 202.818C530.083 203.996 527.315 207.334 527.06 214.044C526.826 220.225 527.664 228.144 530.472 233.532C531.386 235.287 532.985 236.179 534.51 237.082C537.157 238.651 539.433 240.941 542.074 242.58C544.655 244.182 544.829 248.304 545.267 251.265C545.942 255.825 546.618 260.413 546.335 265.051C546.102 268.866 542.127 272.741 539.052 273.878C536.518 274.814 535.592 270.823 535.144 268.831C533.896 263.269 534.25 257.383 533.799 251.708C533.654 249.873 531.125 249.857 531.273 251.708C531.756 257.8 530.063 275.196 537.584 276.805C541.39 277.619 547.186 272.012 548.272 268.255C550.261 261.364 548.345 251.541 546.599 244.76C546.117 242.89 545.213 241.473 543.807 240.397C541.396 238.553 538.88 236.669 536.387 234.971C533.326 232.885 532.135 231.662 531.042 227.489C530.091 223.858 529.75 220.013 529.597 216.243C529.52 214.32 529.597 212.387 529.927 210.498C530.364 207.99 532.514 207.142 534.387 206.28C537.505 204.846 540.044 205.809 541.335 209.359C543.211 214.517 542.638 220.44 543.596 225.834C543.919 227.655 546.354 226.883 546.032 225.069Z" fill="#EC141F"/>
<path d="M459.948 293.228C460.517 297.63 460.001 302.33 459.802 306.745C459.515 313.134 459.25 319.529 459.484 325.927C459.768 333.717 460.945 346.667 469.918 346.91C478.865 347.152 479.825 331.854 480.343 324.737C481.203 312.92 480.135 301.156 480.08 289.344C480.071 287.486 477.544 287.485 477.553 289.344C477.599 299.089 478.326 308.791 478.1 318.546C477.95 324.993 478.279 343.592 469.918 344.028C461.299 344.478 461.908 326.203 461.914 320.148C461.923 311.066 463.551 301.484 462.384 292.462C462.147 290.628 459.712 291.41 459.948 293.228Z" fill="#EC141F"/>
<path d="M486.941 348.367C492.251 328.927 485.624 308.533 489.243 288.852C488.837 289.205 488.431 289.557 488.025 289.91C494.18 289.73 495.926 301.013 496.151 306.125C496.5 314.044 493.389 322.51 485.289 321.214C483.696 320.958 483.01 323.735 484.618 323.993C494.217 325.531 498.671 316.816 498.693 306.916C498.711 299.961 496.002 286.797 488.024 287.029C487.487 287.044 486.922 287.454 486.806 288.087C483.189 307.762 489.794 328.232 484.504 347.601C484.019 349.379 486.458 350.134 486.941 348.367Z" fill="#EC141F"/>
<path d="M505.18 288.468C505.18 304.805 505.18 321.143 505.18 337.48C505.18 339.339 507.706 339.339 507.706 337.48C507.706 321.143 507.706 304.805 507.706 288.468C507.706 286.61 505.18 286.61 505.18 288.468Z" fill="#EC141F"/>
<path d="M504.015 345.214C502.964 346.627 502.052 348.278 501.747 350.126C501.539 351.387 501.528 352.987 502.406 353.95C502.877 354.465 503.557 354.68 504.187 354.464C504.815 354.249 505.261 353.708 505.613 353.104C506.599 351.414 506.79 349.063 506.938 347.109C506.997 346.325 506.319 345.668 505.675 345.668C504.941 345.668 504.47 346.327 504.412 347.109C504.335 348.121 504.266 348.771 504.039 349.842C503.967 350.184 503.879 350.522 503.776 350.854C503.746 350.954 503.565 351.443 503.732 351.004C503.679 351.144 503.617 351.281 503.553 351.417C503.506 351.515 503.455 351.609 503.4 351.701C503.229 351.996 503.603 351.433 503.413 351.682C503.365 351.743 503.313 351.8 503.258 351.854C503.601 351.514 503.424 351.718 503.302 351.789C503.702 351.559 503.562 351.679 503.428 351.709C503.717 351.673 503.8 351.66 503.679 351.667C503.57 351.671 503.392 351.603 503.905 351.707C503.659 351.657 504.172 351.859 504.054 351.786C503.862 351.669 504.342 352.092 504.148 351.863C504.056 351.753 504.376 352.246 504.226 351.97C504.166 351.857 504.074 351.569 504.255 352.081C504.196 351.914 504.107 351.276 504.174 351.861C504.15 351.653 504.149 351.443 504.155 351.234C504.158 351.117 504.168 351 504.178 350.884C504.205 350.598 504.129 351.26 504.17 350.97C504.182 350.892 504.194 350.816 504.209 350.739C504.258 350.46 504.329 350.186 504.407 349.917C504.45 349.77 504.499 349.625 504.551 349.48C504.409 349.884 504.635 349.288 504.677 349.189C504.834 348.829 505.016 348.482 505.21 348.145C505.306 347.979 505.408 347.818 505.511 347.656C505.723 347.326 505.352 347.88 505.581 347.552C505.652 347.452 505.726 347.353 505.8 347.254C506.244 346.655 506.316 345.805 505.8 345.216C505.345 344.693 504.46 344.615 504.015 345.214Z" fill="#EC141F"/>
<path d="M446.261 351.632C443.431 357.319 440.863 363.135 438.587 369.137C438.009 370.662 439.421 371.933 440.572 370.883C444.409 367.381 448.246 363.881 452.083 360.38C453.355 359.219 451.555 357.194 450.296 358.342C446.459 361.844 442.622 365.345 438.785 368.845C439.446 369.428 440.107 370.01 440.769 370.591C443.045 364.588 445.613 358.774 448.443 353.086C449.248 351.469 447.064 350.016 446.261 351.632Z" fill="#EC141F"/>
<path d="M506.573 365.857C511.268 368.588 515.69 371.878 520.386 374.609C521.429 375.216 522.426 374.232 522.241 372.982C521.313 366.722 518.407 361.497 515.01 356.592C514 355.134 512.224 357.189 513.223 358.63C516.355 363.151 518.951 367.989 519.804 373.748C520.423 373.205 521.042 372.664 521.66 372.121C516.964 369.39 512.543 366.1 507.847 363.369C506.399 362.527 505.121 365.013 506.573 365.857Z" fill="#EC141F"/>
<defs>
<linearGradient id="paint0_linear_6_15" x1="329.477" y1="96.1375" x2="178.37" y2="388.538" gradientUnits="userSpaceOnUse">
<stop stop-color="#F4EAEE" stop-opacity="0"/>
<stop offset="1" stop-color="#F4EAEE"/>
</linearGradient>
<linearGradient id="paint1_linear_6_15" x1="322.168" y1="11.2506" x2="368.205" y2="11.2506" gradientUnits="userSpaceOnUse">
<stop stop-color="#F4EAEE" stop-opacity="0"/>
<stop offset="1" stop-color="#F4EAEE"/>
</linearGradient>
<linearGradient id="paint2_linear_6_15" x1="337.866" y1="32.9854" x2="290.901" y2="165.884" gradientUnits="userSpaceOnUse">
<stop stop-color="#F4EAEE" stop-opacity="0"/>
<stop offset="1" stop-color="#F4EAEE"/>
</linearGradient>
<linearGradient id="paint3_linear_6_15" x1="323.199" y1="71.3405" x2="291.594" y2="185.335" gradientUnits="userSpaceOnUse">
<stop stop-color="#F4EAEE" stop-opacity="0"/>
<stop offset="1" stop-color="#F4EAEE"/>
</linearGradient>
<linearGradient id="paint4_linear_6_15" x1="305.539" y1="134.326" x2="267.54" y2="263.825" gradientUnits="userSpaceOnUse">
<stop stop-color="#F4EAEE" stop-opacity="0"/>
<stop offset="1" stop-color="#F4EAEE"/>
</linearGradient>
<linearGradient id="paint5_linear_6_15" x1="397.203" y1="-162.861" x2="245.2" y2="355.171" gradientUnits="userSpaceOnUse">
<stop stop-color="#98D2E9" stop-opacity="0"/>
<stop offset="1" stop-color="#98D2E9"/>
</linearGradient>
<linearGradient id="paint6_linear_6_15" x1="380.183" y1="171.885" x2="150.435" y2="389.122" gradientUnits="userSpaceOnUse">
<stop stop-color="#F4EAEE" stop-opacity="0"/>
<stop offset="1" stop-color="#F4EAEE"/>
</linearGradient>
<linearGradient id="paint7_linear_6_15" x1="396.822" y1="88.7293" x2="441.525" y2="101.817" gradientUnits="userSpaceOnUse">
<stop stop-color="#F4EAEE" stop-opacity="0"/>
<stop offset="1" stop-color="#F4EAEE"/>
</linearGradient>
<linearGradient id="paint8_linear_6_15" x1="405.677" y1="115.016" x2="319.506" y2="220.242" gradientUnits="userSpaceOnUse">
<stop stop-color="#F4EAEE" stop-opacity="0"/>
<stop offset="1" stop-color="#F4EAEE"/>
</linearGradient>
<linearGradient id="paint9_linear_6_15" x1="381.113" y1="146.097" x2="314.439" y2="239.194" gradientUnits="userSpaceOnUse">
<stop stop-color="#F4EAEE" stop-opacity="0"/>
<stop offset="1" stop-color="#F4EAEE"/>
</linearGradient>
<linearGradient id="paint10_linear_6_15" x1="346.872" y1="199.461" x2="269.382" y2="304.519" gradientUnits="userSpaceOnUse">
<stop stop-color="#F4EAEE" stop-opacity="0"/>
<stop offset="1" stop-color="#F4EAEE"/>
</linearGradient>
<linearGradient id="paint11_linear_6_15" x1="517.779" y1="-48.2527" x2="207.801" y2="372.007" gradientUnits="userSpaceOnUse">
<stop stop-color="#98D2E9" stop-opacity="0"/>
<stop offset="1" stop-color="#98D2E9"/>
</linearGradient>
<linearGradient id="paint12_linear_6_15" x1="170.45" y1="260.503" x2="228.355" y2="346.015" gradientUnits="userSpaceOnUse">
<stop stop-color="#3C4784" stop-opacity="0"/>
<stop offset="1" stop-color="#3C4784"/>
</linearGradient>
<linearGradient id="paint13_linear_6_15" x1="79.0258" y1="222.84" x2="215.749" y2="468.961" gradientUnits="userSpaceOnUse">
<stop stop-color="#3C4784" stop-opacity="0"/>
<stop offset="1" stop-color="#3C4784"/>
</linearGradient>
<linearGradient id="paint14_linear_6_15" x1="216.167" y1="62.1162" x2="176.951" y2="416.482" gradientUnits="userSpaceOnUse">
<stop stop-color="#F4EAEE" stop-opacity="0"/>
<stop offset="1" stop-color="#F4EAEE"/>
</linearGradient>
<linearGradient id="paint15_linear_6_15" x1="87.3196" y1="222.812" x2="179.809" y2="464.239" gradientUnits="userSpaceOnUse">
<stop stop-color="#3C4784" stop-opacity="0"/>
<stop offset="1" stop-color="#3C4784"/>
</linearGradient>
<linearGradient id="paint16_linear_6_15" x1="223.62" y1="191.386" x2="161.208" y2="290.069" gradientUnits="userSpaceOnUse">
<stop stop-color="#F4EAEE" stop-opacity="0"/>
<stop offset="1" stop-color="#F4EAEE"/>
</linearGradient>
<linearGradient id="paint17_linear_6_15" x1="168.562" y1="153.436" x2="174.697" y2="198.437" gradientUnits="userSpaceOnUse">
<stop stop-color="#F4EAEE" stop-opacity="0"/>
<stop offset="1" stop-color="#F4EAEE"/>
</linearGradient>
<linearGradient id="paint18_linear_6_15" x1="153.902" y1="235.889" x2="159.853" y2="259.47" gradientUnits="userSpaceOnUse">
<stop stop-color="#F4EAEE" stop-opacity="0"/>
<stop offset="1" stop-color="#F4EAEE"/>
</linearGradient>
<linearGradient id="paint19_linear_6_15" x1="189.59" y1="764.866" x2="189.59" y2="655.025" gradientUnits="userSpaceOnUse">
<stop stop-color="#EC141F" stop-opacity="0"/>
<stop offset="1" stop-color="#EC141F"/>
</linearGradient>
<linearGradient id="paint20_linear_6_15" x1="326.488" y1="764.865" x2="326.488" y2="655.025" gradientUnits="userSpaceOnUse">
<stop stop-color="#EC141F" stop-opacity="0"/>
<stop offset="1" stop-color="#EC141F"/>
</linearGradient>
<linearGradient id="paint21_linear_6_15" x1="411.795" y1="525.879" x2="332.269" y2="553.314" gradientUnits="userSpaceOnUse">
<stop stop-color="#EC141F" stop-opacity="0"/>
<stop offset="1" stop-color="#EC141F"/>
</linearGradient>
<linearGradient id="paint22_linear_6_15" x1="104.934" y1="386.178" x2="147.805" y2="452.407" gradientUnits="userSpaceOnUse">
<stop stop-color="#3C4784" stop-opacity="0"/>
<stop offset="1" stop-color="#3C4784"/>
</linearGradient>
<linearGradient id="paint23_linear_6_15" x1="1.22018" y1="419.587" x2="152.64" y2="419.587" gradientUnits="userSpaceOnUse">
<stop stop-color="#3C4784" stop-opacity="0"/>
<stop offset="1" stop-color="#3C4784"/>
</linearGradient>
<linearGradient id="paint24_linear_6_15" x1="29.8398" y1="440.711" x2="127.498" y2="440.711" gradientUnits="userSpaceOnUse">
<stop stop-color="#F4EAEE" stop-opacity="0"/>
<stop offset="1" stop-color="#F4EAEE"/>
</linearGradient>
<linearGradient id="paint25_linear_6_15" x1="31.2126" y1="351.986" x2="205.904" y2="351.986" gradientUnits="userSpaceOnUse">
<stop stop-color="#F4EAEE" stop-opacity="0"/>
<stop offset="1" stop-color="#F4EAEE"/>
</linearGradient>
<linearGradient id="paint26_linear_6_15" x1="122.502" y1="182.539" x2="83.1744" y2="537.913" gradientUnits="userSpaceOnUse">
<stop stop-color="#F4EAEE" stop-opacity="0"/>
<stop offset="1" stop-color="#F4EAEE"/>
</linearGradient>
<linearGradient id="paint27_linear_6_15" x1="41.5374" y1="350.686" x2="73.7908" y2="378.135" gradientUnits="userSpaceOnUse">
<stop stop-color="#F4EAEE" stop-opacity="0"/>
<stop offset="1" stop-color="#F4EAEE"/>
</linearGradient>
<linearGradient id="paint28_linear_6_15" x1="39.5372" y1="308.942" x2="57.3733" y2="322.934" gradientUnits="userSpaceOnUse">
<stop stop-color="#F4EAEE" stop-opacity="0"/>
<stop offset="1" stop-color="#F4EAEE"/>
</linearGradient>
<linearGradient id="paint29_linear_6_15" x1="216.673" y1="535.296" x2="203.533" y2="844.935" gradientUnits="userSpaceOnUse">
<stop stop-color="#3C4784" stop-opacity="0"/>
<stop offset="1" stop-color="#3C4784"/>
</linearGradient>
<linearGradient id="paint30_linear_6_15" x1="125.171" y1="425.568" x2="77.6581" y2="845.043" gradientUnits="userSpaceOnUse">
<stop stop-color="#3C4784" stop-opacity="0"/>
<stop offset="1" stop-color="#3C4784"/>
</linearGradient>
<linearGradient id="paint31_linear_6_15" x1="207.74" y1="430.353" x2="211.026" y2="602.274" gradientUnits="userSpaceOnUse">
<stop stop-color="#3C4784" stop-opacity="0"/>
<stop offset="1" stop-color="#3C4784"/>
</linearGradient>
<linearGradient id="paint32_linear_6_15" x1="276.88" y1="565.808" x2="372.231" y2="565.808" gradientUnits="userSpaceOnUse">
<stop stop-color="#F4EAEE" stop-opacity="0"/>
<stop offset="0.6583" stop-color="#FBF6F8" stop-opacity="0.6583"/>
<stop offset="1" stop-color="white"/>
</linearGradient>
<linearGradient id="paint33_linear_6_15" x1="263.002" y1="306.856" x2="313.829" y2="516.414" gradientUnits="userSpaceOnUse">
<stop stop-color="#EC141F" stop-opacity="0"/>
<stop offset="1" stop-color="#EC141F"/>
</linearGradient>
<linearGradient id="paint34_linear_6_15" x1="170.591" y1="261.528" x2="181.538" y2="459.265" gradientUnits="userSpaceOnUse">
<stop stop-color="#F4EAEE" stop-opacity="0"/>
<stop offset="1" stop-color="#F4EAEE"/>
</linearGradient>
<linearGradient id="paint35_linear_6_15" x1="402.571" y1="296.251" x2="212.773" y2="509.233" gradientUnits="userSpaceOnUse">
<stop stop-color="#EC141F" stop-opacity="0"/>
<stop offset="1" stop-color="#EC141F"/>
</linearGradient>
<linearGradient id="paint36_linear_6_15" x1="408.023" y1="320.355" x2="247.039" y2="501.003" gradientUnits="userSpaceOnUse">
<stop stop-color="#F4EAEE" stop-opacity="0"/>
<stop offset="1" stop-color="#F4EAEE"/>
</linearGradient>
<linearGradient id="paint37_linear_6_15" x1="361.765" y1="387.378" x2="358.86" y2="411.656" gradientUnits="userSpaceOnUse">
<stop stop-color="#F4EAEE" stop-opacity="0"/>
<stop offset="1" stop-color="#F4EAEE"/>
</linearGradient>
<linearGradient id="paint38_linear_6_15" x1="387.876" y1="355.677" x2="384.97" y2="379.956" gradientUnits="userSpaceOnUse">
<stop stop-color="#F4EAEE" stop-opacity="0"/>
<stop offset="1" stop-color="#F4EAEE"/>
</linearGradient>
<linearGradient id="paint39_linear_6_15" x1="212.664" y1="258.463" x2="257.973" y2="505.345" gradientUnits="userSpaceOnUse">
<stop stop-color="#98D2E9" stop-opacity="0"/>
<stop offset="1" stop-color="#98D2E9"/>
</linearGradient>
<linearGradient id="paint40_linear_6_15" x1="36.5169" y1="460.79" x2="391.993" y2="460.79" gradientUnits="userSpaceOnUse">
<stop stop-color="#F4EAEE" stop-opacity="0"/>
<stop offset="1" stop-color="#F4EAEE"/>
</linearGradient>
<linearGradient id="paint41_linear_6_15" x1="87.2512" y1="672.11" x2="370.298" y2="672.11" gradientUnits="userSpaceOnUse">
<stop stop-color="#F4EAEE" stop-opacity="0"/>
<stop offset="1" stop-color="#F4EAEE"/>
</linearGradient>
<linearGradient id="paint42_linear_6_15" x1="316.162" y1="217.96" x2="394.763" y2="217.96" gradientUnits="userSpaceOnUse">
<stop stop-color="#3C4784" stop-opacity="0"/>
<stop offset="1" stop-color="#3C4784"/>
</linearGradient>
<linearGradient id="paint43_linear_6_15" x1="339.798" y1="285.199" x2="321.232" y2="446.079" gradientUnits="userSpaceOnUse">
<stop stop-color="#3C4784" stop-opacity="0"/>
<stop offset="1" stop-color="#3C4784"/>
</linearGradient>
<linearGradient id="paint44_linear_6_15" x1="272.567" y1="236.664" x2="397.028" y2="428.089" gradientUnits="userSpaceOnUse">
<stop stop-color="#3C4784" stop-opacity="0"/>
<stop offset="1" stop-color="#3C4784"/>
</linearGradient>
<linearGradient id="paint45_linear_6_15" x1="394.635" y1="224.262" x2="298.398" y2="419.627" gradientUnits="userSpaceOnUse">
<stop stop-color="#F4EAEE" stop-opacity="0"/>
<stop offset="1" stop-color="#F4EAEE"/>
</linearGradient>
<linearGradient id="paint46_linear_6_15" x1="320.554" y1="262.132" x2="320.554" y2="274.158" gradientUnits="userSpaceOnUse">
<stop stop-color="#3C4784" stop-opacity="0"/>
<stop offset="1" stop-color="#3C4784"/>
</linearGradient>
<linearGradient id="paint47_linear_6_15" x1="355.928" y1="262.132" x2="355.928" y2="274.158" gradientUnits="userSpaceOnUse">
<stop stop-color="#3C4784" stop-opacity="0"/>
<stop offset="1" stop-color="#3C4784"/>
</linearGradient>
<linearGradient id="paint48_linear_6_15" x1="303.709" y1="292.87" x2="303.709" y2="304.896" gradientUnits="userSpaceOnUse">
<stop stop-color="#3C4784" stop-opacity="0"/>
<stop offset="1" stop-color="#3C4784"/>
</linearGradient>
<linearGradient id="paint49_linear_6_15" x1="337.399" y1="293.831" x2="337.399" y2="305.857" gradientUnits="userSpaceOnUse">
<stop stop-color="#3C4784" stop-opacity="0"/>
<stop offset="1" stop-color="#3C4784"/>
</linearGradient>
<linearGradient id="paint50_linear_6_15" x1="318.027" y1="333.214" x2="318.027" y2="345.24" gradientUnits="userSpaceOnUse">
<stop stop-color="#3C4784" stop-opacity="0"/>
<stop offset="1" stop-color="#3C4784"/>
</linearGradient>
<linearGradient id="paint51_linear_6_15" x1="350.875" y1="316.884" x2="350.875" y2="328.91" gradientUnits="userSpaceOnUse">
<stop stop-color="#3C4784" stop-opacity="0"/>
<stop offset="1" stop-color="#3C4784"/>
</linearGradient>
<linearGradient id="paint52_linear_6_15" x1="372.773" y1="285.185" x2="372.773" y2="297.211" gradientUnits="userSpaceOnUse">
<stop stop-color="#3C4784" stop-opacity="0"/>
<stop offset="1" stop-color="#3C4784"/>
</linearGradient>
<linearGradient id="paint53_linear_6_15" x1="321.026" y1="260.217" x2="317.055" y2="271.897" gradientUnits="userSpaceOnUse">
<stop stop-color="#98D2E9" stop-opacity="0"/>
<stop offset="1" stop-color="#98D2E9"/>
</linearGradient>
<linearGradient id="paint54_linear_6_15" x1="356.4" y1="260.217" x2="352.429" y2="271.897" gradientUnits="userSpaceOnUse">
<stop stop-color="#98D2E9" stop-opacity="0"/>
<stop offset="1" stop-color="#98D2E9"/>
</linearGradient>
<linearGradient id="paint55_linear_6_15" x1="304.182" y1="290.955" x2="300.21" y2="302.635" gradientUnits="userSpaceOnUse">
<stop stop-color="#98D2E9" stop-opacity="0"/>
<stop offset="1" stop-color="#98D2E9"/>
</linearGradient>
<linearGradient id="paint56_linear_6_15" x1="337.871" y1="291.916" x2="333.9" y2="303.595" gradientUnits="userSpaceOnUse">
<stop stop-color="#98D2E9" stop-opacity="0"/>
<stop offset="1" stop-color="#98D2E9"/>
</linearGradient>
<linearGradient id="paint57_linear_6_15" x1="318.499" y1="331.298" x2="314.528" y2="342.977" gradientUnits="userSpaceOnUse">
<stop stop-color="#98D2E9" stop-opacity="0"/>
<stop offset="1" stop-color="#98D2E9"/>
</linearGradient>
<linearGradient id="paint58_linear_6_15" x1="351.347" y1="314.969" x2="347.375" y2="326.648" gradientUnits="userSpaceOnUse">
<stop stop-color="#98D2E9" stop-opacity="0"/>
<stop offset="1" stop-color="#98D2E9"/>
</linearGradient>
<linearGradient id="paint59_linear_6_15" x1="373.245" y1="283.271" x2="369.274" y2="294.95" gradientUnits="userSpaceOnUse">
<stop stop-color="#98D2E9" stop-opacity="0"/>
<stop offset="1" stop-color="#98D2E9"/>
</linearGradient>
<linearGradient id="paint60_linear_6_15" x1="153.772" y1="692.441" x2="161.98" y2="564.333" gradientUnits="userSpaceOnUse">
<stop stop-color="#EC141F" stop-opacity="0"/>
<stop offset="1" stop-color="#EC141F"/>
</linearGradient>
<linearGradient id="paint61_linear_6_15" x1="282.892" y1="278.187" x2="233.731" y2="167.96" gradientUnits="userSpaceOnUse">
<stop stop-color="#3C4784" stop-opacity="0"/>
<stop offset="1" stop-color="#3C4784"/>
</linearGradient>
<linearGradient id="paint62_linear_6_15" x1="230.88" y1="176.212" x2="287.285" y2="253.342" gradientUnits="userSpaceOnUse">
<stop stop-color="#3C4784" stop-opacity="0"/>
<stop offset="1" stop-color="#3C4784"/>
</linearGradient>
<linearGradient id="paint63_linear_6_15" x1="219.47" y1="109.382" x2="234.053" y2="281.999" gradientUnits="userSpaceOnUse">
<stop stop-color="#3C4784" stop-opacity="0"/>
<stop offset="1" stop-color="#3C4784"/>
</linearGradient>
<linearGradient id="paint64_linear_6_15" x1="307.569" y1="184.81" x2="242.794" y2="216.596" gradientUnits="userSpaceOnUse">
<stop stop-color="#3C4784" stop-opacity="0"/>
<stop offset="1" stop-color="#3C4784"/>
</linearGradient>
<linearGradient id="paint65_linear_6_15" x1="210.911" y1="222.81" x2="257.497" y2="222.81" gradientUnits="userSpaceOnUse">
<stop stop-color="#3C4784" stop-opacity="0"/>
<stop offset="1" stop-color="#3C4784"/>
</linearGradient>
<linearGradient id="paint66_linear_6_15" x1="280.827" y1="318.58" x2="269.161" y2="185.616" gradientUnits="userSpaceOnUse">
<stop stop-color="#3C4784" stop-opacity="0"/>
<stop offset="1" stop-color="#3C4784"/>
</linearGradient>
<linearGradient id="paint67_linear_6_15" x1="36.5169" y1="465.714" x2="164.17" y2="465.714" gradientUnits="userSpaceOnUse">
<stop stop-color="#F4EAEE" stop-opacity="0"/>
<stop offset="1" stop-color="#F4EAEE"/>
</linearGradient>
<linearGradient id="paint68_linear_6_15" x1="404.412" y1="398.525" x2="313.935" y2="520.168" gradientUnits="userSpaceOnUse">
<stop stop-color="#98D2E9" stop-opacity="0"/>
<stop offset="1" stop-color="#98D2E9"/>
</linearGradient>
<linearGradient id="paint69_linear_6_15" x1="66.3838" y1="438.683" x2="66.3838" y2="577.966" gradientUnits="userSpaceOnUse">
<stop stop-color="#3C4784" stop-opacity="0"/>
<stop offset="1" stop-color="#3C4784"/>
</linearGradient>
<linearGradient id="paint70_linear_6_15" x1="355.991" y1="362.393" x2="352.862" y2="365.907" gradientUnits="userSpaceOnUse">
<stop stop-color="#EC141F" stop-opacity="0"/>
<stop offset="1" stop-color="#EC141F"/>
</linearGradient>
<linearGradient id="paint71_linear_6_15" x1="339.997" y1="277.486" x2="405.691" y2="414.75" gradientUnits="userSpaceOnUse">
<stop stop-color="#98D2E9" stop-opacity="0"/>
<stop offset="1" stop-color="#98D2E9"/>
</linearGradient>
<linearGradient id="paint72_linear_6_15" x1="293.104" y1="588.819" x2="265.859" y2="616.974" gradientUnits="userSpaceOnUse">
<stop stop-color="#98D2E9" stop-opacity="0"/>
<stop offset="1" stop-color="#98D2E9"/>
</linearGradient>
<linearGradient id="paint73_linear_6_15" x1="274.685" y1="600.764" x2="255.241" y2="677.484" gradientUnits="userSpaceOnUse">
<stop stop-color="#3C4784" stop-opacity="0"/>
<stop offset="1" stop-color="#3C4784"/>
</linearGradient>
<linearGradient id="paint74_linear_6_15" x1="753.668" y1="735.089" x2="753.668" y2="638.546" gradientUnits="userSpaceOnUse">
<stop stop-color="#EC141F" stop-opacity="0"/>
<stop offset="1" stop-color="#EC141F"/>
</linearGradient>
<linearGradient id="paint75_linear_6_15" x1="501.264" y1="516.514" x2="588.78" y2="539.083" gradientUnits="userSpaceOnUse">
<stop stop-color="#EC141F" stop-opacity="0"/>
<stop offset="1" stop-color="#EC141F"/>
</linearGradient>
<linearGradient id="paint76_linear_6_15" x1="575.863" y1="235.309" x2="710.64" y2="235.309" gradientUnits="userSpaceOnUse">
<stop stop-color="#EC141F" stop-opacity="0"/>
<stop offset="1" stop-color="#EC141F"/>
</linearGradient>
<linearGradient id="paint77_linear_6_15" x1="631.925" y1="376.004" x2="917.735" y2="376.004" gradientUnits="userSpaceOnUse">
<stop stop-color="#3C4784" stop-opacity="0"/>
<stop offset="1" stop-color="#3C4784"/>
</linearGradient>
<linearGradient id="paint78_linear_6_15" x1="867.285" y1="471.8" x2="833.954" y2="722.305" gradientUnits="userSpaceOnUse">
<stop stop-color="#3C4784" stop-opacity="0"/>
<stop offset="1" stop-color="#3C4784"/>
</linearGradient>
<linearGradient id="paint79_linear_6_15" x1="993.061" y1="194.125" x2="587.524" y2="190.802" gradientUnits="userSpaceOnUse">
<stop stop-color="#3C4784" stop-opacity="0"/>
<stop offset="1" stop-color="#3C4784"/>
</linearGradient>
<linearGradient id="paint80_linear_6_15" x1="817.645" y1="243.032" x2="634.043" y2="104.165" gradientUnits="userSpaceOnUse">
<stop stop-color="#3C4784" stop-opacity="0"/>
<stop offset="1" stop-color="#3C4784"/>
</linearGradient>
<linearGradient id="paint81_linear_6_15" x1="806.926" y1="547.425" x2="902.972" y2="550.749" gradientUnits="userSpaceOnUse">
<stop stop-color="#3C4784" stop-opacity="0"/>
<stop offset="1" stop-color="#3C4784"/>
</linearGradient>
<linearGradient id="paint82_linear_6_15" x1="727.07" y1="322.375" x2="902.974" y2="387.884" gradientUnits="userSpaceOnUse">
<stop stop-color="#98D2E9" stop-opacity="0"/>
<stop offset="1" stop-color="#98D2E9"/>
</linearGradient>
<linearGradient id="paint83_linear_6_15" x1="701.563" y1="349.467" x2="631.634" y2="1002.86" gradientUnits="userSpaceOnUse">
<stop stop-color="#3C4784" stop-opacity="0"/>
<stop offset="1" stop-color="#3C4784"/>
</linearGradient>
<linearGradient id="paint84_linear_6_15" x1="666.424" y1="404.933" x2="827.39" y2="404.933" gradientUnits="userSpaceOnUse">
<stop stop-color="#F4EAEE" stop-opacity="0"/>
<stop offset="1" stop-color="#F4EAEE"/>
</linearGradient>
<linearGradient id="paint85_linear_6_15" x1="617.612" y1="735.089" x2="617.612" y2="638.546" gradientUnits="userSpaceOnUse">
<stop stop-color="#EC141F" stop-opacity="0"/>
<stop offset="1" stop-color="#EC141F"/>
</linearGradient>
<linearGradient id="paint86_linear_6_15" x1="839.622" y1="719.752" x2="787.668" y2="609.318" gradientUnits="userSpaceOnUse">
<stop stop-color="#EC141F" stop-opacity="0"/>
<stop offset="1" stop-color="#EC141F"/>
</linearGradient>
<linearGradient id="paint87_linear_6_15" x1="608.276" y1="481.711" x2="980.585" y2="801.498" gradientUnits="userSpaceOnUse">
<stop stop-color="#3C4784" stop-opacity="0"/>
<stop offset="1" stop-color="#3C4784"/>
</linearGradient>
<linearGradient id="paint88_linear_6_15" x1="675.857" y1="403.952" x2="1011.87" y2="692.562" gradientUnits="userSpaceOnUse">
<stop stop-color="#3C4784" stop-opacity="0"/>
<stop offset="1" stop-color="#3C4784"/>
</linearGradient>
<linearGradient id="paint89_linear_6_15" x1="712.028" y1="259.207" x2="827.241" y2="397.447" gradientUnits="userSpaceOnUse">
<stop stop-color="#3C4784" stop-opacity="0"/>
<stop offset="1" stop-color="#3C4784"/>
</linearGradient>
<linearGradient id="paint90_linear_6_15" x1="723.721" y1="241.767" x2="723.721" y2="343.587" gradientUnits="userSpaceOnUse">
<stop stop-color="#98D2E9" stop-opacity="0"/>
<stop offset="1" stop-color="#98D2E9"/>
</linearGradient>
<linearGradient id="paint91_linear_6_15" x1="629.101" y1="236.881" x2="757.87" y2="391.387" gradientUnits="userSpaceOnUse">
<stop stop-color="#3C4784" stop-opacity="0"/>
<stop offset="1" stop-color="#3C4784"/>
</linearGradient>
<linearGradient id="paint92_linear_6_15" x1="647.076" y1="224.477" x2="647.076" y2="326.297" gradientUnits="userSpaceOnUse">
<stop stop-color="#98D2E9" stop-opacity="0"/>
<stop offset="1" stop-color="#98D2E9"/>
</linearGradient>
<linearGradient id="paint93_linear_6_15" x1="697.415" y1="382.924" x2="822.724" y2="533.277" gradientUnits="userSpaceOnUse">
<stop stop-color="#3C4784" stop-opacity="0"/>
<stop offset="1" stop-color="#3C4784"/>
</linearGradient>
<linearGradient id="paint94_linear_6_15" x1="715.298" y1="372.405" x2="715.298" y2="474.224" gradientUnits="userSpaceOnUse">
<stop stop-color="#98D2E9" stop-opacity="0"/>
<stop offset="1" stop-color="#98D2E9"/>
</linearGradient>
<linearGradient id="paint95_linear_6_15" x1="620.206" y1="368.775" x2="744.293" y2="517.662" gradientUnits="userSpaceOnUse">
<stop stop-color="#3C4784" stop-opacity="0"/>
<stop offset="1" stop-color="#3C4784"/>
</linearGradient>
<linearGradient id="paint96_linear_6_15" x1="638.654" y1="355.115" x2="638.654" y2="456.934" gradientUnits="userSpaceOnUse">
<stop stop-color="#98D2E9" stop-opacity="0"/>
<stop offset="1" stop-color="#98D2E9"/>
</linearGradient>
<linearGradient id="paint97_linear_6_15" x1="704.167" y1="521.203" x2="805.816" y2="643.167" gradientUnits="userSpaceOnUse">
<stop stop-color="#3C4784" stop-opacity="0"/>
<stop offset="1" stop-color="#3C4784"/>
</linearGradient>
<linearGradient id="paint98_linear_6_15" x1="713.614" y1="495.359" x2="713.614" y2="597.175" gradientUnits="userSpaceOnUse">
<stop stop-color="#98D2E9" stop-opacity="0"/>
<stop offset="1" stop-color="#98D2E9"/>
</linearGradient>
<linearGradient id="paint99_linear_6_15" x1="620.629" y1="490.272" x2="747.86" y2="642.932" gradientUnits="userSpaceOnUse">
<stop stop-color="#3C4784" stop-opacity="0"/>
<stop offset="1" stop-color="#3C4784"/>
</linearGradient>
<linearGradient id="paint100_linear_6_15" x1="636.969" y1="478.069" x2="636.969" y2="579.885" gradientUnits="userSpaceOnUse">
<stop stop-color="#98D2E9" stop-opacity="0"/>
<stop offset="1" stop-color="#98D2E9"/>
</linearGradient>
<linearGradient id="paint101_linear_6_15" x1="833.239" y1="185.522" x2="1183.39" y2="605.657" gradientUnits="userSpaceOnUse">
<stop stop-color="#98D2E9" stop-opacity="0"/>
<stop offset="1" stop-color="#98D2E9"/>
</linearGradient>
<linearGradient id="paint102_linear_6_15" x1="871.638" y1="443.485" x2="869.67" y2="458.276" gradientUnits="userSpaceOnUse">
<stop stop-color="#3C4784" stop-opacity="0"/>
<stop offset="1" stop-color="#3C4784"/>
</linearGradient>
<linearGradient id="paint103_linear_6_15" x1="850.581" y1="492.474" x2="848.612" y2="507.265" gradientUnits="userSpaceOnUse">
<stop stop-color="#3C4784" stop-opacity="0"/>
<stop offset="1" stop-color="#3C4784"/>
</linearGradient>
<linearGradient id="paint104_linear_6_15" x1="868.267" y1="570.28" x2="866.299" y2="585.07" gradientUnits="userSpaceOnUse">
<stop stop-color="#3C4784" stop-opacity="0"/>
<stop offset="1" stop-color="#3C4784"/>
</linearGradient>
<linearGradient id="paint105_linear_6_15" x1="826.156" y1="584.689" x2="824.188" y2="599.479" gradientUnits="userSpaceOnUse">
<stop stop-color="#3C4784" stop-opacity="0"/>
<stop offset="1" stop-color="#3C4784"/>
</linearGradient>
<linearGradient id="paint106_linear_6_15" x1="849.276" y1="444.981" x2="836.17" y2="444.732" gradientUnits="userSpaceOnUse">
<stop stop-color="#3C4784" stop-opacity="0"/>
<stop offset="1" stop-color="#3C4784"/>
</linearGradient>
<linearGradient id="paint107_linear_6_15" x1="843.378" y1="548.717" x2="830.27" y2="548.468" gradientUnits="userSpaceOnUse">
<stop stop-color="#3C4784" stop-opacity="0"/>
<stop offset="1" stop-color="#3C4784"/>
</linearGradient>
<linearGradient id="paint108_linear_6_15" x1="875.384" y1="498.771" x2="862.276" y2="498.521" gradientUnits="userSpaceOnUse">
<stop stop-color="#3C4784" stop-opacity="0"/>
<stop offset="1" stop-color="#3C4784"/>
</linearGradient>
<linearGradient id="paint109_linear_6_15" x1="861.063" y1="614.033" x2="847.956" y2="613.784" gradientUnits="userSpaceOnUse">
<stop stop-color="#3C4784" stop-opacity="0"/>
<stop offset="1" stop-color="#3C4784"/>
</linearGradient>
<linearGradient id="paint110_linear_6_15" x1="674.201" y1="570.61" x2="700.761" y2="607.461" gradientUnits="userSpaceOnUse">
<stop stop-color="#3C4784" stop-opacity="0"/>
<stop offset="1" stop-color="#3C4784"/>
</linearGradient>
</defs>
</svg>
