<svg width="463" height="823" viewBox="0 0 463 823" fill="none" xmlns="http://www.w3.org/2000/svg">
<path d="M257.897 822.91C364.322 822.91 450.597 805.493 450.597 784.007C450.597 762.522 364.322 745.104 257.897 745.104C151.472 745.104 65.1972 762.522 65.1972 784.007C65.1972 805.493 151.472 822.91 257.897 822.91Z" fill="#E5D3DA"/>
<path d="M358.283 42.3919C352.581 59.7397 320.264 170.311 313.61 200.655C306.956 231.009 294.516 279.22 291.745 299.305C288.983 319.391 238.524 290.631 238.524 290.631C238.524 290.631 258.485 238.597 265.139 219.088C271.793 199.579 322.167 5.54452 322.167 5.54452C332.62 -6.38572 362.081 3.37364 366.84 12.0476C367.573 13.3828 368.011 14.6219 368.205 15.813C369.291 22.3641 363.109 27.7336 358.283 42.3919Z" fill="#1B2043"/>
<path d="M358.283 42.3918C357.525 44.7067 356.287 48.6835 354.703 53.9186C352.084 62.5445 348.505 74.5804 344.538 88.1724C342.213 96.1355 339.745 104.637 337.26 113.301C333.849 125.183 330.396 137.373 327.187 148.88C323.675 161.512 320.458 173.317 317.939 183.038C316.061 190.233 314.57 196.275 313.61 200.655C312.439 206.015 311.083 211.922 309.626 218.147C306.417 231.912 302.737 247.166 299.519 261.161C295.957 276.655 292.941 290.612 291.745 299.305C288.983 319.391 238.524 290.631 238.524 290.631C238.524 290.631 250.888 258.395 259.403 235.149C261.702 228.867 263.724 223.238 265.139 219.088C266.276 215.745 268.71 207.264 271.944 195.516C274.336 186.842 277.166 176.391 280.249 164.903C283.466 152.915 286.953 139.793 290.507 126.384C292.815 117.652 295.148 108.805 297.447 100.083C300.783 87.4039 304.042 74.9742 307.049 63.505C315.674 30.548 322.167 5.5444 322.167 5.5444C330.556 -4.03245 351.183 0.366948 361.458 6.95644C363.994 8.5798 365.897 10.3376 366.84 12.0474C367.573 13.3826 368.011 14.6218 368.205 15.8129C369.291 22.3639 363.109 27.7335 358.283 42.3918Z" fill="url(#paint0_linear_6_16)"/>
<path d="M368.205 15.8128C341.59 35.466 322.168 5.54432 322.168 5.54432C332.62 -6.38592 362.082 3.37344 366.84 12.0474C367.573 13.3826 368.011 14.6217 368.205 15.8128Z" fill="url(#paint1_linear_6_16)"/>
<path d="M354.704 53.9186C352.084 62.5445 348.505 74.5804 344.538 88.1724C330.472 90.9869 312.684 95.0405 297.447 100.083C300.783 87.404 304.042 74.9742 307.049 63.5051C321.426 59.8357 339.071 55.8782 354.704 53.9186Z" fill="url(#paint2_linear_6_16)"/>
<path d="M337.261 113.301C333.849 125.183 330.396 137.373 327.187 148.88C312.355 153.02 294.567 158.592 280.249 164.903C283.466 152.915 286.953 139.793 290.507 126.384C304.169 121.85 321.485 116.596 337.261 113.301Z" fill="url(#paint3_linear_6_16)"/>
<path d="M317.939 183.038C316.061 190.233 314.57 196.275 313.61 200.655C312.439 206.015 311.083 211.922 309.626 218.147C293.144 222.498 273.705 228.406 259.403 235.149C261.703 228.867 263.724 223.238 265.139 219.088C266.276 215.745 268.71 207.264 271.944 195.516C284.772 191.433 301.844 186.429 317.939 183.038Z" fill="url(#paint4_linear_6_16)"/>
<path d="M358.283 42.3917C357.525 44.7067 356.287 48.6835 354.704 53.9186C352.084 62.5444 348.505 74.5804 344.538 88.1724C342.213 96.1355 339.745 104.636 337.261 113.301C333.849 125.183 330.396 137.373 327.187 148.88C323.675 161.512 320.458 173.317 317.939 183.038C316.061 190.233 314.57 196.275 313.61 200.655C312.44 206.015 311.083 211.922 309.626 218.147C306.417 231.912 302.737 247.165 299.519 261.161C294.643 264.456 292.007 265.243 292.79 262.342C297.262 245.782 327.17 91.9186 328.754 87.4327C330.337 82.9469 346.719 43.8902 355.925 32.3634C361.029 25.966 361.795 15.2461 361.458 6.95642C363.994 8.57978 365.897 10.3376 366.84 12.0474C367.573 13.3826 368.011 14.6217 368.205 15.8128C369.291 22.3639 363.109 27.7335 358.283 42.3917Z" fill="url(#paint5_linear_6_16)"/>
<path d="M422.449 131.305C412.223 145.701 350.867 238.908 336.13 265.288C321.391 291.676 296.203 332.913 287.998 350.964C279.801 369.018 239.924 323.515 239.924 323.515C239.924 323.515 273.306 281.368 285.035 265.266C296.763 249.164 398.424 83.3099 398.424 83.3099C411.65 75.7685 436.887 95.6667 438.992 105.613C439.316 107.144 439.387 108.477 439.241 109.678C438.452 116.284 431.097 119.145 422.449 131.305Z" fill="#1B2043"/>
<path d="M422.449 131.305C421.087 133.227 418.809 136.552 415.853 140.946C410.973 148.182 404.236 158.305 396.699 169.765C392.282 176.478 387.581 183.651 382.819 190.971C376.284 201.01 369.624 211.325 363.385 221.081C356.546 231.794 350.216 241.83 345.128 250.141C341.349 256.287 338.257 261.48 336.129 265.289C333.53 269.949 330.603 275.063 327.494 280.44C320.628 292.338 312.901 305.478 305.963 317.59C298.282 331 291.546 343.15 287.998 350.963C279.801 369.017 239.924 323.514 239.924 323.514C239.924 323.514 260.603 297.402 275.135 278.428C279.061 273.3 282.54 268.691 285.035 265.265C287.041 262.505 291.706 255.339 298.035 245.364C302.713 238.001 308.299 229.11 314.414 219.326C320.794 209.117 327.745 197.931 334.839 186.495C339.453 179.047 344.122 171.498 348.725 164.055C355.41 153.233 361.953 142.62 367.99 132.827C385.323 104.682 398.425 83.31 398.425 83.31C409.041 77.2556 427.385 88.8785 435.302 98.8395C437.255 101.296 438.573 103.65 438.993 105.612C439.317 107.144 439.388 108.476 439.242 109.677C438.452 116.284 431.097 119.145 422.449 131.305Z" fill="url(#paint6_linear_6_16)"/>
<path d="M439.241 109.678C408.538 118.707 398.425 83.31 398.425 83.31C411.651 75.7686 436.888 95.6667 438.993 105.613C439.316 107.145 439.387 108.478 439.241 109.678Z" fill="url(#paint7_linear_6_16)"/>
<path d="M415.853 140.946C410.973 148.182 404.236 158.305 396.699 169.765C382.575 167.354 364.577 164.775 348.725 164.055C355.41 153.233 361.953 142.62 367.99 132.827C382.645 134.54 400.481 137.159 415.853 140.946Z" fill="url(#paint8_linear_6_16)"/>
<path d="M382.819 190.972C376.284 201.011 369.624 211.326 363.385 221.082C348.166 219.652 329.747 218.513 314.413 219.327C320.793 209.118 327.744 197.932 334.838 186.496C349.056 187.13 366.94 188.4 382.819 190.972Z" fill="url(#paint9_linear_6_16)"/>
<path d="M345.128 250.142C341.349 256.288 338.257 261.481 336.129 265.289C333.53 269.95 330.603 275.064 327.494 280.441C310.651 278.616 290.572 277.199 275.135 278.429C279.06 273.301 282.54 268.692 285.034 265.266C287.041 262.506 291.705 255.34 298.034 245.365C311.336 246.126 328.919 247.545 345.128 250.142Z" fill="url(#paint10_linear_6_16)"/>
<path d="M422.449 131.305C421.087 133.227 418.809 136.552 415.853 140.946C410.973 148.182 404.236 158.305 396.699 169.765C392.282 176.478 387.581 183.651 382.819 190.971C376.284 201.01 369.624 211.325 363.385 221.081C356.545 231.795 350.216 241.831 345.128 250.141C341.349 256.287 338.257 261.48 336.129 265.289C333.53 269.949 330.603 275.063 327.494 280.441C320.628 292.338 312.901 305.478 305.963 317.59C300.423 318.954 297.703 318.75 299.252 316.28C308.093 302.188 384.709 173.448 387.457 169.764C390.204 166.081 411.064 128.549 422.997 120.94C429.615 116.716 433.318 106.825 435.301 98.8395C437.254 101.296 438.572 103.65 438.992 105.612C439.316 107.144 439.387 108.476 439.241 109.677C438.452 116.284 431.097 119.145 422.449 131.305Z" fill="url(#paint11_linear_6_16)"/>
<path d="M270.875 321.955C264.44 337.632 256.11 351.003 246.475 359.052C245.582 359.802 244.639 360.522 243.653 361.204C232.443 369.061 215.589 373.115 196.614 374.258C192.217 374.527 187.703 374.633 183.121 374.594C153.895 374.364 121.797 368.216 98.2051 359.052C98.2051 359.052 46.8785 308.104 54.4756 262.583C58.8974 236.119 66.8482 222.479 74.7822 211.865C80.5011 204.209 86.2199 198.128 90.5996 189.954C92.461 186.477 94.9625 182.817 97.9609 179.176C104.286 171.511 112.827 163.894 122.327 158.054C125.149 156.315 128.063 154.74 131.019 153.366C139.871 149.255 149.186 146.949 158.081 147.679C184.696 149.85 212.254 173.692 228.417 176.948C244.571 180.195 273.09 186.698 282.59 225.726C288.89 251.574 283.508 291.207 270.875 321.955Z" fill="#98D2E9"/>
<path d="M270.875 321.955C264.44 337.632 256.11 351.003 246.475 359.052C245.582 359.802 244.639 360.522 243.653 361.204C232.443 369.061 215.589 373.115 196.614 374.258C192.217 374.527 187.703 374.633 183.121 374.594C153.895 374.364 121.797 368.216 98.2051 359.052C98.2051 359.052 46.8785 308.104 54.4756 262.583C58.8974 236.119 66.8482 222.479 74.7822 211.865C80.5011 204.209 86.2199 198.128 90.5996 189.954C92.461 186.477 94.9625 182.817 97.9609 179.176C104.286 171.511 112.827 163.894 122.327 158.054C125.149 156.315 128.063 154.74 131.019 153.366C139.871 149.255 149.186 146.949 158.081 147.679C184.696 149.85 212.254 173.692 228.417 176.948C244.571 180.195 273.09 186.698 282.59 225.726C288.89 251.574 283.508 291.207 270.875 321.955Z" fill="url(#paint12_linear_6_16)"/>
<path d="M158.62 357.4C167.345 361.194 181.049 367.505 196.613 374.258C164.162 376.208 125.502 369.657 98.2051 359.052C98.2051 359.052 46.8785 308.104 54.4756 262.583C62.0811 217.052 80.1389 209.463 90.5996 189.954C92.461 186.477 94.9625 182.817 97.9609 179.177C100.176 187.37 101.625 196.793 100.344 205.496C97.1354 227.359 85.1334 242.074 100.824 273.139C116.507 304.204 124.087 342.396 158.62 357.4Z" fill="url(#paint13_linear_6_16)"/>
<path d="M270.874 321.955C250.492 290.612 225.435 258.491 210.906 240.557C183.887 207.187 134.194 240.835 123.245 175.017C122.217 168.85 121.956 163.212 122.327 158.054C133.596 151.128 146.213 146.709 158.08 147.68C184.696 149.85 212.254 173.692 228.417 176.948C244.571 180.195 273.09 186.698 282.59 225.726C288.89 251.575 283.508 291.208 270.874 321.955Z" fill="url(#paint14_linear_6_16)"/>
<path d="M183.121 374.594C153.895 374.364 121.796 368.216 98.2051 359.052C98.2051 359.052 46.8785 308.104 54.4756 262.583C58.8974 236.119 66.8482 222.479 74.7822 211.865C74.7569 227.868 76.9046 243.554 84.5017 249.365C102.189 262.9 115.555 263.678 115.606 249.365C115.665 235.043 144.183 263.591 137.926 296.971C134.464 315.443 157.381 349.312 183.121 374.594Z" fill="url(#paint15_linear_6_16)"/>
<path d="M270.874 321.955C264.44 337.632 256.11 351.003 246.475 359.052C245.582 359.802 244.638 360.522 243.653 361.204C237.319 339.678 226.656 316.048 222.521 303.493C214.208 278.269 194.567 281.515 196.613 255.849C198.66 230.183 182.203 261.977 173.78 251.872C165.358 241.767 182.851 217.013 169.468 196.726C156.093 176.448 165.332 227.416 149.759 223.065C134.194 218.713 150.635 196.928 141.101 175.017C137.808 167.458 134.346 160.023 131.019 153.366C139.871 149.255 149.186 146.949 158.081 147.679C184.696 149.85 212.254 173.692 228.417 176.948C244.571 180.195 273.09 186.698 282.59 225.726C288.89 251.574 283.508 291.207 270.874 321.955Z" fill="url(#paint16_linear_6_16)"/>
<path d="M166.986 144.857C166.986 144.857 176.034 155.714 175.113 171.825C174.193 187.937 172.96 185.657 168.219 182.137C163.478 178.617 166.723 160.3 164.156 153.84C161.591 147.38 164.35 140.885 166.986 144.857Z" fill="url(#paint17_linear_6_16)"/>
<path d="M151.662 233.523C151.402 240.427 150.484 249.116 155.712 251.628C160.941 254.14 158.723 243.605 157.833 235.996C156.943 228.387 151.858 228.319 151.662 233.523Z" fill="url(#paint18_linear_6_16)"/>
<path d="M216.004 656.732C216.004 656.732 185.373 749.143 159.209 790.335C159.209 790.335 203.38 802.197 210.984 795.694C210.984 795.694 202.754 781.445 189.448 774.942C189.448 774.942 211.417 711.485 219.971 656.732H216.004Z" fill="#1B2043"/>
<path d="M291.045 633.236C291.045 633.236 307.143 712.371 309.969 764.498C309.969 764.498 354.695 773.193 361.933 766.166C361.933 766.166 349.119 745.834 326.369 746.353C326.369 746.353 307.234 683.295 297.789 632.05L291.045 633.236Z" fill="#1B2043"/>
<path d="M216.004 656.732C216.004 656.732 185.373 749.143 159.209 790.335C159.209 790.335 203.38 802.197 210.984 795.694C210.984 795.694 202.754 781.445 189.448 774.942C189.448 774.942 211.417 711.485 219.971 656.732H216.004Z" fill="url(#paint19_linear_6_16)"/>
<path d="M291.045 633.236C291.045 633.236 307.143 712.371 309.969 764.498C309.969 764.498 354.695 773.193 361.933 766.166C361.933 766.166 349.119 745.834 326.369 746.353C326.369 746.353 307.234 683.295 297.789 632.05L291.045 633.236Z" fill="url(#paint20_linear_6_16)"/>
<path d="M360.155 573.616C360.155 573.616 435.05 517.611 439.343 512.332C443.635 507.055 451.772 476.098 456.654 474.099C461.54 472.099 462.086 503.584 456.689 519.374C456.689 519.374 463.647 524.41 462.686 531.555C461.726 538.7 450.342 527.799 450.342 527.799L361.337 580.174L360.155 573.616Z" fill="#1B2043"/>
<path d="M360.155 573.616C360.155 573.616 435.05 517.611 439.343 512.332C443.635 507.055 451.772 476.098 456.654 474.099C461.54 472.099 462.086 503.584 456.689 519.374C456.689 519.374 463.647 524.41 462.686 531.555C461.726 538.7 450.342 527.799 450.342 527.799L361.337 580.174L360.155 573.616Z" fill="url(#paint21_linear_6_16)"/>
<path d="M196.327 433.823C193.943 437.512 191.08 441.017 187.728 444.263C179.617 452.102 168.6 458.404 154.282 462.034C153.743 462.169 153.195 462.303 152.639 462.438C145.042 464.206 136.477 465.128 127.498 465.368C85.6639 466.502 35.1121 452.89 33.5708 441.44C33.1665 438.434 31.8021 435.514 29.8397 432.44C22.6553 421.163 7.43585 407.782 2.20549 379.657C1.8349 377.659 1.50642 375.689 1.22006 373.74C-1.56778 354.336 0.234639 337.103 8.5729 320.37C13.6011 310.284 21.0045 300.381 31.2125 290.295C32.8718 288.643 34.6068 287 36.4176 285.348C69.6864 254.994 121.013 275.589 140.023 299.44C159.032 323.281 172.34 333.04 185.647 343.885C185.647 343.885 198.955 360.138 204.657 388.321C207.655 403.162 205.39 419.808 196.327 433.823Z" fill="#EC141F"/>
<path d="M196.327 433.823C193.943 437.512 191.08 441.017 187.728 444.263C179.617 452.102 168.6 458.404 154.282 462.034C153.743 462.169 153.195 462.303 152.639 462.438C145.042 464.206 136.477 465.128 127.498 465.368C85.6639 466.502 35.1121 452.89 33.5708 441.44C33.1665 438.434 31.8021 435.514 29.8397 432.44C22.6553 421.163 7.43585 407.782 2.20549 379.657C1.8349 377.659 1.50642 375.689 1.22006 373.74C-1.56778 354.336 0.234639 337.103 8.5729 320.37C13.6011 310.284 21.0045 300.381 31.2125 290.295C32.8718 288.643 34.6068 287 36.4176 285.348C69.6864 254.994 121.013 275.589 140.023 299.44C159.032 323.281 172.34 333.04 185.647 343.885C185.647 343.885 198.955 360.138 204.657 388.321C207.655 403.162 205.39 419.808 196.327 433.823Z" fill="url(#paint22_linear_6_16)"/>
<path d="M102.955 433.535C118.217 448.299 136.098 457.434 152.64 462.439C109.592 472.438 35.4407 455.349 33.5709 441.441C31.6674 427.35 8.85929 415.429 2.20552 379.658C1.83493 377.66 1.50646 375.69 1.22009 373.74C6.88001 377.295 13.3485 380.935 20.4908 384.893C51.654 402.182 62.6032 394.497 102.955 433.535Z" fill="url(#paint23_linear_6_16)"/>
<path d="M87.2474 447.405C98.6767 456.521 113.029 462.179 127.498 465.368C85.664 466.501 35.1122 452.89 33.5709 441.44C33.1666 438.434 31.8022 435.514 29.8398 432.44C37.7822 434.361 40.0646 425.898 36.5188 419.587C30.6483 409.136 55.8652 422.354 87.2474 447.405Z" fill="url(#paint24_linear_6_16)"/>
<path d="M196.327 433.823C179.575 401.26 145.767 349.293 131.668 330.351C111.908 303.81 103.031 297.48 66.3849 300.362C45.6066 301.995 35.8028 295.885 31.2126 290.295C32.8718 288.643 34.6069 287 36.4177 285.348C69.6865 254.994 121.013 275.589 140.023 299.44C159.032 323.281 172.34 333.04 185.647 343.885C185.647 343.885 198.955 360.138 204.657 388.321C207.655 403.162 205.39 419.808 196.327 433.823Z" fill="url(#paint25_linear_6_16)"/>
<path d="M196.327 433.823C193.943 437.512 191.08 441.017 187.728 444.263C179.76 434.198 166.469 422.584 155.267 413.708C133.344 396.342 133.352 371.444 132.51 352.146C131.668 332.848 127.835 325.288 115.606 325.336C103.385 325.385 113.98 345.508 102.955 351.983C91.9218 358.466 94.6086 323.415 90.3973 337.516C86.1861 351.608 107.242 378.168 96.251 378.888C85.2596 379.609 76.0791 314.77 64.9362 324.376C53.7932 333.982 75.2369 353.193 64.9362 351.983C54.6355 350.782 52.4961 326.297 31.2125 330.351C20.8192 332.329 13.4242 326.672 8.57288 320.37C13.6011 310.284 21.0045 300.381 31.2125 290.295C32.8717 288.643 34.6068 287 36.4176 285.348C69.6864 254.994 121.013 275.589 140.023 299.44C159.032 323.281 172.34 333.04 185.647 343.885C185.647 343.885 198.955 360.138 204.657 388.321C207.655 403.162 205.39 419.808 196.327 433.823Z" fill="url(#paint26_linear_6_16)"/>
<path d="M36.5161 344.068C36.5161 344.068 38.599 358.856 50.3905 367.792C62.182 376.727 61.3398 374.226 61.7609 367.792C62.182 361.358 47.4426 353.193 44.4947 346.949C41.5469 340.706 35.3454 339.269 36.5161 344.068Z" fill="url(#paint27_linear_6_16)"/>
<path d="M36.5171 308.527C39.8389 314.307 43.5389 321.974 49.0708 320.534C54.6027 319.093 47.4099 312.014 42.7944 306.428C38.1788 300.841 34.0139 304.171 36.5171 308.527Z" fill="url(#paint28_linear_6_16)"/>
<path d="M364.322 567.178C362.418 598.618 364.305 654.984 364.305 654.984C364.305 654.984 351.756 663.726 332.637 668.961C329.419 669.845 326.025 670.622 322.462 671.247C297.751 675.579 248.277 674.504 210.258 671.247C196.883 670.104 178.084 669.768 159.335 669.816C124.786 669.883 90.3973 671.247 90.3973 671.247C90.3973 671.247 90.3973 660.412 90.3973 643.063C90.3973 625.715 85.7481 592.116 81.9412 571.521C78.1426 550.927 64.9362 471.814 64.9362 471.814C64.9362 471.814 102.197 469.297 150.753 466.896C189.985 464.965 236.595 463.111 276.88 462.727C329.428 462.227 371.228 464.226 371.927 471.814C373.831 492.427 366.225 535.749 364.322 567.178Z" fill="#98D2E9"/>
<path d="M364.322 567.178C362.418 598.618 364.305 654.984 364.305 654.984C364.305 654.984 351.756 663.726 332.637 668.961C329.419 669.845 326.025 670.622 322.462 671.247C297.751 675.579 248.277 674.504 210.258 671.247C196.883 670.104 178.084 669.768 159.335 669.816C124.786 669.883 90.3973 671.247 90.3973 671.247C90.3973 671.247 90.3973 660.412 90.3973 643.063C90.3973 625.715 85.7481 592.116 81.9412 571.521C78.1426 550.927 64.9362 471.814 64.9362 471.814C64.9362 471.814 102.197 469.297 150.753 466.896C189.985 464.965 236.595 463.111 276.88 462.727C329.428 462.227 371.228 464.226 371.927 471.814C373.831 492.427 366.225 535.749 364.322 567.178Z" fill="url(#paint29_linear_6_16)"/>
<path d="M159.209 616.936C164.246 632.843 162.182 651.872 159.335 669.815C124.786 669.882 90.3973 671.246 90.3973 671.246C90.3973 671.246 90.3973 660.411 90.3973 643.062C90.3973 625.714 85.7481 592.115 81.9412 571.52C78.1426 550.926 64.9362 471.813 64.9362 471.813C64.9362 471.813 102.197 469.297 150.753 466.895C153.406 471.544 152.741 478.23 147.342 487.567C114.604 544.144 147.342 579.483 159.209 616.936Z" fill="url(#paint30_linear_6_16)"/>
<path d="M69.0684 496.543L71.7686 512.525C71.7686 512.525 138.973 501.272 162.272 501.687C185.572 502.102 223.473 505.343 246.213 496.554C268.954 487.765 348.127 480.948 348.127 480.948H81.975L69.0684 496.543Z" fill="url(#paint31_linear_6_16)"/>
<path d="M364.322 567.179C362.419 598.618 364.305 654.984 364.305 654.984C364.305 654.984 351.756 663.726 332.637 668.961C329.68 645.657 325.107 614.669 326.488 591.135C328.771 552.367 320.416 523.29 291.552 489.997C284.393 481.746 279.777 472.285 276.88 462.726C329.428 462.226 371.229 464.225 371.928 471.813C373.831 492.427 366.226 535.749 364.322 567.179Z" fill="url(#paint32_linear_6_16)"/>
<path d="M409.003 367.794C408.052 401.337 392.849 417.589 382.397 432.766C371.936 447.943 350.602 465.579 285.235 465.435C264.288 465.387 247.519 467.587 233.546 469.413C215.724 471.747 202.467 473.475 190.937 469.192C183.298 466.358 176.416 460.884 169.468 451.201C143.821 415.43 130.514 406.755 151.427 356.893C158.409 340.237 172.34 339.545 191.349 318.951C195.182 314.801 200.159 309.239 205.895 302.938C228.602 278.011 263.092 241.596 284.41 235.996C311.109 228.984 348.176 228.936 377.638 270.154C381.428 275.456 384.78 280.461 387.745 285.216C407.782 317.431 409.829 338.563 409.003 367.794Z" fill="#FBABB1"/>
<path d="M409.003 367.794C408.052 401.337 392.849 417.589 382.397 432.766C371.936 447.943 350.602 465.579 285.235 465.435C264.288 465.387 247.519 467.587 233.546 469.413C215.724 471.747 202.467 473.475 190.937 469.192C183.298 466.358 176.416 460.884 169.468 451.201C143.821 415.43 130.514 406.755 151.427 356.893C158.409 340.237 172.34 339.545 191.349 318.951C195.182 314.801 200.159 309.239 205.895 302.938C228.602 278.011 263.092 241.596 284.41 235.996C311.109 228.984 348.176 228.936 377.638 270.154C381.428 275.456 384.78 280.461 387.745 285.216C407.782 317.431 409.829 338.563 409.003 367.794Z" fill="url(#paint33_linear_6_16)"/>
<path d="M203.697 384.892C186.228 422.334 170.234 456.329 190.937 469.191C183.297 466.357 176.416 460.883 169.468 451.2C143.821 415.429 130.514 406.754 151.427 356.892C158.409 340.236 172.34 339.544 191.349 318.95C195.182 314.8 200.159 309.238 205.895 302.937C198.989 335.413 219.75 350.494 203.697 384.892Z" fill="url(#paint34_linear_6_16)"/>
<path d="M409.003 367.793C408.052 401.336 392.849 417.589 382.397 432.766C371.936 447.943 350.602 465.579 285.235 465.435C277.427 465.416 270.209 465.714 263.488 466.184C252.177 466.972 242.314 468.269 233.546 469.412C245.413 460.151 244.478 440.056 247.898 420.798C252.951 392.355 281.588 386.813 303.427 377.927C325.267 369.042 332.03 368.821 368.331 320.226C376.888 308.776 383.155 296.808 387.745 285.214C395.393 297.499 400.421 308.181 403.663 318.315C408.927 334.731 409.517 349.716 409.003 367.793Z" fill="url(#paint35_linear_6_16)"/>
<path d="M409.003 367.794C408.052 401.336 392.849 417.589 382.397 432.766C371.936 447.943 350.602 465.579 285.235 465.435C277.427 465.416 270.209 465.714 263.488 466.184C266.646 451.393 274.218 437.868 279.962 433.824C290.962 426.081 311.067 418.512 310.553 403.777C310.039 389.041 338.019 371.444 338.019 378.888C338.019 386.332 332.965 402.182 344.436 396.447C352.834 392.25 354.527 375.411 354.83 366.708C355.209 369.849 356.481 373.451 360.153 374.604C367.135 376.804 375.077 351.272 391.99 337.516C397.069 333.386 400.859 326.259 403.663 318.315C408.927 334.731 409.517 349.716 409.003 367.794Z" fill="url(#paint36_linear_6_16)"/>
<path d="M360.288 384.313C358.124 390.768 354.839 398.679 359.101 402.949C363.363 407.22 364.186 396.426 365.454 388.889C366.724 381.351 361.92 379.449 360.288 384.313Z" fill="url(#paint37_linear_6_16)"/>
<path d="M386.398 352.615C384.234 359.07 380.949 366.98 385.211 371.251C389.472 375.521 390.295 364.727 391.564 357.19C392.834 349.652 388.03 347.75 386.398 352.615Z" fill="url(#paint38_linear_6_16)"/>
<path d="M173.937 334.358C173.937 334.358 186.695 336.542 199.609 328.218C212.523 319.894 225.695 315.053 229.496 321.955C233.298 328.858 238.914 340.375 243.406 334.617C247.898 328.858 233.639 315.437 238.523 302.936C243.407 290.435 242.283 312.235 247.898 302.936C253.513 293.637 246.407 285.871 251.364 275.025C256.32 264.179 264.027 254.394 260.174 249.361C256.32 244.329 232.204 266.885 222.52 276.888C212.836 286.892 176.34 320.005 173.937 334.358Z" fill="white"/>
<path d="M173.937 334.358C173.937 334.358 188.66 330.28 201.574 321.955C214.488 313.63 227.671 307.386 231.474 314.29C235.277 321.194 238.914 340.375 243.406 334.616C247.898 328.858 229.32 301.336 234.204 288.835C239.087 276.334 242.283 312.235 247.898 302.936C253.513 293.637 246.407 285.871 251.364 275.025C256.32 264.179 264.027 254.394 260.174 249.361C256.32 244.329 236.104 275.21 226.421 285.214C216.737 295.217 176.34 320.005 173.937 334.358Z" fill="url(#paint39_linear_6_16)"/>
<path d="M38.8264 447.728C38.8264 447.728 33.6289 450.15 38.8264 471.811C44.0239 493.472 54.4788 501.059 83.944 496.724C113.409 492.389 175.788 490.22 205.904 486.968C236.02 483.717 293.998 480.464 307.305 481.548C320.612 482.631 350.213 479.38 358.224 481.548C366.235 483.717 393.798 483.754 391.897 471.811C389.995 459.867 392.084 449.028 391.991 440.356C391.897 431.685 389.458 422.888 388.39 424.371C387.322 425.854 307.832 419.98 285.232 424.206C262.632 428.431 193.249 429.515 187.546 430.599C181.843 431.684 62.1432 431.252 38.8264 447.728Z" fill="#6EBACC"/>
<path d="M358.224 481.544C356.405 481.054 353.482 480.843 349.886 480.795C337.631 480.631 317.594 482.38 307.302 481.544C293.994 480.468 236.022 483.715 205.903 486.97C195.123 488.133 180.215 489.16 164.17 490.198C135.357 492.052 102.863 493.934 83.9457 496.72C54.4755 501.063 44.0232 493.473 38.8265 471.812C33.6298 450.152 38.8265 447.731 38.8265 447.731C50.2221 439.672 84.6364 435.657 117.518 433.534C151.915 431.306 182.657 438.558 185.571 438C191.273 436.925 262.758 437.76 285.363 433.534C299.058 430.969 333.529 422.795 358.898 423.765C375.389 424.399 387.972 424.956 388.393 424.37C389.455 422.891 391.897 431.68 391.99 440.355C392.082 449.028 389.994 459.864 391.897 471.813C393.801 483.753 366.234 483.715 358.224 481.544Z" fill="url(#paint40_linear_6_16)"/>
<path d="M95.3498 685.338C95.3498 685.338 118.161 690.216 139.072 689.133C159.982 688.049 199.144 686.58 214.256 687.314C229.368 688.048 252.178 686.037 269.287 687.314C286.395 688.59 336.295 685.88 349.126 681.544C361.957 677.208 367.185 675.04 369.087 669.619C370.988 664.2 371.463 656.07 364.334 654.986C357.205 653.902 315.859 668.537 291.622 669.079C267.386 669.619 187.546 666.91 161.407 666.91C135.269 666.91 87.746 663.417 87.2701 674.107C86.7959 684.797 95.3498 685.338 95.3498 685.338Z" fill="#98D2E9"/>
<path d="M95.3498 685.338C95.3498 685.338 118.161 690.216 139.072 689.133C159.982 688.049 199.144 686.58 214.256 687.314C229.368 688.048 258.022 677.73 275.13 679.008C292.239 680.285 336.295 685.88 349.126 681.545C361.957 677.21 367.185 675.041 369.087 669.62C370.988 664.201 371.463 656.071 364.334 654.987C357.205 653.903 315.859 668.537 291.622 669.08C267.386 669.62 187.546 666.911 161.407 666.911C135.269 666.911 87.746 663.418 87.2701 674.108C86.7959 684.797 95.3498 685.338 95.3498 685.338Z" fill="url(#paint41_linear_6_16)"/>
<path d="M365.418 191.964C365.418 191.964 369.674 216.95 361.417 235.897C361.417 235.897 388.078 232.591 394.764 240.158C394.764 240.158 382.351 246.777 371.831 243.78C361.31 240.783 343.291 234.666 343.291 234.666C343.291 234.666 316.871 218.567 316.173 208.532C315.477 198.498 345.854 229.59 345.854 229.59C345.854 229.59 356.305 192.011 365.418 191.964Z" fill="#6EBACC"/>
<path d="M365.418 191.964C365.418 191.964 361.281 201.373 360.613 213.022C360.191 220.356 364.607 228.578 361.417 235.897C361.417 235.897 388.078 232.591 394.764 240.158C394.764 240.158 388.329 237.787 382.404 239.037C378.542 239.852 375.982 244.964 371.831 243.781C361.312 240.785 343.292 234.667 343.292 234.667C343.292 234.667 316.871 218.568 316.174 208.533C315.867 204.119 321.844 212.906 328.334 218.262C336.595 225.08 345.855 229.591 345.855 229.591C345.855 229.591 356.305 192.011 365.418 191.964Z" fill="url(#paint42_linear_6_16)"/>
<path d="M351.655 234.043C365.388 238.352 386.387 257.456 390.75 273.267C395.113 289.079 391.117 314.723 364.699 337.148C338.281 359.572 312.082 381.074 304.304 373.302C296.527 365.529 283.947 317.117 286.952 287.438C289.956 257.761 306.359 219.833 351.655 234.043Z" fill="#EC141F"/>
<path d="M365.771 336.22C365.417 336.537 365.063 336.844 364.701 337.151C342.457 356.027 320.357 374.258 309.289 374.902C307.218 375.027 305.533 374.527 304.303 373.298C296.529 365.527 283.946 317.114 286.953 287.442C288.772 269.508 295.477 248.568 310.494 237.944C320.323 230.961 333.723 228.425 351.655 234.044C355.411 235.226 359.715 237.512 364.078 240.538C375.642 248.568 387.585 261.785 390.752 273.264C395.056 288.854 391.223 314.021 365.771 336.22Z" fill="url(#paint43_linear_6_16)"/>
<path d="M311.067 239.039C325.385 268 315.278 284.993 311.909 318.305C309.635 340.773 309.281 362.895 309.289 374.902C307.218 375.027 305.533 374.527 304.303 373.298C296.529 365.527 283.946 317.114 286.953 287.442C288.772 269.508 295.477 248.568 310.494 237.944C310.696 238.299 310.881 238.665 311.067 239.039Z" fill="url(#paint44_linear_6_16)"/>
<path d="M365.771 336.22C372.517 315.385 370.487 295.521 367.177 280.123C364.44 267.385 363.859 252.823 364.078 240.538C375.642 248.568 387.585 261.785 390.752 273.264C395.056 288.854 391.223 314.021 365.771 336.22Z" fill="url(#paint45_linear_6_16)"/>
<path d="M322.146 261.107C319.145 260.449 315.524 271.879 319.106 272.735C322.689 273.592 325.146 261.766 322.146 261.107Z" fill="url(#paint46_linear_6_16)"/>
<path d="M357.52 261.107C354.52 260.449 350.898 271.879 354.48 272.735C358.063 273.592 360.52 261.766 357.52 261.107Z" fill="url(#paint47_linear_6_16)"/>
<path d="M305.301 291.845C302.301 291.187 298.679 302.617 302.261 303.473C305.844 304.33 308.301 292.504 305.301 291.845Z" fill="url(#paint48_linear_6_16)"/>
<path d="M338.991 292.806C335.99 292.148 332.369 303.578 335.951 304.434C339.534 305.29 341.991 293.465 338.991 292.806Z" fill="url(#paint49_linear_6_16)"/>
<path d="M319.619 332.189C316.619 331.531 312.997 342.961 316.579 343.817C320.162 344.674 322.619 332.848 319.619 332.189Z" fill="url(#paint50_linear_6_16)"/>
<path d="M352.467 315.86C349.467 315.202 345.845 326.631 349.427 327.487C353.01 328.344 355.467 316.519 352.467 315.86Z" fill="url(#paint51_linear_6_16)"/>
<path d="M374.365 284.161C371.365 283.503 367.743 294.933 371.325 295.788C374.908 296.645 377.365 284.82 374.365 284.161Z" fill="url(#paint52_linear_6_16)"/>
<path d="M321.303 259.186C324.303 259.845 321.847 271.671 318.264 270.814C314.681 269.958 318.304 258.528 321.303 259.186Z" fill="white"/>
<path d="M321.303 259.186C324.303 259.845 321.847 271.671 318.264 270.814C314.681 269.958 318.304 258.528 321.303 259.186Z" fill="url(#paint53_linear_6_16)"/>
<path d="M356.678 259.186C359.678 259.845 357.221 271.671 353.638 270.814C350.056 269.958 353.679 258.528 356.678 259.186Z" fill="white"/>
<path d="M356.678 259.186C359.678 259.845 357.221 271.671 353.638 270.814C350.056 269.958 353.679 258.528 356.678 259.186Z" fill="url(#paint54_linear_6_16)"/>
<path d="M304.458 289.924C307.459 290.583 305.002 302.409 301.419 301.552C297.836 300.696 301.459 289.266 304.458 289.924Z" fill="white"/>
<path d="M304.458 289.924C307.459 290.583 305.002 302.409 301.419 301.552C297.836 300.696 301.459 289.266 304.458 289.924Z" fill="url(#paint55_linear_6_16)"/>
<path d="M338.148 290.885C341.148 291.544 338.691 303.369 335.109 302.512C331.527 301.657 335.149 290.227 338.148 290.885Z" fill="white"/>
<path d="M338.148 290.885C341.148 291.544 338.691 303.369 335.109 302.512C331.527 301.657 335.149 290.227 338.148 290.885Z" fill="url(#paint56_linear_6_16)"/>
<path d="M318.777 330.268C321.777 330.927 319.32 342.753 315.737 341.896C312.155 341.04 315.777 329.61 318.777 330.268Z" fill="white"/>
<path d="M318.777 330.268C321.777 330.927 319.32 342.753 315.737 341.896C312.155 341.04 315.777 329.61 318.777 330.268Z" fill="url(#paint57_linear_6_16)"/>
<path d="M351.624 313.938C354.624 314.597 352.167 326.423 348.584 325.566C345.002 324.71 348.625 313.28 351.624 313.938Z" fill="white"/>
<path d="M351.624 313.938C354.624 314.597 352.167 326.423 348.584 325.566C345.002 324.71 348.625 313.28 351.624 313.938Z" fill="url(#paint58_linear_6_16)"/>
<path d="M373.523 282.24C376.523 282.899 374.066 294.724 370.483 293.867C366.901 293.011 370.524 281.582 373.523 282.24Z" fill="white"/>
<path d="M373.523 282.24C376.523 282.899 374.066 294.724 370.483 293.867C366.901 293.011 370.524 281.582 373.523 282.24Z" fill="url(#paint59_linear_6_16)"/>
<path d="M167.042 579.107V592.116C167.042 592.116 124.448 617.708 132.748 640.894C136.948 652.623 179.099 676.666 179.099 676.666C179.099 676.666 196.682 682.387 194.781 687.114C192.88 691.842 185.829 694.011 185.829 694.011C185.829 694.011 193.001 709.292 183.412 713.571C173.823 717.848 162.013 687.506 162.013 687.506C162.013 687.506 112.014 659.542 115.816 635.583C119.618 611.628 167.042 579.107 167.042 579.107Z" fill="#1B2043"/>
<path d="M167.042 579.107V592.116C167.042 592.116 124.448 617.708 132.748 640.894C136.948 652.623 179.099 676.666 179.099 676.666C179.099 676.666 196.682 682.387 194.781 687.114C192.88 691.842 185.829 694.011 185.829 694.011C185.829 694.011 193.001 709.292 183.412 713.571C173.823 717.848 162.013 687.506 162.013 687.506C162.013 687.506 112.014 659.542 115.816 635.583C119.618 611.628 167.042 579.107 167.042 579.107Z" fill="url(#paint60_linear_6_16)"/>
<path d="M305.446 316.657C305.446 316.657 233.154 304.54 255.733 211.893L264.846 205.494C264.846 205.495 322.344 224.517 305.446 316.657Z" fill="#6EBACC"/>
<path d="M305.449 316.653C305.449 316.653 233.15 304.54 255.731 211.893L261.214 208.042L264.844 205.496C264.844 205.496 289.333 215.208 299.928 254.375C304.159 270.016 310.271 290.356 305.449 316.653Z" fill="url(#paint61_linear_6_16)"/>
<path d="M243.878 214.761C243.878 214.761 216.314 212.594 201.107 189.83C185.899 167.066 183.048 128.543 180.196 110.948C180.196 110.948 264.904 124.683 264.846 205.494C264.846 205.495 252.75 216.473 243.878 214.761Z" fill="#6EBACC"/>
<path d="M264.844 205.496C264.844 205.496 262.722 207.417 259.605 209.53C255.285 212.47 249.035 215.755 243.881 214.766C243.881 214.766 221.115 210.74 205.904 187.974C190.702 165.209 183.045 128.544 180.198 110.947C180.198 110.947 264.903 124.684 264.844 205.496Z" fill="url(#paint62_linear_6_16)"/>
<path d="M264.844 205.496C264.844 205.496 262.722 207.417 259.605 209.53C224.888 188.686 180.198 110.947 180.198 110.947C180.198 110.947 264.903 124.684 264.844 205.496Z" fill="url(#paint63_linear_6_16)"/>
<path d="M210.911 240.554C210.911 240.554 212.016 198.967 254.592 205.83L257.497 209.753C257.497 209.753 252.884 244.174 210.911 240.554Z" fill="#6EBACC"/>
<path d="M310.553 186.043C310.553 186.043 280.487 162.478 260.174 205.7L261.231 210.691C261.232 210.692 288.302 226.795 310.553 186.043Z" fill="#6EBACC"/>
<path d="M310.553 186.043C310.553 186.043 286.497 175.021 260.174 205.7L261.231 210.691C261.232 210.692 288.302 226.795 310.553 186.043Z" fill="url(#paint64_linear_6_16)"/>
<path d="M210.911 240.554C210.911 240.554 212.016 198.967 254.592 205.83L257.497 209.753C257.497 209.753 251.362 229.908 210.911 240.554Z" fill="url(#paint65_linear_6_16)"/>
<path d="M305.449 316.653C305.449 316.653 233.15 304.54 255.731 211.893L261.214 208.042C264.482 220.875 279.381 275.637 305.449 316.653Z" fill="url(#paint66_linear_6_16)"/>
<path d="M164.17 490.199C140.899 491.698 115.227 493.215 96.251 495.203C91.7282 495.683 87.5843 496.184 83.9458 496.721C54.4755 501.063 44.0232 493.474 38.8265 471.813C33.6298 450.152 38.8265 447.732 38.8265 447.732C44.8654 443.457 57.3728 440.326 72.6849 438.001C86.262 435.946 102.063 434.524 117.518 433.535C105.238 445.274 99.5948 454.975 122.546 465.435C151.233 478.499 147.03 470.171 164.17 490.199Z" fill="url(#paint67_linear_6_16)"/>
<path d="M358.224 481.544C356.405 481.054 353.482 480.843 349.886 480.795C363.353 468.932 366.882 458.577 361.93 443.486C360.161 438.088 359.26 431.162 358.898 423.766C375.389 424.4 387.972 424.957 388.393 424.371C389.455 422.892 391.897 431.681 391.99 440.356C392.083 449.029 389.994 459.865 391.897 471.814C393.801 483.753 366.234 483.715 358.224 481.544Z" fill="url(#paint68_linear_6_16)"/>
<path d="M96.251 495.203C91.7281 495.683 87.5842 496.184 83.9457 496.721C54.4754 501.063 44.0231 493.474 38.8265 471.813C33.6298 450.152 38.8265 447.732 38.8265 447.732C44.8654 443.457 57.3728 440.326 72.6848 438.001C72.2132 452.323 74.7231 470.228 87.2473 482.658C91.248 486.625 94.1622 490.871 96.251 495.203Z" fill="url(#paint69_linear_6_16)"/>
<path d="M354.83 366.698C354.484 363.874 354.863 361.425 354.863 361.425C354.863 361.425 354.939 363.519 354.83 366.698Z" fill="url(#paint70_linear_6_16)"/>
<path d="M325.222 367.792C325.222 367.792 332.007 359.488 337.399 349.937C342.791 340.385 343.294 339.04 355.928 332.162C368.562 325.285 371.795 304.143 381.707 298.629C391.618 293.115 392.265 289.897 392.265 289.897C392.265 289.897 399.209 300.885 391.775 313.912C384.341 326.938 371.049 332.61 369.835 341.941C368.62 351.272 371.695 367.021 365.665 367.792C359.636 368.562 362.92 358.464 360.155 351.986C357.39 345.507 350.874 349.937 350.874 349.937C350.874 349.937 334.606 367.021 325.222 367.792Z" fill="white"/>
<path d="M325.222 367.792C325.222 367.792 332.007 359.488 337.399 349.937C342.791 340.385 343.294 339.04 355.928 332.162C368.562 325.285 374.993 316.443 384.903 310.929C394.814 305.415 392.265 289.897 392.265 289.897C392.265 289.897 399.209 300.885 391.775 313.912C384.341 326.938 371.049 332.61 369.835 341.941C368.62 351.272 371.695 367.021 365.665 367.792C359.636 368.562 362.92 358.464 360.155 351.986C357.39 345.507 347.936 343.861 347.936 343.861C347.936 343.861 334.606 367.021 325.222 367.792Z" fill="url(#paint71_linear_6_16)"/>
<path d="M219.22 630.795C221.695 630.795 223.702 626.747 223.702 621.753C223.702 616.759 221.695 612.711 219.22 612.711C216.745 612.711 214.739 616.759 214.739 621.753C214.739 626.747 216.745 630.795 219.22 630.795Z" fill="#1B2043"/>
<path d="M338.82 615.426C341.295 615.426 343.301 611.378 343.301 606.384C343.301 601.39 341.295 597.342 338.82 597.342C336.344 597.342 334.338 601.39 334.338 606.384C334.338 611.378 336.344 615.426 338.82 615.426Z" fill="#1B2043"/>
<path d="M243.828 599.14C243.828 599.14 287.915 604.039 312.881 597.323C312.881 597.323 321.755 633.829 281.457 637.115C241.16 640.402 242.567 602.065 243.828 599.14Z" fill="#1B2043"/>
<path opacity="0.5" d="M299.831 631.94C295.283 634.581 289.303 636.482 281.461 637.117C241.159 640.402 242.566 602.066 243.829 599.137C243.829 599.137 258.745 600.797 276.137 600.856C288.645 600.904 302.433 600.126 312.877 597.321C312.878 597.321 318.639 620.999 299.831 631.94Z" fill="url(#paint72_linear_6_16)"/>
<path d="M299.831 631.94C295.283 634.582 289.303 636.483 281.461 637.117C241.159 640.403 242.566 602.066 243.829 599.136C243.829 599.136 258.745 600.797 276.137 600.856C284.57 608.771 294.095 619.549 299.831 631.94Z" fill="#EC141F"/>
<path d="M299.831 631.94C295.283 634.582 289.303 636.483 281.461 637.117C241.159 640.403 242.566 602.066 243.829 599.136C243.829 599.136 258.745 600.797 276.137 600.856C284.57 608.771 294.095 619.549 299.831 631.94Z" fill="url(#paint73_linear_6_16)"/>
<defs>
<linearGradient id="paint0_linear_6_16" x1="329.477" y1="96.1375" x2="178.37" y2="388.538" gradientUnits="userSpaceOnUse">
<stop stop-color="#F4EAEE" stop-opacity="0"/>
<stop offset="1" stop-color="#F4EAEE"/>
</linearGradient>
<linearGradient id="paint1_linear_6_16" x1="322.168" y1="11.2506" x2="368.205" y2="11.2506" gradientUnits="userSpaceOnUse">
<stop stop-color="#F4EAEE" stop-opacity="0"/>
<stop offset="1" stop-color="#F4EAEE"/>
</linearGradient>
<linearGradient id="paint2_linear_6_16" x1="337.866" y1="32.9854" x2="290.901" y2="165.884" gradientUnits="userSpaceOnUse">
<stop stop-color="#F4EAEE" stop-opacity="0"/>
<stop offset="1" stop-color="#F4EAEE"/>
</linearGradient>
<linearGradient id="paint3_linear_6_16" x1="323.199" y1="71.3405" x2="291.594" y2="185.335" gradientUnits="userSpaceOnUse">
<stop stop-color="#F4EAEE" stop-opacity="0"/>
<stop offset="1" stop-color="#F4EAEE"/>
</linearGradient>
<linearGradient id="paint4_linear_6_16" x1="305.539" y1="134.326" x2="267.54" y2="263.825" gradientUnits="userSpaceOnUse">
<stop stop-color="#F4EAEE" stop-opacity="0"/>
<stop offset="1" stop-color="#F4EAEE"/>
</linearGradient>
<linearGradient id="paint5_linear_6_16" x1="397.203" y1="-162.861" x2="245.2" y2="355.171" gradientUnits="userSpaceOnUse">
<stop stop-color="#98D2E9" stop-opacity="0"/>
<stop offset="1" stop-color="#98D2E9"/>
</linearGradient>
<linearGradient id="paint6_linear_6_16" x1="380.183" y1="171.885" x2="150.435" y2="389.122" gradientUnits="userSpaceOnUse">
<stop stop-color="#F4EAEE" stop-opacity="0"/>
<stop offset="1" stop-color="#F4EAEE"/>
</linearGradient>
<linearGradient id="paint7_linear_6_16" x1="396.822" y1="88.7293" x2="441.525" y2="101.817" gradientUnits="userSpaceOnUse">
<stop stop-color="#F4EAEE" stop-opacity="0"/>
<stop offset="1" stop-color="#F4EAEE"/>
</linearGradient>
<linearGradient id="paint8_linear_6_16" x1="405.677" y1="115.016" x2="319.506" y2="220.242" gradientUnits="userSpaceOnUse">
<stop stop-color="#F4EAEE" stop-opacity="0"/>
<stop offset="1" stop-color="#F4EAEE"/>
</linearGradient>
<linearGradient id="paint9_linear_6_16" x1="381.113" y1="146.097" x2="314.439" y2="239.194" gradientUnits="userSpaceOnUse">
<stop stop-color="#F4EAEE" stop-opacity="0"/>
<stop offset="1" stop-color="#F4EAEE"/>
</linearGradient>
<linearGradient id="paint10_linear_6_16" x1="346.872" y1="199.461" x2="269.382" y2="304.519" gradientUnits="userSpaceOnUse">
<stop stop-color="#F4EAEE" stop-opacity="0"/>
<stop offset="1" stop-color="#F4EAEE"/>
</linearGradient>
<linearGradient id="paint11_linear_6_16" x1="517.779" y1="-48.2527" x2="207.801" y2="372.007" gradientUnits="userSpaceOnUse">
<stop stop-color="#98D2E9" stop-opacity="0"/>
<stop offset="1" stop-color="#98D2E9"/>
</linearGradient>
<linearGradient id="paint12_linear_6_16" x1="170.45" y1="260.503" x2="228.355" y2="346.015" gradientUnits="userSpaceOnUse">
<stop stop-color="#3C4784" stop-opacity="0"/>
<stop offset="1" stop-color="#3C4784"/>
</linearGradient>
<linearGradient id="paint13_linear_6_16" x1="79.0258" y1="222.84" x2="215.749" y2="468.961" gradientUnits="userSpaceOnUse">
<stop stop-color="#3C4784" stop-opacity="0"/>
<stop offset="1" stop-color="#3C4784"/>
</linearGradient>
<linearGradient id="paint14_linear_6_16" x1="216.167" y1="62.1162" x2="176.951" y2="416.482" gradientUnits="userSpaceOnUse">
<stop stop-color="#F4EAEE" stop-opacity="0"/>
<stop offset="1" stop-color="#F4EAEE"/>
</linearGradient>
<linearGradient id="paint15_linear_6_16" x1="87.3196" y1="222.812" x2="179.809" y2="464.239" gradientUnits="userSpaceOnUse">
<stop stop-color="#3C4784" stop-opacity="0"/>
<stop offset="1" stop-color="#3C4784"/>
</linearGradient>
<linearGradient id="paint16_linear_6_16" x1="223.62" y1="191.386" x2="161.208" y2="290.069" gradientUnits="userSpaceOnUse">
<stop stop-color="#F4EAEE" stop-opacity="0"/>
<stop offset="1" stop-color="#F4EAEE"/>
</linearGradient>
<linearGradient id="paint17_linear_6_16" x1="168.562" y1="153.436" x2="174.697" y2="198.437" gradientUnits="userSpaceOnUse">
<stop stop-color="#F4EAEE" stop-opacity="0"/>
<stop offset="1" stop-color="#F4EAEE"/>
</linearGradient>
<linearGradient id="paint18_linear_6_16" x1="153.902" y1="235.889" x2="159.853" y2="259.47" gradientUnits="userSpaceOnUse">
<stop stop-color="#F4EAEE" stop-opacity="0"/>
<stop offset="1" stop-color="#F4EAEE"/>
</linearGradient>
<linearGradient id="paint19_linear_6_16" x1="189.59" y1="764.866" x2="189.59" y2="655.025" gradientUnits="userSpaceOnUse">
<stop stop-color="#EC141F" stop-opacity="0"/>
<stop offset="1" stop-color="#EC141F"/>
</linearGradient>
<linearGradient id="paint20_linear_6_16" x1="326.488" y1="764.865" x2="326.488" y2="655.025" gradientUnits="userSpaceOnUse">
<stop stop-color="#EC141F" stop-opacity="0"/>
<stop offset="1" stop-color="#EC141F"/>
</linearGradient>
<linearGradient id="paint21_linear_6_16" x1="411.795" y1="525.879" x2="332.269" y2="553.314" gradientUnits="userSpaceOnUse">
<stop stop-color="#EC141F" stop-opacity="0"/>
<stop offset="1" stop-color="#EC141F"/>
</linearGradient>
<linearGradient id="paint22_linear_6_16" x1="104.934" y1="386.178" x2="147.805" y2="452.407" gradientUnits="userSpaceOnUse">
<stop stop-color="#3C4784" stop-opacity="0"/>
<stop offset="1" stop-color="#3C4784"/>
</linearGradient>
<linearGradient id="paint23_linear_6_16" x1="1.22018" y1="419.587" x2="152.64" y2="419.587" gradientUnits="userSpaceOnUse">
<stop stop-color="#3C4784" stop-opacity="0"/>
<stop offset="1" stop-color="#3C4784"/>
</linearGradient>
<linearGradient id="paint24_linear_6_16" x1="29.8398" y1="440.711" x2="127.498" y2="440.711" gradientUnits="userSpaceOnUse">
<stop stop-color="#F4EAEE" stop-opacity="0"/>
<stop offset="1" stop-color="#F4EAEE"/>
</linearGradient>
<linearGradient id="paint25_linear_6_16" x1="31.2126" y1="351.986" x2="205.904" y2="351.986" gradientUnits="userSpaceOnUse">
<stop stop-color="#F4EAEE" stop-opacity="0"/>
<stop offset="1" stop-color="#F4EAEE"/>
</linearGradient>
<linearGradient id="paint26_linear_6_16" x1="122.502" y1="182.539" x2="83.1744" y2="537.913" gradientUnits="userSpaceOnUse">
<stop stop-color="#F4EAEE" stop-opacity="0"/>
<stop offset="1" stop-color="#F4EAEE"/>
</linearGradient>
<linearGradient id="paint27_linear_6_16" x1="41.5374" y1="350.686" x2="73.7908" y2="378.135" gradientUnits="userSpaceOnUse">
<stop stop-color="#F4EAEE" stop-opacity="0"/>
<stop offset="1" stop-color="#F4EAEE"/>
</linearGradient>
<linearGradient id="paint28_linear_6_16" x1="39.5372" y1="308.942" x2="57.3733" y2="322.934" gradientUnits="userSpaceOnUse">
<stop stop-color="#F4EAEE" stop-opacity="0"/>
<stop offset="1" stop-color="#F4EAEE"/>
</linearGradient>
<linearGradient id="paint29_linear_6_16" x1="216.673" y1="535.296" x2="203.533" y2="844.935" gradientUnits="userSpaceOnUse">
<stop stop-color="#3C4784" stop-opacity="0"/>
<stop offset="1" stop-color="#3C4784"/>
</linearGradient>
<linearGradient id="paint30_linear_6_16" x1="125.171" y1="425.568" x2="77.6581" y2="845.043" gradientUnits="userSpaceOnUse">
<stop stop-color="#3C4784" stop-opacity="0"/>
<stop offset="1" stop-color="#3C4784"/>
</linearGradient>
<linearGradient id="paint31_linear_6_16" x1="207.74" y1="430.353" x2="211.026" y2="602.274" gradientUnits="userSpaceOnUse">
<stop stop-color="#3C4784" stop-opacity="0"/>
<stop offset="1" stop-color="#3C4784"/>
</linearGradient>
<linearGradient id="paint32_linear_6_16" x1="276.88" y1="565.808" x2="372.231" y2="565.808" gradientUnits="userSpaceOnUse">
<stop stop-color="#F4EAEE" stop-opacity="0"/>
<stop offset="0.6583" stop-color="#FBF6F8" stop-opacity="0.6583"/>
<stop offset="1" stop-color="white"/>
</linearGradient>
<linearGradient id="paint33_linear_6_16" x1="263.002" y1="306.856" x2="313.829" y2="516.414" gradientUnits="userSpaceOnUse">
<stop stop-color="#EC141F" stop-opacity="0"/>
<stop offset="1" stop-color="#EC141F"/>
</linearGradient>
<linearGradient id="paint34_linear_6_16" x1="170.591" y1="261.528" x2="181.538" y2="459.265" gradientUnits="userSpaceOnUse">
<stop stop-color="#F4EAEE" stop-opacity="0"/>
<stop offset="1" stop-color="#F4EAEE"/>
</linearGradient>
<linearGradient id="paint35_linear_6_16" x1="402.571" y1="296.251" x2="212.773" y2="509.233" gradientUnits="userSpaceOnUse">
<stop stop-color="#EC141F" stop-opacity="0"/>
<stop offset="1" stop-color="#EC141F"/>
</linearGradient>
<linearGradient id="paint36_linear_6_16" x1="408.023" y1="320.355" x2="247.039" y2="501.003" gradientUnits="userSpaceOnUse">
<stop stop-color="#F4EAEE" stop-opacity="0"/>
<stop offset="1" stop-color="#F4EAEE"/>
</linearGradient>
<linearGradient id="paint37_linear_6_16" x1="361.765" y1="387.378" x2="358.86" y2="411.656" gradientUnits="userSpaceOnUse">
<stop stop-color="#F4EAEE" stop-opacity="0"/>
<stop offset="1" stop-color="#F4EAEE"/>
</linearGradient>
<linearGradient id="paint38_linear_6_16" x1="387.876" y1="355.677" x2="384.97" y2="379.956" gradientUnits="userSpaceOnUse">
<stop stop-color="#F4EAEE" stop-opacity="0"/>
<stop offset="1" stop-color="#F4EAEE"/>
</linearGradient>
<linearGradient id="paint39_linear_6_16" x1="212.664" y1="258.463" x2="257.973" y2="505.345" gradientUnits="userSpaceOnUse">
<stop stop-color="#98D2E9" stop-opacity="0"/>
<stop offset="1" stop-color="#98D2E9"/>
</linearGradient>
<linearGradient id="paint40_linear_6_16" x1="36.5169" y1="460.79" x2="391.993" y2="460.79" gradientUnits="userSpaceOnUse">
<stop stop-color="#F4EAEE" stop-opacity="0"/>
<stop offset="1" stop-color="#F4EAEE"/>
</linearGradient>
<linearGradient id="paint41_linear_6_16" x1="87.2512" y1="672.11" x2="370.298" y2="672.11" gradientUnits="userSpaceOnUse">
<stop stop-color="#F4EAEE" stop-opacity="0"/>
<stop offset="1" stop-color="#F4EAEE"/>
</linearGradient>
<linearGradient id="paint42_linear_6_16" x1="316.162" y1="217.96" x2="394.763" y2="217.96" gradientUnits="userSpaceOnUse">
<stop stop-color="#3C4784" stop-opacity="0"/>
<stop offset="1" stop-color="#3C4784"/>
</linearGradient>
<linearGradient id="paint43_linear_6_16" x1="339.798" y1="285.199" x2="321.232" y2="446.079" gradientUnits="userSpaceOnUse">
<stop stop-color="#3C4784" stop-opacity="0"/>
<stop offset="1" stop-color="#3C4784"/>
</linearGradient>
<linearGradient id="paint44_linear_6_16" x1="272.567" y1="236.664" x2="397.028" y2="428.089" gradientUnits="userSpaceOnUse">
<stop stop-color="#3C4784" stop-opacity="0"/>
<stop offset="1" stop-color="#3C4784"/>
</linearGradient>
<linearGradient id="paint45_linear_6_16" x1="394.635" y1="224.262" x2="298.398" y2="419.627" gradientUnits="userSpaceOnUse">
<stop stop-color="#F4EAEE" stop-opacity="0"/>
<stop offset="1" stop-color="#F4EAEE"/>
</linearGradient>
<linearGradient id="paint46_linear_6_16" x1="320.554" y1="262.132" x2="320.554" y2="274.158" gradientUnits="userSpaceOnUse">
<stop stop-color="#3C4784" stop-opacity="0"/>
<stop offset="1" stop-color="#3C4784"/>
</linearGradient>
<linearGradient id="paint47_linear_6_16" x1="355.928" y1="262.132" x2="355.928" y2="274.158" gradientUnits="userSpaceOnUse">
<stop stop-color="#3C4784" stop-opacity="0"/>
<stop offset="1" stop-color="#3C4784"/>
</linearGradient>
<linearGradient id="paint48_linear_6_16" x1="303.709" y1="292.87" x2="303.709" y2="304.896" gradientUnits="userSpaceOnUse">
<stop stop-color="#3C4784" stop-opacity="0"/>
<stop offset="1" stop-color="#3C4784"/>
</linearGradient>
<linearGradient id="paint49_linear_6_16" x1="337.399" y1="293.831" x2="337.399" y2="305.857" gradientUnits="userSpaceOnUse">
<stop stop-color="#3C4784" stop-opacity="0"/>
<stop offset="1" stop-color="#3C4784"/>
</linearGradient>
<linearGradient id="paint50_linear_6_16" x1="318.027" y1="333.214" x2="318.027" y2="345.24" gradientUnits="userSpaceOnUse">
<stop stop-color="#3C4784" stop-opacity="0"/>
<stop offset="1" stop-color="#3C4784"/>
</linearGradient>
<linearGradient id="paint51_linear_6_16" x1="350.875" y1="316.884" x2="350.875" y2="328.91" gradientUnits="userSpaceOnUse">
<stop stop-color="#3C4784" stop-opacity="0"/>
<stop offset="1" stop-color="#3C4784"/>
</linearGradient>
<linearGradient id="paint52_linear_6_16" x1="372.773" y1="285.185" x2="372.773" y2="297.211" gradientUnits="userSpaceOnUse">
<stop stop-color="#3C4784" stop-opacity="0"/>
<stop offset="1" stop-color="#3C4784"/>
</linearGradient>
<linearGradient id="paint53_linear_6_16" x1="321.026" y1="260.217" x2="317.055" y2="271.897" gradientUnits="userSpaceOnUse">
<stop stop-color="#98D2E9" stop-opacity="0"/>
<stop offset="1" stop-color="#98D2E9"/>
</linearGradient>
<linearGradient id="paint54_linear_6_16" x1="356.4" y1="260.217" x2="352.429" y2="271.897" gradientUnits="userSpaceOnUse">
<stop stop-color="#98D2E9" stop-opacity="0"/>
<stop offset="1" stop-color="#98D2E9"/>
</linearGradient>
<linearGradient id="paint55_linear_6_16" x1="304.182" y1="290.955" x2="300.21" y2="302.635" gradientUnits="userSpaceOnUse">
<stop stop-color="#98D2E9" stop-opacity="0"/>
<stop offset="1" stop-color="#98D2E9"/>
</linearGradient>
<linearGradient id="paint56_linear_6_16" x1="337.871" y1="291.916" x2="333.9" y2="303.595" gradientUnits="userSpaceOnUse">
<stop stop-color="#98D2E9" stop-opacity="0"/>
<stop offset="1" stop-color="#98D2E9"/>
</linearGradient>
<linearGradient id="paint57_linear_6_16" x1="318.499" y1="331.298" x2="314.528" y2="342.977" gradientUnits="userSpaceOnUse">
<stop stop-color="#98D2E9" stop-opacity="0"/>
<stop offset="1" stop-color="#98D2E9"/>
</linearGradient>
<linearGradient id="paint58_linear_6_16" x1="351.347" y1="314.969" x2="347.375" y2="326.648" gradientUnits="userSpaceOnUse">
<stop stop-color="#98D2E9" stop-opacity="0"/>
<stop offset="1" stop-color="#98D2E9"/>
</linearGradient>
<linearGradient id="paint59_linear_6_16" x1="373.245" y1="283.271" x2="369.274" y2="294.95" gradientUnits="userSpaceOnUse">
<stop stop-color="#98D2E9" stop-opacity="0"/>
<stop offset="1" stop-color="#98D2E9"/>
</linearGradient>
<linearGradient id="paint60_linear_6_16" x1="153.772" y1="692.441" x2="161.98" y2="564.333" gradientUnits="userSpaceOnUse">
<stop stop-color="#EC141F" stop-opacity="0"/>
<stop offset="1" stop-color="#EC141F"/>
</linearGradient>
<linearGradient id="paint61_linear_6_16" x1="282.892" y1="278.187" x2="233.731" y2="167.96" gradientUnits="userSpaceOnUse">
<stop stop-color="#3C4784" stop-opacity="0"/>
<stop offset="1" stop-color="#3C4784"/>
</linearGradient>
<linearGradient id="paint62_linear_6_16" x1="230.88" y1="176.212" x2="287.285" y2="253.342" gradientUnits="userSpaceOnUse">
<stop stop-color="#3C4784" stop-opacity="0"/>
<stop offset="1" stop-color="#3C4784"/>
</linearGradient>
<linearGradient id="paint63_linear_6_16" x1="219.47" y1="109.382" x2="234.053" y2="281.999" gradientUnits="userSpaceOnUse">
<stop stop-color="#3C4784" stop-opacity="0"/>
<stop offset="1" stop-color="#3C4784"/>
</linearGradient>
<linearGradient id="paint64_linear_6_16" x1="307.569" y1="184.81" x2="242.794" y2="216.596" gradientUnits="userSpaceOnUse">
<stop stop-color="#3C4784" stop-opacity="0"/>
<stop offset="1" stop-color="#3C4784"/>
</linearGradient>
<linearGradient id="paint65_linear_6_16" x1="210.911" y1="222.81" x2="257.497" y2="222.81" gradientUnits="userSpaceOnUse">
<stop stop-color="#3C4784" stop-opacity="0"/>
<stop offset="1" stop-color="#3C4784"/>
</linearGradient>
<linearGradient id="paint66_linear_6_16" x1="280.827" y1="318.58" x2="269.161" y2="185.616" gradientUnits="userSpaceOnUse">
<stop stop-color="#3C4784" stop-opacity="0"/>
<stop offset="1" stop-color="#3C4784"/>
</linearGradient>
<linearGradient id="paint67_linear_6_16" x1="36.5169" y1="465.714" x2="164.17" y2="465.714" gradientUnits="userSpaceOnUse">
<stop stop-color="#F4EAEE" stop-opacity="0"/>
<stop offset="1" stop-color="#F4EAEE"/>
</linearGradient>
<linearGradient id="paint68_linear_6_16" x1="404.412" y1="398.525" x2="313.935" y2="520.168" gradientUnits="userSpaceOnUse">
<stop stop-color="#98D2E9" stop-opacity="0"/>
<stop offset="1" stop-color="#98D2E9"/>
</linearGradient>
<linearGradient id="paint69_linear_6_16" x1="66.3838" y1="438.683" x2="66.3838" y2="577.966" gradientUnits="userSpaceOnUse">
<stop stop-color="#3C4784" stop-opacity="0"/>
<stop offset="1" stop-color="#3C4784"/>
</linearGradient>
<linearGradient id="paint70_linear_6_16" x1="355.991" y1="362.393" x2="352.862" y2="365.907" gradientUnits="userSpaceOnUse">
<stop stop-color="#EC141F" stop-opacity="0"/>
<stop offset="1" stop-color="#EC141F"/>
</linearGradient>
<linearGradient id="paint71_linear_6_16" x1="339.997" y1="277.486" x2="405.691" y2="414.75" gradientUnits="userSpaceOnUse">
<stop stop-color="#98D2E9" stop-opacity="0"/>
<stop offset="1" stop-color="#98D2E9"/>
</linearGradient>
<linearGradient id="paint72_linear_6_16" x1="293.104" y1="588.819" x2="265.859" y2="616.974" gradientUnits="userSpaceOnUse">
<stop stop-color="#98D2E9" stop-opacity="0"/>
<stop offset="1" stop-color="#98D2E9"/>
</linearGradient>
<linearGradient id="paint73_linear_6_16" x1="274.685" y1="600.764" x2="255.241" y2="677.484" gradientUnits="userSpaceOnUse">
<stop stop-color="#3C4784" stop-opacity="0"/>
<stop offset="1" stop-color="#3C4784"/>
</linearGradient>
</defs>
</svg>
