<?xml version="1.0" standalone="yes"?>
<svg xmlns="http://www.w3.org/2000/svg" width="615" height="407">
<path style="fill:#050403; stroke:none;" d="M0 0L0 407L439 407L439 406C376.235 401.04 313.315 384.651 251 375.427C227.269 371.915 198.533 371.739 176 363.613C169.44 361.247 164.189 356.369 158 353.276C153.164 350.86 147.55 350.126 143.044 347.031C130.933 338.71 147.694 326.027 154.001 320C169.985 304.725 186.629 290.025 204 276.339C211.505 270.426 219.064 263.018 229 262C222.117 249.963 213.976 241.141 215.09 226C215.657 218.307 219.795 211.307 221.964 204C226.657 188.191 230.336 166.108 223 151C225.346 148.591 224.005 142.951 223.381 139.675C221.698 130.833 212.943 114.351 205 110L210 120L209 124L212 125L214 132L210 128L209 128L214.961 177L208 235C196.755 212.594 213.001 184.762 211.961 161C211.322 146.404 208.025 130.563 202.547 117C199.977 110.637 195.146 104.596 193.363 98C192.174 93.5985 195.19 90.2166 195.158 86C195.133 82.7422 192.526 80.2491 192.233 77C191.189 65.4066 196.841 56.0807 202.187 46.9606C205.539 41.2408 202.605 34.0519 209.055 29.7423C215.924 25.1528 219.069 32.4735 224.946 31.5486C228.413 31.003 230.08 25.3771 234 24L235 28L236 28L234 22C256.138 29.0324 268.231 41.3076 275 63C279.92 63.0032 287.514 62.5653 288.578 69.0154C289.026 71.729 287.369 74.2775 288.147 77C289.168 80.5739 292.762 82.979 292.512 86.9854C292.285 90.6038 288.976 92.8449 287.698 96.0394C285.799 100.789 284.804 106.934 284.16 112C280.333 142.102 291.533 173.114 308 198L309 198L296 167L297 167C306.548 189.932 322.897 213.606 309.201 239C303.522 249.529 291.973 256.336 287 267L384 278.715L408 276.213L422 281.819L450 288L451 288C456.315 283.35 468.264 289.931 475 290.87C496.326 293.843 517.826 295.902 539 300C545.811 301.318 557.601 302.015 558.482 311.001C559.3 319.333 551.958 329.315 547.771 336C535.291 355.925 520.428 383.663 501 397.49C493.369 402.921 483.848 400.344 476 406L476 407L615 407L615 0L0 0z"/>
<path style="fill:#8b6c51; stroke:none;" d="M234 22L236 28L235 28L234 24C228.618 25.1221 227.226 29.3727 225 34L221 33L222 30C205.696 21.5164 203.863 39.8981 201 51L205 55L206 55L205 51L208 54L212 52L210 58L217 58L218 58C220.167 54.3837 223.063 54.554 227 55C228.058 48.1123 226.107 38.7681 236 38L234 33L238 40L233 39L234 42L237 41L237 46L232 49C233.6 54.8018 228.624 60.2531 237 62L237 63L229 65L228 65L225 61L222 73L231 66L235 70L233 67L237 67L236 69L259 70L256 72L256 73L261 71L261 70L259 68L269 62L269 61L261 66L256 65L256 64L260 60L271 49C263.944 44.0303 260.327 44.7644 257 53L252 53C251.101 48.8296 250.299 45.4332 246 44L245 39L240 41L240 37C245.812 36.1288 250.931 34.2982 252 28L234 22M227 25L228 26L227 25z"/>
<path style="fill:#9e9273; stroke:none;" d="M231 26L231 28L233 28L231 26z"/>
<path style="fill:#8b6c51; stroke:none;" d="M225 27L226 28L225 27z"/>
<path style="fill:#050403; stroke:none;" d="M237 27L238 28L237 27z"/>
<path style="fill:#b3c4ca; stroke:none;" d="M252 28L240 41L246 39L252 52L256 53L260 49L260 37C262.228 35.0683 260.243 34.2063 258 34L252 28z"/>
<path style="fill:#050403; stroke:none;" d="M238 29L238 30L242 31L242 30L238 29z"/>
<path style="fill:#9e9273; stroke:none;" d="M251 29L252 30L251 29M233 30L233 32L235 32L233 30M221 31L225 33L225 32L221 31z"/>
<path style="fill:#6a7889; stroke:none;" d="M223 32L224 33L223 32z"/>
<path style="fill:#9e9273; stroke:none;" d="M234 33L234 34L236 33L236 34L236 38L230 39L230 41L233 42L233 39L238 40L236 32L234 33z"/>
<path style="fill:#050403; stroke:none;" d="M241 32L242 33L241 32z"/>
<path style="fill:#9e9273; stroke:none;" d="M255 32L254 35L255 32z"/>
<path style="fill:#b3c4ca; stroke:none;" d="M224 33L225 34L224 33M235 33L236 34L235 33z"/>
<path style="fill:#9e9273; stroke:none;" d="M247 33L248 34L247 33M258 33L259 34L258 33z"/>
<path style="fill:#b3c4ca; stroke:none;" d="M216 34L217 35L216 34z"/>
<path style="fill:#9e9273; stroke:none;" d="M217 34L218 35L217 34M248 34L249 35L248 34M210 35L207 36L207 43L214 42L217 37L213 40L212 40L210 35M246 35L247 36L246 35M231 36L232 37L231 36M243 36L243 37L246 37L243 36z"/>
<path style="fill:#b3c4ca; stroke:none;" d="M207.333 37.6667L207.667 38.3333L207.333 37.6667z"/>
<path style="fill:#9e9273; stroke:none;" d="M240 37L241 38L240 37M260 37L261 45L262 45L263 45L263 37L260 37z"/>
<path style="fill:#b3c4ca; stroke:none;" d="M212 39L213 40L212 39z"/>
<path style="fill:#9e9273; stroke:none;" d="M217 39L218 40L217 39z"/>
<path style="fill:#6a7889; stroke:none;" d="M243 39L244 40L243 39z"/>
<path style="fill:#9e9273; stroke:none;" d="M245 39L246 40L245 39z"/>
<path style="fill:#6a7889; stroke:none;" d="M262 39L263 40L262 39z"/>
<path style="fill:#b3c4ca; stroke:none;" d="M209 40L210 41L209 40M229 40L227 51C230.767 58.6334 213.185 58.2282 209 58L211 55L201 50C195.019 52.2669 195.966 56.667 194.531 62C191.876 71.8641 189.985 95.8637 202 100L202 101L193 98L195 103L197 101L201 106L202 101L209 102L209 103L205 104L205 105C212.83 109.368 215.434 117.354 219.247 125C230.369 147.302 230.507 174.053 224.37 198C221.289 210.027 212.941 222.137 216.8 235C223.257 256.522 250.832 260 253.946 235C257.309 207.999 252.018 177.903 248.714 151C247.079 137.693 243.506 124.435 246 111L233 116L233 115L254 105L254 104L238 104L238 103L241 103L241 100L242 103L264 100L264 101L261 102L261 103L275 105L275 106L271 106C272.186 134.066 273.839 161.833 271.91 190C270.887 204.939 267.342 226.666 273.032 240.945C276.266 249.059 287.309 246.517 293 243.061C302.872 237.066 307.181 225.664 306.935 213.961C306.71 203.228 299.759 194.345 295.32 185C287.929 169.438 279.274 146.456 280 129L278 130L278 129L286 94L276 96L276 95L293 85L287 77L283 80L289 69L281 72L280 74C279.467 77.9825 274.165 76.1862 271 76L275 73L275 67L271 69L275 60L269 61L266 64L263 67L262 74L261 74L262 71L261 71L242 80C243.201 72.4059 248.91 73.6736 255 73C250.408 66.0502 242.747 69.9713 236 69.4167C233.774 69.2337 231.449 67.6045 229.209 68.3217C226.354 69.2361 223.901 72.6247 221 74L222 68L214 64L220 66L224 60L226 60L227 63L234 62C231.251 58.1284 231.435 55.9537 234 52L236 45L234 41L229 40z"/>
<path style="fill:#9e9273; stroke:none;" d="M241 40L242 41L241 40z"/>
<path style="fill:#b3c4ca; stroke:none;" d="M211 41L212 42L211 41z"/>
<path style="fill:#9e9273; stroke:none;" d="M236 41L234 44C236.251 43.5268 237.118 43.1397 236 41M246 41L248 44L246 41z"/>
<path style="fill:#8b6c51; stroke:none;" d="M262.333 41.6667L262.667 42.3333L262.333 41.6667z"/>
<path style="fill:#6a7889; stroke:none;" d="M203.333 42.6667L203.667 43.3333L203.333 42.6667z"/>
<path style="fill:#9e9273; stroke:none;" d="M228 42L229 43L228 42M227 43L227 46L228 46L227 43z"/>
<path style="fill:#050403; stroke:none;" d="M237 44L238 45L237 44z"/>
<path style="fill:#6a7889; stroke:none;" d="M203 45L204 46L203 45z"/>
<path style="fill:#9e9273; stroke:none;" d="M207 45L208 46L207 45z"/>
<path style="fill:#6a7889; stroke:none;" d="M235 45L234 47L235 45z"/>
<path style="fill:#050403; stroke:none;" d="M236 45L237 46L236 45z"/>
<path style="fill:#9e9273; stroke:none;" d="M249 45L250 46L249 45M260 45L261 46L260 45M226.333 46.6667L226.667 47.3333L226.333 46.6667z"/>
<path style="fill:#050403; stroke:none;" d="M235 46L236 47L235 46z"/>
<path style="fill:#9e9273; stroke:none;" d="M250 46L251 47L250 46z"/>
<path style="fill:#6a7889; stroke:none;" d="M202 47L203 48L202 47M233 47L234 48L233 47z"/>
<path style="fill:#9e9273; stroke:none;" d="M259 47L260 48L259 47M232 48L233 49L232 48M251 48L251 51L252 51L251 48M200 49L201 50L200 49M211.333 49.6667L211.667 50.3333L211.333 49.6667M227 49L228 50L227 49M258 49L259 50L258 49M202 50L201 51L204 53L202 50M232.667 50.3333L233.333 50.6667L232.667 50.3333M257 50L258 51L257 50M267 54L272 50L267 54z"/>
<path style="fill:#b3c4ca; stroke:none;" d="M272 50L263 62C269.198 60.2909 275.042 57.2628 272 50z"/>
<path style="fill:#9e9273; stroke:none;" d="M205 51L205 54L209 53L205 51M228 51L227 55C222.179 53.9034 219.104 54.2383 217 59C221.162 58.0142 229.546 56.6458 228 51M249 51L250 52L249 51M210 55L212 52L210 55M252 52L253 53L252 52M254 52L255 53L254 52M256 52L257 53L256 52z"/>
<path style="fill:#b3c4ca; stroke:none;" d="M211 53L212 54L211 53z"/>
<path style="fill:#9e9273; stroke:none;" d="M201 54L202 55L201 54M251 54L252 55L251 54M231 55L232 56L231 55M265.333 55.6667L265.667 56.3333L265.333 55.6667M216 56L215 58L217 58L216 56M255 56L256 57L255 56z"/>
<path style="fill:#050403; stroke:none;" d="M259 56L260 57L259 56z"/>
<path style="fill:#9e9273; stroke:none;" d="M204 57L203 60L206 60L204 57M209 57L210 58L209 57M264.333 57.6667L264.667 58.3333L264.333 57.6667z"/>
<path style="fill:#8b6c51; stroke:none;" d="M203 58L204 59L203 58z"/>
<path style="fill:#9e9273; stroke:none;" d="M210.667 58.3333L211.333 58.6667L210.667 58.3333M223.667 58.3333L224.333 58.6667L223.667 58.3333M254 58L254 61L255 61L256 58L254 58M271 58L270 60L271 58z"/>
<path style="fill:#8b6c51; stroke:none;" d="M272 58L270 61L274 59L272 58M202 61C204.396 61.5746 204.487 61.4751 205 59L202 61z"/>
<path style="fill:#9e9273; stroke:none;" d="M213 59L214 60L213 59M263 59L259 63L260 63L261 61L264 63L263 59M224 60L224 62L226 60L224 60M258 60L259 61L258 60M267.667 60.3333L268.333 60.6667L267.667 60.3333z"/>
<path style="fill:#6a7889; stroke:none;" d="M269 60L270 61L269 60z"/>
<path style="fill:#9e9273; stroke:none;" d="M202 61L203 62L202 61M205 61L206 62L205 61M207 61L208 62L207 61M226.333 61.6667L226.667 62.3333L226.333 61.6667z"/>
<path style="fill:#b3c4ca; stroke:none;" d="M260 61L258 65C260.649 64.4324 261.355 63.4122 260 61z"/>
<path style="fill:#9e9273; stroke:none;" d="M265 61L266 62L265 61z"/>
<path style="fill:#6a7889; stroke:none;" d="M266 61L267 62L266 61z"/>
<path style="fill:#9e9273; stroke:none;" d="M270 61L271 62L270 61M203 62L204 63L203 62M223 62L224 63L223 62M228 62L228 65L231 64L231 63L228 62M233 62L233 63L237 63L233 62z"/>
<path style="fill:#6a7889; stroke:none;" d="M264 62L265 63L264 62z"/>
<path style="fill:#9e9273; stroke:none;" d="M266 64L267 65L269 62L266 64z"/>
<path style="fill:#8b6c51; stroke:none;" d="M273 62L272 66C275.724 65.8572 276.984 66.9162 279 70L275 71L272 76L278 73L277 76L279 73L284 70L282 71L282 70L288 67L288 65L273 62M207 63L209 65L207 63z"/>
<path style="fill:#9e9273; stroke:none;" d="M208 63L208 64L213 64L208 63M221 63L220 66L214 64L223 69L221 63M257.333 63.6667L257.667 64.3333L257.333 63.6667z"/>
<path style="fill:#6a7889; stroke:none;" d="M261.667 63.3333L262.333 63.6667L261.667 63.3333z"/>
<path style="fill:#9e9273; stroke:none;" d="M272 63L273 64L272 63M207 64L208 65L207 64z"/>
<path style="fill:#b3c4ca; stroke:none;" d="M256 64L257 65L256 64z"/>
<path style="fill:#6a7889; stroke:none;" d="M286 64L287 65L286 64z"/>
<path style="fill:#8b6c51; stroke:none;" d="M216 65L217 66L216 65z"/>
<path style="fill:#9e9273; stroke:none;" d="M260 65L261 66L260 65M264 65L264 68L266 65L264 65M271 69L275 67L275 71L279 70C277.15 65.8141 272.899 63.6174 271 69M278 65L279 66L278 65M230 66L231 67L230 66M288 66L282 71L284 70L282 72L282 73C285.577 71.9844 288.821 70.0745 288 66z"/>
<path style="fill:#8b6c51; stroke:none;" d="M213.333 67.6667L213.667 68.3333L213.333 67.6667z"/>
<path style="fill:#9e9273; stroke:none;" d="M214 67L215 68L214 67M228 67L229 68L228 67M231 67L232 68L231 67M233 67L238 70L238 69L237 67L233 67M260 67L261 74L262 74L263 67L260 67M284 67L285 68L284 67M212 68L213 69L212 68M227 68L228 69L227 68M240 68L240 69L246 69L240 68M248.667 68.3333L249.333 68.6667L248.667 68.3333z"/>
<path style="fill:#050403; stroke:none;" d="M259 68L260 69L259 68z"/>
<path style="fill:#9e9273; stroke:none;" d="M279 68L280 69L279 68M202 69L203 70L202 69z"/>
<path style="fill:#8b6c51; stroke:none;" d="M203 69L204 70L203 69z"/>
<path style="fill:#9e9273; stroke:none;" d="M204 69L205 70L204 69M233 69L234 70L233 69M251 69L251 70L255 73L245 73L245 74L250 77L260 72L256 71L259 72L251 69M226 70L227 71L226 70M221 71L221 74L222 74L221 71z"/>
<path style="fill:#6a7889; stroke:none;" d="M256 71L257 72L256 71z"/>
<path style="fill:#9e9273; stroke:none;" d="M260 71L261 72L260 71M274 71L275 72L274 71M225 72L226 73L225 72M275 72L276 73L275 72M273 73L274 74L273 73M276 73L274 77L278 73L276 73M279 73L279 74L282 74L279 73z"/>
<path style="fill:#8b6c51; stroke:none;" d="M242 79L251 76C246.906 73.2072 242.869 73.7915 242 79M251.667 74.3333L252.333 74.6667L251.667 74.3333z"/>
<path style="fill:#9e9273; stroke:none;" d="M271.333 74.6667L271.667 75.3333L271.333 74.6667M283 74L284 75L283 74M219 75L220 76L219 75z"/>
<path style="fill:#8b6c51; stroke:none;" d="M216 80L227 77C222.409 74.2686 218.635 75.4875 216 80z"/>
<path style="fill:#9e9273; stroke:none;" d="M224 75L224 76L227 76L224 75M277 76L277 77L281 76L277 76M217 76L218 77L217 76M227 76L226 78L228 78L227 76z"/>
<path style="fill:#6a7889; stroke:none;" d="M285 76L286 77L285 76z"/>
<path style="fill:#8b6c51; stroke:none;" d="M286 76L285 78L286 76z"/>
<path style="fill:#9e9273; stroke:none;" d="M247 77L248 78L247 77M283 80L287 77L283 80M216 78L217 79L216 78M224 78L225 79L224 78M244.667 78.3333L245.333 78.6667L244.667 78.3333M215 79L218 81L215 79M218 79L219 80L218 79M220.667 79.3333L221.333 79.6667L220.667 79.3333M242.667 79.3333L243.333 79.6667L242.667 79.3333M195 81L196 82L195 81M214 81L213 85L214 85L214 81M266 82L267 83L266 82M282 83L278 86L278 87L281 88L281 90L276 92L276 93L283 89L283 88C281.34 86.4124 281.214 85 284 85L282 83z"/>
<path style="fill:#8b6c51; stroke:none;" d="M282 84L281 88L282 84z"/>
<path style="fill:#9e9273; stroke:none;" d="M197.667 85.3333L198.333 85.6667L197.667 85.3333M212.333 85.6667L212.667 86.3333L212.333 85.6667M214 85L215 86L214 85M232 85L232 86L236 86L232 85M291 85L292 86L291 85z"/>
<path style="fill:#8b6c51; stroke:none;" d="M292 85L280 94L280 95L289 92L284 110L285 110L292 85z"/>
<path style="fill:#9e9273; stroke:none;" d="M227 86L227 87L230 87L227 86z"/>
<path style="fill:#8b6c51; stroke:none;" d="M220 90L220 91L233 87L220 90M279 86L280 87L279 86z"/>
<path style="fill:#9e9273; stroke:none;" d="M283 86L284 87L283 86z"/>
<path style="fill:#6a7889; stroke:none;" d="M290 86L291 87L290 86z"/>
<path style="fill:#9e9273; stroke:none;" d="M224 87L225 88L224 87M231 87L232 88L231 87M276 87L277 88L276 87z"/>
<path style="fill:#8b6c51; stroke:none;" d="M271 91L271 92L281 90L281 88L271 91z"/>
<path style="fill:#9e9273; stroke:none;" d="M228 90L231 88L228 90M274 88L275 89L274 88M288 88L289 89L288 88z"/>
<path style="fill:#6a7889; stroke:none;" d="M289 88L290 89L289 88z"/>
<path style="fill:#9e9273; stroke:none;" d="M221.667 89.3333L222.333 89.6667L221.667 89.3333M226 89L227 90L226 89M257 92L261 92L259 91L259 90L263 90L257 92z"/>
<path style="fill:#6a7889; stroke:none;" d="M282 89L283 90L282 89z"/>
<path style="fill:#9e9273; stroke:none;" d="M194 90L194 96L195 96L194 90M224 90L225 91L224 90z"/>
<path style="fill:#8b6c51; stroke:none;" d="M259 90L259 91L267 92L259 90z"/>
<path style="fill:#9e9273; stroke:none;" d="M267.333 90.6667L267.667 91.3333L267.333 90.6667M286 90L287 91L286 90z"/>
<path style="fill:#050403; stroke:none;" d="M288.667 90.3333L289.333 90.6667L288.667 90.3333z"/>
<path style="fill:#b3c4ca; stroke:none;" d="M193 91L194 92L193 91z"/>
<path style="fill:#6a7889; stroke:none;" d="M195 91L196 92L195 91z"/>
<path style="fill:#9e9273; stroke:none;" d="M220 91L220 92L224 92L220 91z"/>
<path style="fill:#8b6c51; stroke:none;" d="M258 91L259 92L258 91z"/>
<path style="fill:#9e9273; stroke:none;" d="M262.667 91.3333L263.333 91.6667L262.667 91.3333M265 91L266 92L265 91z"/>
<path style="fill:#8b6c51; stroke:none;" d="M268.667 91.3333L269.333 91.6667L268.667 91.3333z"/>
<path style="fill:#9e9273; stroke:none;" d="M269 92L269 93L275 93L269 92z"/>
<path style="fill:#8b6c51; stroke:none;" d="M257 92L258 93L257 92z"/>
<path style="fill:#9e9273; stroke:none;" d="M282 92L283 93L282 92z"/>
<path style="fill:#6a7889; stroke:none;" d="M283 92L284 93L283 92z"/>
<path style="fill:#9e9273; stroke:none;" d="M285 94L289 92L285 94z"/>
<path style="fill:#b3c4ca; stroke:none;" d="M193.333 93.6667L193.667 94.3333L193.333 93.6667z"/>
<path style="fill:#9e9273; stroke:none;" d="M256 93L257 94L256 93M280 93L281 94L280 93M236 94L236 97L237 97L238 94L236 94M278 94L278 96L280 96L278 94z"/>
<path style="fill:#6a7889; stroke:none;" d="M279 94L280 95L279 94z"/>
<path style="fill:#9e9273; stroke:none;" d="M282.667 94.3333L283.333 94.6667L282.667 94.3333z"/>
<path style="fill:#6a7889; stroke:none;" d="M192 98L199 100L199 99L194 95L192 98z"/>
<path style="fill:#9e9273; stroke:none;" d="M276 95L277 96L276 95z"/>
<path style="fill:#6a7889; stroke:none;" d="M277 95L278 96L277 95z"/>
<path style="fill:#9e9273; stroke:none;" d="M285 95L285 99L286 99L285 95z"/>
<path style="fill:#b3c4ca; stroke:none;" d="M192 96L193 97L192 96z"/>
<path style="fill:#9e9273; stroke:none;" d="M265 96L266 97L265 96M273 96L273 97L276 97L273 96M193 97L194 98L193 97M196 97L197 98L196 97M218.333 97.6667L218.667 98.3333L218.333 97.6667M227 97L229 99L227 97M271 97L272 98L271 97M197 98L198 99L197 98M216 98L217 99L216 98z"/>
<path style="fill:#8b6c51; stroke:none;" d="M219 98L220 99L219 98z"/>
<path style="fill:#9e9273; stroke:none;" d="M220 98L223 101L223 98L220 98M233 98L234 99L233 98M267 98L267 99L270 99L267 98M199.333 99.6667L199.667 100.333L199.333 99.6667z"/>
<path style="fill:#8b6c51; stroke:none;" d="M222 99L223 100L222 99z"/>
<path style="fill:#9e9273; stroke:none;" d="M264.667 99.3333L265.333 99.6667L264.667 99.3333z"/>
<path style="fill:#6a7889; stroke:none;" d="M200.667 100.333L201.333 100.667L200.667 100.333z"/>
<path style="fill:#8b6c51; stroke:none;" d="M223 100L226 102L226 101L223 100z"/>
<path style="fill:#9e9273; stroke:none;" d="M224 100L225 101L224 100M241 100L238 103L238 104L251 103L241 100M259 100L259 101L259 104L261 102L264 101L264 100L259 100z"/>
<path style="fill:#8b6c51; stroke:none;" d="M261 100L262 101L261 100z"/>
<path style="fill:#9e9273; stroke:none;" d="M196 101C196.72 106.508 200.338 115.819 205 119L203 104L202 104L201 106L196 101M202.333 101.667L202.667 102.333L202.333 101.667z"/>
<path style="fill:#8b6c51; stroke:none;" d="M203 101L203 119L203 120L212 148L211 153C216.416 160.04 214 173.535 214 182L215 182C215 162.95 213.258 146.399 209 128L210 128L214 132L212 125L209 124L210 120L205 110C213.276 116.729 228.479 139.668 223 151C228.394 166.595 225.279 179.82 224 196L225 196C227.638 175.236 230.125 154.282 223.255 134C220.739 126.575 216.756 118.855 212.621 112.209C210.564 108.902 205.813 107.262 207 103L207 102L203 101z"/>
<path style="fill:#9e9273; stroke:none;" d="M204 101L205 102L204 101M254 101L255 102L254 101z"/>
<path style="fill:#8b6c51; stroke:none;" d="M251 102L251 104L255 104L255 105C251.176 105.656 240.137 106.811 242 112L235 115L235 116L247 110C246.797 134.39 249.239 157.641 252.155 182C254.316 200.05 257.884 218.998 253.985 237C251.872 246.761 244.872 252.312 241 261L242 261C252.611 244.956 260.549 234.13 258.702 214C257.505 200.955 255.728 187.971 253.725 175C253.001 170.311 250.015 163.242 251.218 158.59C251.984 155.63 255.157 153.321 257 151C248.165 143.079 248.488 117.788 259 111L261 120C265.933 119.907 268.633 120.164 272 124L262 128C264.272 123.158 261.638 121.394 257 120L256 129L260 128L262 132L269 134L270 142L266 151L270 150L271 187L272 187L270 104L259 104L261 101L251 102z"/>
<path style="fill:#9e9273; stroke:none;" d="M205 103L205 104L209 103L205 103M225 102L226 103L225 102z"/>
<path style="fill:#6a7889; stroke:none;" d="M250 102L251 103L250 102z"/>
<path style="fill:#9e9273; stroke:none;" d="M266 102L267 103L266 102M284 102L284 106L285 106L284 102M220 103L221 104L220 103z"/>
<path style="fill:#8b6c51; stroke:none;" d="M244 103L245 104L244 103z"/>
<path style="fill:#9e9273; stroke:none;" d="M267 103L268 104L267 103M223 104L224 105L223 104M254 104L255 105L254 104z"/>
<path style="fill:#6a7889; stroke:none;" d="M270 104L271 105L270 104z"/>
<path style="fill:#9e9273; stroke:none;" d="M206 105L209 109L206 105M251 105L252 106L251 105z"/>
<path style="fill:#050403; stroke:none;" d="M253 108L253 109L256 111L259 105L253 108z"/>
<path style="fill:#9e9273; stroke:none;" d="M270 105L270 110L271 110L271 106L275 106L270 105M276 105L277 106L276 105z"/>
<path style="fill:#b3c4ca; stroke:none;" d="M197 106L198 107L197 106z"/>
<path style="fill:#6a7889; stroke:none;" d="M199 106L201 110L202 110L199 106z"/>
<path style="fill:#9e9273; stroke:none;" d="M245 106L245 107L250 107L245 106M242.667 107.333L243.333 107.667L242.667 107.333M283 107L283 112L284 112L283 107z"/>
<path style="fill:#b3c4ca; stroke:none;" d="M198 108L199 109L198 108z"/>
<path style="fill:#9e9273; stroke:none;" d="M222 108L223 109L222 108M241 108L242 109L241 108M242 111L246 109L242 111M281 108L282 109L281 108M210.667 109.333L211.333 109.667L210.667 109.333M240 109L241 110L240 109z"/>
<path style="fill:#b3c4ca; stroke:none;" d="M199 110L200 111L199 110z"/>
<path style="fill:#6a7889; stroke:none;" d="M202 110L203 111L202 110z"/>
<path style="fill:#9e9273; stroke:none;" d="M212 110L213 111L212 110z"/>
<path style="fill:#b3c4ca; stroke:none;" d="M243 110L244 111L243 110z"/>
<path style="fill:#9e9273; stroke:none;" d="M245 110L245 127L246 127C246.003 122.334 248.966 112.923 245 110M224 111L228 115L229 115L228 112L224 111M239 113L242 111L239 113M244 111L245 112L244 111z"/>
<path style="fill:#050403; stroke:none;" d="M256 111C255.363 123.418 242.155 141.94 257 151C248.326 158.81 252.123 165.62 253.725 176C256.026 190.9 259.234 206.915 258.985 222C258.699 239.421 248.334 247.634 241 262L258 268L258 269L255 270L258 277L277 274L275 266L275 265L289 257L289 256L274 258L279 249C269.389 246.233 270.993 230.854 270 223L265 225C263.877 213.724 255.86 194.935 263 185L268 204L270 204L271.001 167L270 150L266 151L270 142L269 134L262 132L264 130L260 128L256 129L257 120C261.135 121.847 263.288 123.333 262 128L272 124C269.219 119.251 266.053 119.647 261 120L259 111L256 111z"/>
<path style="fill:#9e9273; stroke:none;" d="M271 111L271 116L272 116L271 111z"/>
<path style="fill:#b3c4ca; stroke:none;" d="M200 112L201 113L200 112z"/>
<path style="fill:#9e9273; stroke:none;" d="M213 112L213 115L214 115L213 112z"/>
<path style="fill:#8b6c51; stroke:none;" d="M226 112L227 113L226 112M283 112L283 118L284 118L283 112M227 113L228 114L227 113z"/>
<path style="fill:#9e9273; stroke:none;" d="M238 113L239 114L238 113M241 113L242 114L241 113z"/>
<path style="fill:#b3c4ca; stroke:none;" d="M201 114L202 115L201 114z"/>
<path style="fill:#6a7889; stroke:none;" d="M229 114L229 115L232 115L229 114z"/>
<path style="fill:#9e9273; stroke:none;" d="M235.667 114.333L236.333 114.667L235.667 114.333M282 114L282 119L283 119L282 114M214.333 115.667L214.667 116.333L214.333 115.667M233 115L234 116L233 115z"/>
<path style="fill:#6a7889; stroke:none;" d="M234 115L235 116L234 115z"/>
<path style="fill:#9e9273; stroke:none;" d="M237.667 115.333L238.333 115.667L237.667 115.333M215 117L216 118L215 117M248 117L249 118L248 117z"/>
<path style="fill:#050403; stroke:none;" d="M268 118L269 119L268 118z"/>
<path style="fill:#9e9273; stroke:none;" d="M216 119L217 120L216 119z"/>
<path style="fill:#6a7889; stroke:none;" d="M282 119L283 120L282 119z"/>
<path style="fill:#8b6c51; stroke:none;" d="M283 119L283 135L284 135L283 119z"/>
<path style="fill:#9e9273; stroke:none;" d="M278 120L279 121L278 120M282.333 120.667L282.667 121.333L282.333 120.667z"/>
<path style="fill:#8b6c51; stroke:none;" d="M210 121L211 122L210 121z"/>
<path style="fill:#9e9273; stroke:none;" d="M217 121L218 122L217 121M276 121L277 122L276 121z"/>
<path style="fill:#6a7889; stroke:none;" d="M204 122L205 123L204 122z"/>
<path style="fill:#9e9273; stroke:none;" d="M280 122L278 130L280 129C278.464 146.225 288.02 170.629 295.32 186C299.657 195.13 307.164 204.405 306.816 214.985C306.212 233.338 292.722 252.245 273 243L277 249L279 247L280 257L298 251L297 253L304 248L308 236L309 236L308 240L309 240C322.967 210 298.493 187.479 289.333 160C285.47 148.411 286.215 132.307 280 122M272 124L273 125L272 124M219 125L220 126L219 125M271 125L271 129L272 129L271 125M220 127L221 128L220 127M246 128L247 129L246 128M221 129L222 130L221 129M222 131L223 132L222 131M246 131L246 134L247 134L246 131M271 132L272 150L273 150L273 132L271 132z"/>
<path style="fill:#6a7889; stroke:none;" d="M207 133L208 134L207 133z"/>
<path style="fill:#8b6c51; stroke:none;" d="M261 133L262 134L261 133M214 134L215 135L214 134z"/>
<path style="fill:#9e9273; stroke:none;" d="M223 134L224 135L223 134M224 136L224 139L225 139L224 136z"/>
<path style="fill:#8b6c51; stroke:none;" d="M254 136L255 137L254 136z"/>
<path style="fill:#9e9273; stroke:none;" d="M246.333 137.667L246.667 138.333L246.333 137.667z"/>
<path style="fill:#8b6c51; stroke:none;" d="M284 137L284 142L285 142L284 137z"/>
<path style="fill:#9e9273; stroke:none;" d="M225 140L226 141L225 140M225 142L226 143L225 142M247.333 142.667L247.667 143.333L247.333 142.667M210 143L211 144L210 143M226 143L226 146L227 146L226 143z"/>
<path style="fill:#8b6c51; stroke:none;" d="M285.333 144.667L285.667 145.333L285.333 144.667z"/>
<path style="fill:#9e9273; stroke:none;" d="M248 145L248 150L249 150L248 145M227 146L228 147L227 146M211 148L212 149L211 148M227 148L227 153L228 153L227 148z"/>
<path style="fill:#8b6c51; stroke:none;" d="M286 149L287 150L286 149z"/>
<path style="fill:#9e9273; stroke:none;" d="M211.333 150.667L211.667 151.333L211.333 150.667z"/>
<path style="fill:#6a7889; stroke:none;" d="M286 150L287 151L286 150z"/>
<path style="fill:#9e9273; stroke:none;" d="M273 151L274 152L273 151M211 153C214.53 180.935 201.277 206.256 207 234L208 234L213.83 182L213 153L211 153z"/>
<path style="fill:#8b6c51; stroke:none;" d="M287 153L288 154L287 153z"/>
<path style="fill:#6a7889; stroke:none;" d="M287 154L288 155L287 154z"/>
<path style="fill:#b3c4ca; stroke:none;" d="M211 156L212 157L211 156z"/>
<path style="fill:#9e9273; stroke:none;" d="M227.333 156.667L227.667 157.333L227.333 156.667z"/>
<path style="fill:#8b6c51; stroke:none;" d="M288 156L289 157L288 156z"/>
<path style="fill:#6a7889; stroke:none;" d="M288 157L289 158L288 157M289 160L290 161L289 160z"/>
<path style="fill:#9e9273; stroke:none;" d="M249 161L249 166L250 166L249 161z"/>
<path style="fill:#8b6c51; stroke:none;" d="M290 162L291 163L290 162z"/>
<path style="fill:#6a7889; stroke:none;" d="M290 163L291 164L290 163z"/>
<path style="fill:#8b6c51; stroke:none;" d="M291 165L292 166L291 165z"/>
<path style="fill:#6a7889; stroke:none;" d="M291 166L292 167L291 166z"/>
<path style="fill:#8b6c51; stroke:none;" d="M296 167C297.598 177.823 303.541 188.647 309 198L307 197L307 198L313 206C311.28 194.347 304.345 175.328 296 167z"/>
<path style="fill:#9e9273; stroke:none;" d="M250 168L250 174L251 174L250 168z"/>
<path style="fill:#6a7889; stroke:none;" d="M292 168L293 169L292 168z"/>
<path style="fill:#8b6c51; stroke:none;" d="M293 170L294 171L293 170z"/>
<path style="fill:#6a7889; stroke:none;" d="M293 171L294 172L293 171z"/>
<path style="fill:#9e9273; stroke:none;" d="M227 172L227 181L228 181L227 172M272 172L272 178L273 178L272 172z"/>
<path style="fill:#b3c4ca; stroke:none;" d="M211 173L212 174L211 173z"/>
<path style="fill:#6a7889; stroke:none;" d="M294 173L295 174L294 173M300 174L301 175L300 174z"/>
<path style="fill:#8b6c51; stroke:none;" d="M295 175L296 176L295 175z"/>
<path style="fill:#9e9273; stroke:none;" d="M251 176L251 182L252 182L251 176z"/>
<path style="fill:#6a7889; stroke:none;" d="M301 176L302 177L301 176z"/>
<path style="fill:#8b6c51; stroke:none;" d="M296 177L297 178L296 177M297 179L298 180L297 179z"/>
<path style="fill:#6a7889; stroke:none;" d="M303 180L304 181L303 180z"/>
<path style="fill:#8b6c51; stroke:none;" d="M264.333 181.667L264.667 182.333L264.333 181.667M298 181L299 182L298 181M299 183L300 184L299 183M213 184L213 191L214 191L213 184z"/>
<path style="fill:#9e9273; stroke:none;" d="M252 184L252 189L253 189L252 184z"/>
<path style="fill:#8b6c51; stroke:none;" d="M262 185L260 195L261 195L261 189L264 191L265 191L262 185M300 185L301 186L300 185z"/>
<path style="fill:#9e9273; stroke:none;" d="M226 186L226 189L227 189L226 186M271 187L271 194L272 194L271 187z"/>
<path style="fill:#8b6c51; stroke:none;" d="M301 187L302 188L301 187z"/>
<path style="fill:#6a7889; stroke:none;" d="M307 188L308 189L307 188M261 189C261.006 197.632 261.917 207.514 263.465 216C263.846 218.093 265.1 224.699 268.62 222.824C272.346 220.839 270.247 208.056 271 204C265.547 200.897 265.379 194.596 264 189L261 189z"/>
<path style="fill:#8b6c51; stroke:none;" d="M302 189L303 190L302 189z"/>
<path style="fill:#9e9273; stroke:none;" d="M307 189L308 190L307 189z"/>
<path style="fill:#8b6c51; stroke:none;" d="M303.333 190.667L303.667 191.333L303.333 190.667z"/>
<path style="fill:#9e9273; stroke:none;" d="M308.333 190.667L308.667 191.333L308.333 190.667z"/>
<path style="fill:#8b6c51; stroke:none;" d="M212 192L212 198L213 198L212 192z"/>
<path style="fill:#9e9273; stroke:none;" d="M225.333 192.667L225.667 193.333L225.333 192.667M253 192L253 201L254 201L253 192z"/>
<path style="fill:#8b6c51; stroke:none;" d="M265 192L265 197L266 197L265 192M304 192L305 193L304 192z"/>
<path style="fill:#9e9273; stroke:none;" d="M309.333 192.667L309.667 193.333L309.333 192.667z"/>
<path style="fill:#8b6c51; stroke:none;" d="M305 194L306 195L305 194z"/>
<path style="fill:#9e9273; stroke:none;" d="M310 194L311 195L310 194z"/>
<path style="fill:#8b6c51; stroke:none;" d="M306.333 195.667L306.667 196.333L306.333 195.667z"/>
<path style="fill:#9e9273; stroke:none;" d="M224.333 196.667L224.667 197.333L224.333 196.667M310 196L312 203L313 203L310 196z"/>
<path style="fill:#8b6c51; stroke:none;" d="M223 197L223 201L224 201L223 197M261 198L261 202L262 202L261 198M211 199L211 204L212 204L211 199M266 199L267 200L266 199z"/>
<path style="fill:#050403; stroke:none;" d="M309 199L310 203L311 203L309 199z"/>
<path style="fill:#b3c4ca; stroke:none;" d="M312 199L313 200L312 199z"/>
<path style="fill:#9e9273; stroke:none;" d="M223 201L224 202L223 201z"/>
<path style="fill:#8b6c51; stroke:none;" d="M222.333 202.667L222.667 203.333L222.333 202.667M262 202L262 213L263 213L262 202M270.333 202.667L270.667 203.333L270.333 202.667z"/>
<path style="fill:#9e9273; stroke:none;" d="M254 203L254 213L255 213L254 203M313 203L314 204L313 203z"/>
<path style="fill:#b3c4ca; stroke:none;" d="M205 204L206 205L205 204z"/>
<path style="fill:#8b6c51; stroke:none;" d="M210 204L210 208L211 208L210 204z"/>
<path style="fill:#9e9273; stroke:none;" d="M222 204L223 205L222 204z"/>
<path style="fill:#050403; stroke:none;" d="M311 204L312 205L311 204z"/>
<path style="fill:#b3c4ca; stroke:none;" d="M313 204L314 205L313 204z"/>
<path style="fill:#8b6c51; stroke:none;" d="M221.333 205.667L221.667 206.333L221.333 205.667z"/>
<path style="fill:#9e9273; stroke:none;" d="M270 206L270 217L271 217L270 206z"/>
<path style="fill:#b3c4ca; stroke:none;" d="M312 206L313 207L312 206z"/>
<path style="fill:#9e9273; stroke:none;" d="M221 207L222 208L221 207z"/>
<path style="fill:#8b6c51; stroke:none;" d="M220.333 208.667L220.667 209.333L220.333 208.667M209 209L209 213L210 213L209 209M219 211L220 212L219 211z"/>
<path style="fill:#b3c4ca; stroke:none;" d="M313 211L314 212L313 211M204 212L205 213L204 212z"/>
<path style="fill:#9e9273; stroke:none;" d="M219 212L220 213L219 212z"/>
<path style="fill:#8b6c51; stroke:none;" d="M208 213L207 230L208 230L208 213M218 213L219 214L218 213z"/>
<path style="fill:#9e9273; stroke:none;" d="M218 214L219 215L218 214M255 215L255 227L256 227L255 215z"/>
<path style="fill:#8b6c51; stroke:none;" d="M217 216L218 217L217 216M263 216L263 219L264 219L263 216z"/>
<path style="fill:#9e9273; stroke:none;" d="M217 217L218 218L217 217z"/>
<path style="fill:#8b6c51; stroke:none;" d="M216 218L217 219L216 218z"/>
<path style="fill:#6a7889; stroke:none;" d="M216 219L217 220L216 219z"/>
<path style="fill:#9e9273; stroke:none;" d="M216 220L217 221L216 220z"/>
<path style="fill:#8b6c51; stroke:none;" d="M264 220L265 221L264 220z"/>
<path style="fill:#b3c4ca; stroke:none;" d="M204 221L205 222L204 221z"/>
<path style="fill:#8b6c51; stroke:none;" d="M270 221L270 227L271 227L270 221M215.333 222.667L215.667 223.333L215.333 222.667M265 223L265 225L267 225L265 223z"/>
<path style="fill:#9e9273; stroke:none;" d="M215 224C215.001 232.703 215.816 249.105 225 253L223 256L227 260C237.627 259.702 243.945 260.342 249 249C234.82 256.42 223.732 250.717 217.529 236C215.88 232.086 216.598 227.807 215 224z"/>
<path style="fill:#b3c4ca; stroke:none;" d="M205.333 227.667L205.667 228.333L205.333 227.667z"/>
<path style="fill:#9e9273; stroke:none;" d="M271 229L271 235L272 235L271 229M254 230L254 235L255 235L254 230z"/>
<path style="fill:#b3c4ca; stroke:none;" d="M206.333 231.667L206.667 232.333L206.333 231.667z"/>
<path style="fill:#8b6c51; stroke:none;" d="M208.333 232.667L208.667 233.333L208.333 232.667z"/>
<path style="fill:#6a7889; stroke:none;" d="M207 234L208 235L207 234z"/>
<path style="fill:#8b6c51; stroke:none;" d="M215 234L215 237L216 237L215 234M309 234L310 235L309 234z"/>
<path style="fill:#b3c4ca; stroke:none;" d="M311 234L312 235L311 234z"/>
<path style="fill:#6a7889; stroke:none;" d="M271.333 235.667L271.667 236.333L271.333 235.667z"/>
<path style="fill:#8b6c51; stroke:none;" d="M308 236L304 246L305 246L308 236z"/>
<path style="fill:#b3c4ca; stroke:none;" d="M310 236L311 237L310 236z"/>
<path style="fill:#8b6c51; stroke:none;" d="M271.333 237.667L271.667 238.333L271.333 237.667z"/>
<path style="fill:#9e9273; stroke:none;" d="M253.333 238.667L253.667 239.333L253.333 238.667z"/>
<path style="fill:#8b6c51; stroke:none;" d="M216 239L217 240L216 239z"/>
<path style="fill:#9e9273; stroke:none;" d="M272 239L272 242L273 242L272 239z"/>
<path style="fill:#6a7889; stroke:none;" d="M308 240L309 241L308 240z"/>
<path style="fill:#8b6c51; stroke:none;" d="M217.333 241.667L217.667 242.333L217.333 241.667z"/>
<path style="fill:#9e9273; stroke:none;" d="M252.333 241.667L252.667 242.333L252.333 241.667M307 241L308 242L307 241z"/>
<path style="fill:#8b6c51; stroke:none;" d="M272.333 242.667L272.667 243.333L272.333 242.667z"/>
<path style="fill:#6a7889; stroke:none;" d="M304 242L305 243L304 242M307 242L308 243L307 242z"/>
<path style="fill:#9e9273; stroke:none;" d="M306 243L307 244L306 243z"/>
<path style="fill:#8b6c51; stroke:none;" d="M218 244L219 245L218 244z"/>
<path style="fill:#9e9273; stroke:none;" d="M251.333 244.667L251.667 245.333L251.333 244.667z"/>
<path style="fill:#8b6c51; stroke:none;" d="M273 244L274 245L273 244z"/>
<path style="fill:#9e9273; stroke:none;" d="M305 244L306 245L305 244z"/>
<path style="fill:#8b6c51; stroke:none;" d="M274 245L276 248L274 245z"/>
<path style="fill:#6a7889; stroke:none;" d="M303.333 245.667L303.667 246.333L303.333 245.667z"/>
<path style="fill:#8b6c51; stroke:none;" d="M219 246L219 249L220 249L219 246z"/>
<path style="fill:#9e9273; stroke:none;" d="M250.333 246.667L250.667 247.333L250.333 246.667z"/>
<path style="fill:#8b6c51; stroke:none;" d="M278 247L274 258L280 259L278 247z"/>
<path style="fill:#9e9273; stroke:none;" d="M249 248L250 249L249 248z"/>
<path style="fill:#8b6c51; stroke:none;" d="M276 248L277 249L276 248M277 249L278 250L277 249z"/>
<path style="fill:#b3c4ca; stroke:none;" d="M300 249L300 251L302 249L300 249z"/>
<path style="fill:#6a7889; stroke:none;" d="M298 250L299 251L298 250M280 257L280 258L289 256L289 257L275 265L275 266L278 266C276.073 268.755 275.092 270.114 277 273L269 286L275 285C278.179 269.73 289.15 262.572 298 251L280 257z"/>
<path style="fill:#b3c4ca; stroke:none;" d="M299 251L298 253L300 253L299 251z"/>
<path style="fill:#6a7889; stroke:none;" d="M221 252L225 255L221 252z"/>
<path style="fill:#b3c4ca; stroke:none;" d="M277 287L260 288L262 285C255.307 277.566 248.768 266.183 238 263.887C231.055 262.405 226.925 268.707 221.17 270.694C200.261 277.91 182.206 295.262 166 310.986C158.053 318.697 138.484 327.234 138.294 339.999C138.157 349.193 155.019 352.99 162 355L161 353L162 353L163 357C181.632 368.767 206.51 369.015 228 372C262.79 376.832 297.197 384.166 332 389C349.716 391.461 370.347 392.647 387 398C387 394.67 402.404 398.6 406 399C420.38 400.598 434.597 403.6 449 405C454.589 405.543 461.384 407.383 467 405.667C472.269 404.057 476.204 400.563 482 400C488.662 399.352 494.542 402.357 501 398.5C519.857 387.238 531.839 359.299 544.333 342C549.524 334.812 565.193 314.157 556.833 305.167C551.836 299.792 538.791 299.987 532 298.667C509.493 294.29 486.544 293.153 464 289L465 294L463 296L462 296L460 293L461 300L460 300L459 294L455 294C455.033 306.072 461.485 322.509 457 334L460 340L463 336L464 336C469.477 341.231 470.212 328.558 471 326L469 327L469 326L467 318L469 318L466 313L468 313L464 300L465 300L465 302L466 302L465 295L466 295C468.114 301.5 468.924 313.379 473.564 318.387C476.204 321.236 480.335 322.027 484 322.571C493.786 324.023 513.744 327.716 522 322L523 323C516.456 332.701 498.716 351.022 500 363C491.823 364.455 486.48 382.005 478.961 387.03C469.051 393.652 456.631 387.868 446 387L446 386L462 381L462 380L435.91 384.455L403 379.414L360.054 371.852L351 365L354 371L287 361C289.342 354.627 300.767 352.97 307 352L306 350L307 350L309 351L310 351L315 344L324 346L324 344L328 345L328 341L313 339C318.814 330.063 318.561 317.941 307 314L307 313L323 323L328 320C337.402 320.61 351.825 311.719 360 318L370 318L374 305L376 301L375 298C379.049 296.861 378.408 294.456 377 291L379 292L389 280L357 275.551L342 273L334 272L319 270L301 270L302 268L283 268L283 267L287 267L298 253C284.623 259.201 277.009 272.723 277 287z"/>
<path style="fill:#6a7889; stroke:none;" d="M225 255L227 257L225 255z"/>
<path style="fill:#8b6c51; stroke:none;" d="M289 255L290 256L289 255z"/>
<path style="fill:#9e9273; stroke:none;" d="M293 255L294 256L293 255M292 256L293 257L292 256z"/>
<path style="fill:#b3c4ca; stroke:none;" d="M225 257L226 258L225 257z"/>
<path style="fill:#8b6c51; stroke:none;" d="M283 257L284 258L283 257z"/>
<path style="fill:#9e9273; stroke:none;" d="M291 257L292 258L291 257z"/>
<path style="fill:#b3c4ca; stroke:none;" d="M226.667 258.333L227.333 258.667L226.667 258.333z"/>
<path style="fill:#9e9273; stroke:none;" d="M290 258L291 259L290 258z"/>
<path style="fill:#b3c4ca; stroke:none;" d="M229 259L232 261L232 260L229 259z"/>
<path style="fill:#6a7889; stroke:none;" d="M233 262C225.812 260.861 215.62 264.389 212 271C216.693 268.809 221.017 265.774 226 264.221C242.219 259.165 250.471 273.845 261 283L255 270L258 269L258 268L241 260L233 262z"/>
<path style="fill:#050403; stroke:none;" d="M231 261L232 262L231 261z"/>
<path style="fill:#8b6c51; stroke:none;" d="M232 261L233 262L232 261z"/>
<path style="fill:#9e9273; stroke:none;" d="M234 261L235 262L234 261M151 324L211 273.826L221.985 270.799L237 263C229.492 261.198 221.547 265.557 215.09 268.886C197.849 277.773 182.126 292.947 167.961 306.174C162.391 311.375 154.28 317.074 151 324M238 263L239 264L238 263M240 264L241 265L240 264M218 265L219 266L218 265M241.667 265.333L242.333 265.667L241.667 265.333M217 266L218 267L217 266M243 266L244 267L243 266z"/>
<path style="fill:#6a7889; stroke:none;" d="M261 267L261 269L265 267L272 267L261 267M273.667 266.333L274.333 266.667L273.667 266.333z"/>
<path style="fill:#9e9273; stroke:none;" d="M283 267L283 268L298 269L283 267M244 267L245 268L244 267z"/>
<path style="fill:#6a7889; stroke:none;" d="M284 267L285 268L284 267z"/>
<path style="fill:#b3c4ca; stroke:none;" d="M293 267L294 268L293 267z"/>
<path style="fill:#6a7889; stroke:none;" d="M259 268L260 269L259 268z"/>
<path style="fill:#9e9273; stroke:none;" d="M301 269L301 270L315 271L301 269z"/>
<path style="fill:#b3c4ca; stroke:none;" d="M303 268L304 269L303 268z"/>
<path style="fill:#9e9273; stroke:none;" d="M247 269L248 270L247 269z"/>
<path style="fill:#6a7889; stroke:none;" d="M267 269L271 271L267 269M262 270L262 272L264 270L262 270z"/>
<path style="fill:#9e9273; stroke:none;" d="M316 270L317 271L316 270z"/>
<path style="fill:#6a7889; stroke:none;" d="M209 271L210 272L209 271z"/>
<path style="fill:#9e9273; stroke:none;" d="M318 271L318 272L323 272L318 271M251 272L252 273L251 272z"/>
<path style="fill:#6a7889; stroke:none;" d="M270 272L268 273L268 274L270 272z"/>
<path style="fill:#9e9273; stroke:none;" d="M331.667 272.333L332.333 272.667L331.667 272.333M334 273L334 274L338 274L334 273M339.667 273.333L340.333 273.667L339.667 273.333M278 274L279 275L278 274M342 274L342 275L349 275L342 274M254 275L255 276L254 275z"/>
<path style="fill:#8b6c51; stroke:none;" d="M258 277L268 286L269 286L275 275L258 277z"/>
<path style="fill:#9e9273; stroke:none;" d="M352 275L352 276L355 276L352 275M255 276L256 277L255 276M277.333 276.667L277.667 277.333L277.333 276.667M388 279L387 282L387 283L391 287L385 290L387 284L383 285L382 290L382 287L377 292C377.726 295.104 377.733 296.281 375 298L376 301C373.149 301.614 373.146 302.303 374 305L372 310L377 307L375 319C381.713 314.172 385.211 307.372 394 306L394 307C389.724 307.931 386.223 309.289 386 314L383 318L384 318L405 301C410.475 301.004 416.818 300.894 420 306L424 305C423.298 308.158 422.984 309.492 426 311L425 307L431 312L415 295L417 297L418 297L420 294L419 297L427 296L418 287C403.277 287.904 395.384 289.677 382 296L388 292C397.37 280.141 418.208 283.603 430 290L428 284L425 285L424 282L421 282L421 285L418 282L420 280L415 279L417 283L409 283L413 278L410 277L407 279L409 276L388 279z"/>
<path style="fill:#b3c4ca; stroke:none;" d="M405 276L406 277L405 276z"/>
<path style="fill:#6a7889; stroke:none;" d="M409 276L410 277L409 276z"/>
<path style="fill:#8b6c51; stroke:none;" d="M410 276L411 277L410 276z"/>
<path style="fill:#b3c4ca; stroke:none;" d="M396 277L397 278L396 277z"/>
<path style="fill:#8b6c51; stroke:none;" d="M407 279L410 277L407 279z"/>
<path style="fill:#b3c4ca; stroke:none;" d="M412 277L409 283L417 283L417 278L412 277z"/>
<path style="fill:#9e9273; stroke:none;" d="M257.333 278.667L257.667 279.333L257.333 278.667z"/>
<path style="fill:#8b6c51; stroke:none;" d="M399 278L399 279L399 280L404 279L404 278L399 278z"/>
<path style="fill:#6a7889; stroke:none;" d="M199 279L200 280L199 279M389 279L390 280L389 279z"/>
<path style="fill:#b3c4ca; stroke:none;" d="M390 285L394 285L399 279C394.642 279.693 392.004 280.99 390 285z"/>
<path style="fill:#9e9273; stroke:none;" d="M276 280L275 285L271 285L271 286L277 287L276 280z"/>
<path style="fill:#8b6c51; stroke:none;" d="M402 280L402 281L405 281L402 280M409 280L410 281L409 280z"/>
<path style="fill:#6a7889; stroke:none;" d="M197 281L198 282L197 281z"/>
<path style="fill:#9e9273; stroke:none;" d="M258 281L259 282L258 281z"/>
<path style="fill:#b3c4ca; stroke:none;" d="M407 281L408 282L407 281z"/>
<path style="fill:#8b6c51; stroke:none;" d="M418 282L421 285L421 281L418 282z"/>
<path style="fill:#9e9273; stroke:none;" d="M259 282L260 283L259 282M267 282L268 283L267 282z"/>
<path style="fill:#8b6c51; stroke:none;" d="M388 282L389 283L388 282z"/>
<path style="fill:#b3c4ca; stroke:none;" d="M422 282L423 283L422 282z"/>
<path style="fill:#9e9273; stroke:none;" d="M260 283L266 286L266 285L260 283z"/>
<path style="fill:#6a7889; stroke:none;" d="M262 283L262 284L266 285L266 286L261 286L261 288L268 287L262 283M276 283L277 284L276 283z"/>
<path style="fill:#8b6c51; stroke:none;" d="M386.667 283.333L387.333 283.667L386.667 283.333z"/>
<path style="fill:#9e9273; stroke:none;" d="M393 283L394 284L393 283z"/>
<path style="fill:#8b6c51; stroke:none;" d="M394.667 283.333L395.333 283.667L394.667 283.333M398 284L398 285L402 286L402 287L398 287L398 288L418 287L427 296L415 295L431 312L425 307L435 318L436 324L437 324L432.361 301L430 295C430.994 283.18 406.088 284.067 398 284z"/>
<path style="fill:#b3c4ca; stroke:none;" d="M424 283L427 285L424 283z"/>
<path style="fill:#6a7889; stroke:none;" d="M193 284L194 285L193 284z"/>
<path style="fill:#8b6c51; stroke:none;" d="M385 284L386 285L385 284z"/>
<path style="fill:#b3c4ca; stroke:none;" d="M385 290L391 287L389 284L385 290M428 284L435 307L436 307C436.006 297.213 439.925 294.099 444 286L428 284z"/>
<path style="fill:#050403; stroke:none;" d="M390 291L402 287C397.619 284.188 392.555 286.891 390 291z"/>
<path style="fill:#b3c4ca; stroke:none;" d="M445 286L447 299L446 299L441 294C437.572 305.783 442.707 320.781 446 332L448 330L449 330L451 331L451 339C456.045 335.362 454.62 328.066 449 326L449 323L453 323L450.924 299L449 289L450 285L445 286M453 285L456 288L453 285z"/>
<path style="fill:#9e9273; stroke:none;" d="M260.333 286.667L260.667 287.333L260.333 286.667M268 286L269 287L268 286z"/>
<path style="fill:#8b6c51; stroke:none;" d="M381 289L384 286L381 289M395 286L396 287L395 286z"/>
<path style="fill:#9e9273; stroke:none;" d="M442 286L443 287L442 286z"/>
<path style="fill:#8b6c51; stroke:none;" d="M449 286C449.662 289.15 451.338 289.15 452 286L451 286L449 286z"/>
<path style="fill:#9e9273; stroke:none;" d="M452 286L451 290C454.455 290 454 295.112 454 298L455 298L455 294L459 294L460 300L461 300L460 293L462 296L463 296L465 294L464 289L461 287L456 286L456 288L452 286z"/>
<path style="fill:#b3c4ca; stroke:none;" d="M458 286L460 288L460 286L458 286z"/>
<path style="fill:#8b6c51; stroke:none;" d="M392 287L393 288L392 287z"/>
<path style="fill:#9e9273; stroke:none;" d="M436 298L441 323L442 323L441 294L446 299L447 299L447 287C441.032 288.553 437.989 292.325 436 298z"/>
<path style="fill:#8b6c51; stroke:none;" d="M390.667 288.333L391.333 288.667L390.667 288.333M395 288L396 289L395 288z"/>
<path style="fill:#b3c4ca; stroke:none;" d="M404 290L383 297L382 298L384 299L379 309L396 295L398 297L401 296L407 295L422 293C418.476 289.034 408.226 285.805 404 290M461 288L463 290L463 288L461 288M382 289L383 290L382 289z"/>
<path style="fill:#8b6c51; stroke:none;" d="M389 289L388 292L382 296C385.449 294.895 389.902 293.203 389 289M393 289L394 290L393 289M444 289L445 290L444 289z"/>
<path style="fill:#6a7889; stroke:none;" d="M452 289L453 290L452 289z"/>
<path style="fill:#8b6c51; stroke:none;" d="M458.333 289.667L458.667 290.333L458.333 289.667z"/>
<path style="fill:#b3c4ca; stroke:none;" d="M384 290L385 291L384 290z"/>
<path style="fill:#8b6c51; stroke:none;" d="M391.667 290.333L392.333 290.667L391.667 290.333z"/>
<path style="fill:#9e9273; stroke:none;" d="M402 290L401 293L402 293L402 290z"/>
<path style="fill:#050403; stroke:none;" d="M428 290L429 291L428 290z"/>
<path style="fill:#8b6c51; stroke:none;" d="M452 290L453 295L454 295L452 290z"/>
<path style="fill:#6a7889; stroke:none;" d="M185 291L186 292L185 291z"/>
<path style="fill:#8b6c51; stroke:none;" d="M377 291L378 292L377 291z"/>
<path style="fill:#9e9273; stroke:none;" d="M449 291L450 292L449 291z"/>
<path style="fill:#8b6c51; stroke:none;" d="M379 292L380 293L379 292z"/>
<path style="fill:#9e9273; stroke:none;" d="M397.667 292.333L398.333 292.667L397.667 292.333M431 292L432 293L431 292z"/>
<path style="fill:#b3c4ca; stroke:none;" d="M455 292L456 293L455 292z"/>
<path style="fill:#9e9273; stroke:none;" d="M410 293L411 294L410 293z"/>
<path style="fill:#8b6c51; stroke:none;" d="M411 293L412 294L411 293z"/>
<path style="fill:#050403; stroke:none;" d="M430.333 293.667L430.667 294.333L430.333 293.667z"/>
<path style="fill:#6a7889; stroke:none;" d="M431 293L432 294L431 293z"/>
<path style="fill:#9e9273; stroke:none;" d="M451 293L452 294L451 293z"/>
<path style="fill:#6a7889; stroke:none;" d="M181 294L182 295L181 294z"/>
<path style="fill:#8b6c51; stroke:none;" d="M404 294L405 295L404 294M410 294L411 295L410 294z"/>
<path style="fill:#b3c4ca; stroke:none;" d="M418 294L418 296L420 294L418 294z"/>
<path style="fill:#8b6c51; stroke:none;" d="M450.333 294.667L450.667 295.333L450.333 294.667z"/>
<path style="fill:#050403; stroke:none;" d="M451 294L455 333L456 333C459.088 322.552 456.072 304.371 453 294L451 294z"/>
<path style="fill:#8b6c51; stroke:none;" d="M411 297L414 295L411 297z"/>
<path style="fill:#9e9273; stroke:none;" d="M465 295L466 302L465 302L465 300L464 300L467 303L467 307L468 307L465 295z"/>
<path style="fill:#8b6c51; stroke:none;" d="M381 296L380 300L381 300L381 296M405 296L406 297L405 296M409 296L410 297L409 296z"/>
<path style="fill:#9e9273; stroke:none;" d="M432 296L433 297L432 296M450 296L451 297L450 296z"/>
<path style="fill:#8b6c51; stroke:none;" d="M399.667 297.333L400.333 297.667L399.667 297.333z"/>
<path style="fill:#050403; stroke:none;" d="M431 297C431.871 301.08 430.653 305.081 431.472 309C433.004 316.322 438.476 321.705 436.646 329.999C434.611 339.218 419.679 342.547 412 341C409.642 345.276 406.424 345.038 402 344L402 339L399 342L394 341L393 344L383 342L374 336C375.184 359.065 399.187 364.112 417.91 359.585C423.778 358.166 438.159 365.109 438 355C442.002 354.419 445.093 352.044 449 351.188C461.913 348.358 471.8 350.27 473 334C468.429 336.326 461.895 338.618 461 344L460 344L458 335L456 335C455.537 341.063 447.304 345.331 443.638 338.851C439.322 331.223 437.376 316.724 437 308L436 308L436 312L435 312C434.985 306.52 434.937 301.149 431 297z"/>
<path style="fill:#6a7889; stroke:none;" d="M432 297L433 298L432 297z"/>
<path style="fill:#8b6c51; stroke:none;" d="M407 298L407 299L411 299L407 298z"/>
<path style="fill:#b3c4ca; stroke:none;" d="M412 298L414 300L414 298L412 298z"/>
<path style="fill:#6a7889; stroke:none;" d="M436 298L436 303L437 303L436 298z"/>
<path style="fill:#8b6c51; stroke:none;" d="M437 298L438 299L437 298M454 298L454 304L455 304L454 298z"/>
<path style="fill:#b3c4ca; stroke:none;" d="M405.667 299.333L406.333 299.667L405.667 299.333M415 299L416 300L415 299z"/>
<path style="fill:#050403; stroke:none;" d="M427 299L427 301L429 299L427 299z"/>
<path style="fill:#6a7889; stroke:none;" d="M433 299L434 300L433 299z"/>
<path style="fill:#9e9273; stroke:none;" d="M456 299L457 300L456 299z"/>
<path style="fill:#b3c4ca; stroke:none;" d="M398.333 300.667L398.667 301.333L398.333 300.667z"/>
<path style="fill:#8b6c51; stroke:none;" d="M403 300L404 301L403 300M451.333 300.667L451.667 301.333L451.333 300.667z"/>
<path style="fill:#9e9273; stroke:none;" d="M458 302L461 302L460 300L458 302z"/>
<path style="fill:#6a7889; stroke:none;" d="M467 300L468 301L467 300z"/>
<path style="fill:#b3c4ca; stroke:none;" d="M393 301L389 303L389 304L393 301z"/>
<path style="fill:#8b6c51; stroke:none;" d="M395 301L396 302L395 301M405 301L408 303L405 301z"/>
<path style="fill:#050403; stroke:none;" d="M407 301L407 302L416 304L407 301z"/>
<path style="fill:#8b6c51; stroke:none;" d="M414 301L415 302L414 301z"/>
<path style="fill:#b3c4ca; stroke:none;" d="M418 301L419 302L418 301z"/>
<path style="fill:#6a7889; stroke:none;" d="M434 301L434 304L435 304L434 301M547 301L548 302L547 301z"/>
<path style="fill:#8b6c51; stroke:none;" d="M374 302L375 303L374 302M399 302L399 303L403 303L399 302M415 302L416 303L415 302M437 302C434.633 310.609 438.938 324.467 441.22 333C442.245 336.834 443.079 340.626 447 342L437 302z"/>
<path style="fill:#9e9273; stroke:none;" d="M451.333 302.667L451.667 303.333L451.333 302.667M455 302L455 306L456 306L455 302z"/>
<path style="fill:#b3c4ca; stroke:none;" d="M378.333 303.667L378.667 304.333L378.333 303.667z"/>
<path style="fill:#8b6c51; stroke:none;" d="M396.667 303.333L397.333 303.667L396.667 303.333z"/>
<path style="fill:#b3c4ca; stroke:none;" d="M383 318L386 314C386.562 309.669 390.178 308.318 394 307L394 306C387.656 306.571 368.052 319.23 377 326L377 327C373.139 327.832 373.993 332.065 376.333 334.75C379.227 338.07 383.924 338.589 388 339L387 332L388 331L391 332L390 328L393 327L394 330L395 330L397 327L401 331L402 324L401 332L401 333L405 333L407 330L407 335L404 336L404 338L409 340L408 336C416.545 341.765 426.969 335.089 436 333L430 325L435 325C432.796 310.364 417.077 305.108 404 305L404 304L408 304C398.297 300.337 389.008 312.796 383 318z"/>
<path style="fill:#9e9273; stroke:none;" d="M404 304L404 305L418 307L414 303L404 304z"/>
<path style="fill:#b3c4ca; stroke:none;" d="M409 303L410 304L409 303z"/>
<path style="fill:#6a7889; stroke:none;" d="M411.667 303.333L412.333 303.667L411.667 303.333z"/>
<path style="fill:#8b6c51; stroke:none;" d="M414 303L415 304L414 303M416 303L424 309L424 305L420 306L416 303z"/>
<path style="fill:#b3c4ca; stroke:none;" d="M422 303L423 304L422 303z"/>
<path style="fill:#9e9273; stroke:none;" d="M459 303L461 305L461 303L459 303z"/>
<path style="fill:#6a7889; stroke:none;" d="M468 303L469 304L468 303z"/>
<path style="fill:#b3c4ca; stroke:none;" d="M414 304L415 305L414 304z"/>
<path style="fill:#8b6c51; stroke:none;" d="M468 304L470 315L469 319L471 321L472 321L468 304z"/>
<path style="fill:#b3c4ca; stroke:none;" d="M426 306L429 309L426 306z"/>
<path style="fill:#8b6c51; stroke:none;" d="M452 306L452 309L453 309L452 306M455 306L455 312L456 312L455 306z"/>
<path style="fill:#9e9273; stroke:none;" d="M469 306L470 307L469 306M268 307L270 309L270 307L268 307M271 307L271 308L275 308L271 315L264 310L264 309L267 309L267 308C262.119 308.39 261.754 310.524 261 315L263 317L264 317C265.66 314.082 266.854 314.069 270 315L270 316L265 318L270 316L271 316C274.822 318.495 278.202 316.988 282 315L282 314L272 315C277.038 314.337 280.468 312.531 280 307L271 307z"/>
<path style="fill:#8b6c51; stroke:none;" d="M374 307L375 308L374 307M376 307C373.558 309.698 371.536 312.479 375 315L376 307z"/>
<path style="fill:#9e9273; stroke:none;" d="M419 307L420 308L419 307M435 307L436 308L435 307z"/>
<path style="fill:#6a7889; stroke:none;" d="M438 307L439 308L438 307z"/>
<path style="fill:#9e9273; stroke:none;" d="M458 307L459 308L458 307z"/>
<path style="fill:#6a7889; stroke:none;" d="M469 307L470 308L469 307z"/>
<path style="fill:#9e9273; stroke:none;" d="M535 307L511 344C519.12 337.448 525.678 327.599 531.505 319C534.057 315.233 537.949 311.332 535 307z"/>
<path style="fill:#6a7889; stroke:none;" d="M264 309L264 310L271 315L271 312L275 308L264 309z"/>
<path style="fill:#9e9273; stroke:none;" d="M421 308L422 309L421 308z"/>
<path style="fill:#6a7889; stroke:none;" d="M435.333 308.667L435.667 309.333L435.333 308.667z"/>
<path style="fill:#9e9273; stroke:none;" d="M467 308L467 312L469 312L469 308L467 308z"/>
<path style="fill:#6a7889; stroke:none;" d="M276 309L277 310L276 309z"/>
<path style="fill:#050403; stroke:none;" d="M376 309L375 315L372 314L373 320L374 320L376 309z"/>
<path style="fill:#9e9273; stroke:none;" d="M452 309L453 310L452 309M456 309L456 314L457 314L456 309z"/>
<path style="fill:#6a7889; stroke:none;" d="M372 310L373 311L372 310z"/>
<path style="fill:#8b6c51; stroke:none;" d="M435.333 310.667L435.667 311.333L435.333 310.667z"/>
<path style="fill:#9e9273; stroke:none;" d="M460 310L461 311L460 310M470 310L471 311L470 310M372 311L373 312L372 311M427 311L428 312L427 311z"/>
<path style="fill:#6a7889; stroke:none;" d="M470 311L471 312L470 311M276 312L275 314L276 312M372 312L373 313L372 312z"/>
<path style="fill:#b3c4ca; stroke:none;" d="M378 312L379 313L378 312z"/>
<path style="fill:#9e9273; stroke:none;" d="M428 312L429 313L428 312z"/>
<path style="fill:#6a7889; stroke:none;" d="M281 313L282 314L281 313z"/>
<path style="fill:#9e9273; stroke:none;" d="M307 313L307 314C318.454 319.959 317.732 328.801 313 339L328 341L328 345L324 344L324 346L315 344L310 351L306 350L307 352C301.31 351.734 288.335 354.878 287 361L354 371L351 365C359.945 371.695 365.267 372.128 376 375L376 374L359 364L361 362L360 358L358 359L359 356L358 352L359 352C361.058 358.261 365.94 360.267 372 362L372 360L381 363L382 362C378.177 352.867 373.035 346.307 373 336L364 341L374 332L376 335C375.113 331.719 374.042 329.162 377 327L377 326L375 321L372 316L360 318C353.953 310.973 336.112 320.072 328 320L323 323C320.139 317.784 312.808 313.844 307 313M346 315L349 315L348 313L346 315M429 313L430 314L429 313M461 313L462 314L461 313M466 313L467 316L468 316L468 313L466 313M371 314L372 315L371 314z"/>
<path style="fill:#8b6c51; stroke:none;" d="M376.333 314.667L376.667 315.333L376.333 314.667z"/>
<path style="fill:#9e9273; stroke:none;" d="M430 314L431 315L430 314z"/>
<path style="fill:#8b6c51; stroke:none;" d="M453 314L453 318L454 318L453 314M456 314L456 318L457 318L456 314z"/>
<path style="fill:#9e9273; stroke:none;" d="M471 314L471 317L472 317L471 314z"/>
<path style="fill:#b3c4ca; stroke:none;" d="M158 315L159 316L158 315z"/>
<path style="fill:#6a7889; stroke:none;" d="M262 315L263 316L262 315M371 315L372 316L371 315z"/>
<path style="fill:#8b6c51; stroke:none;" d="M384 315L384 318L386 315L384 315z"/>
<path style="fill:#9e9273; stroke:none;" d="M431 315L432 316L431 315M457 315L458 316L457 315M461 315L462 318L461 315M469 315L468 317L470 317L469 315z"/>
<path style="fill:#6a7889; stroke:none;" d="M270 316L273 318L273 317L270 316z"/>
<path style="fill:#9e9273; stroke:none;" d="M282 318L268 325L272 325L272 326L268 326L268 327C275.622 326.979 284.556 326.56 287 318L299 322C297.61 324.316 295.872 324.374 299 325L299 326L284 332L284 333L295 334L294 329L301 331L295 335C292.076 341.212 287.885 339.747 282 339L282 340L285 340L285 343L285 344C276.817 345.681 271.989 347.541 264 344L264 347L251 341L251 340L255 339L250 334L261 336C258.2 330.596 253.352 327.511 255 321L257 323L258 323L258 317C255.385 318.556 252.833 321.377 249.91 322.242C238.543 325.602 224.815 320.477 224 338L225 338L232 328C229.018 340.678 240.957 332.999 248 331L246 352L246 353L250 352C254.352 357.006 269.133 355.734 275 354L275 353L268 352L268 351L273 350L273 349L271 349L271 348L282 350L288 343L287 346L288 347L307 341C308.027 335.877 308.711 331.802 314 330L311 335C316.362 330.577 317.445 322.207 309.957 319.01C302.375 315.773 289.835 317.425 282 318M432 316L433 317L432 316M466 316L467 317L466 316z"/>
<path style="fill:#b3c4ca; stroke:none;" d="M156 317L157 318L156 317z"/>
<path style="fill:#6a7889; stroke:none;" d="M267 317L268 318L267 317M372 317L372 320L373 320L372 317z"/>
<path style="fill:#8b6c51; stroke:none;" d="M375 317L376 318L375 317z"/>
<path style="fill:#9e9273; stroke:none;" d="M380 317L381 318L380 317z"/>
<path style="fill:#6a7889; stroke:none;" d="M471 317C475.066 325.346 482.755 328.6 483 339L482 339L482 334L472 327L471 333C477.298 333 469.656 345.963 467 347.833C461.279 351.862 452.357 349.126 446 351.333C442.916 352.404 441.387 354.643 438 355C435.642 364.764 425.712 357.88 419 359.046C399.916 362.362 377.558 360.648 374 337L373 337C373.033 346.817 377.12 353.726 382 362L381 363L372 360L372 362L360 357L359 364C383.455 382.079 423.546 386.676 452 376.938C461.612 373.648 473.81 370.693 479 361C481.604 360.813 482.222 360.413 481 358L486 350L483 351C481.695 343.989 487.686 342.756 488.238 336.947C488.946 329.483 475.985 321.039 471 317z"/>
<path style="fill:#9e9273; stroke:none;" d="M259 318L263 324L264 320L259 318z"/>
<path style="fill:#6a7889; stroke:none;" d="M287 318L281 325L281 326L289 323L282 332L282 333C288.146 330.738 295.385 327.7 299 322L287 318M289 318L290 319L289 318z"/>
<path style="fill:#8b6c51; stroke:none;" d="M374.333 318.667L374.667 319.333L374.333 318.667z"/>
<path style="fill:#9e9273; stroke:none;" d="M408 318L409 319L408 318M433 318L434 319L433 318z"/>
<path style="fill:#050403; stroke:none;" d="M434 318L435 319L434 318z"/>
<path style="fill:#9e9273; stroke:none;" d="M449 318L450 319L449 318M453 318L453 323L449 323L449 326L454 331L455 331L451 326L451 325C453.824 323.171 454.263 321.117 453 318z"/>
<path style="fill:#6a7889; stroke:none;" d="M456 318L457 319L456 318z"/>
<path style="fill:#9e9273; stroke:none;" d="M467 318L469 327L471 326L469 328L470 332L472 327L482 334L482 339L483 339C482.932 331.42 479.694 321.801 471 321L467 318M472 318L473 319L472 318z"/>
<path style="fill:#b3c4ca; stroke:none;" d="M361 319L362 320L361 319z"/>
<path style="fill:#8b6c51; stroke:none;" d="M456.333 319.667L456.667 320.333L456.333 319.667z"/>
<path style="fill:#9e9273; stroke:none;" d="M473.667 319.333L474.333 319.667L473.667 319.333z"/>
<path style="fill:#b3c4ca; stroke:none;" d="M285 320L286 321L285 320z"/>
<path style="fill:#6a7889; stroke:none;" d="M373 320L373 322L375 320L373 320z"/>
<path style="fill:#9e9273; stroke:none;" d="M378 320L377 323L378 323L378 320M434.333 320.667L434.667 321.333L434.333 320.667M460 320L462 322L462 320L460 320M475 320L478 322L475 320z"/>
<path style="fill:#6a7889; stroke:none;" d="M255 321C253.296 324.991 253.755 327.106 257 330L260 327C261.732 329.669 262.942 329.71 266 329L266 328L263 329L257 321L255 321z"/>
<path style="fill:#9e9273; stroke:none;" d="M291 321L292 322L291 321M395 321L395 322L398 323L398 322L398 321L395 321z"/>
<path style="fill:#8b6c51; stroke:none;" d="M396 321L397 322L396 321z"/>
<path style="fill:#050403; stroke:none;" d="M435 321L436 322L435 321z"/>
<path style="fill:#9e9273; stroke:none;" d="M457 321L457 325L458 325L457 321M400 322L401 323L400 322M467 322L468 323L467 322z"/>
<path style="fill:#6a7889; stroke:none;" d="M472 322L473 323L472 322z"/>
<path style="fill:#9e9273; stroke:none;" d="M478 322C480.504 326.223 488.44 331.711 487.728 336.947C487.235 340.578 483.049 342.229 482.453 345.998C481.962 349.102 483.327 350.047 486 350L481 358L483 360L479 361C468.357 374.158 443.611 382.276 427 383L427 384L462 380L462 381L446 386L446 387C456.834 388.459 471.097 394.023 480.83 386.362C487.47 381.136 492.37 364.987 500 363C500.615 348.939 517.095 335.483 523 323L522 322C509.675 328.138 491.388 322.276 478 322z"/>
<path style="fill:#b3c4ca; stroke:none;" d="M235 323L232 328L233 328L235 323z"/>
<path style="fill:#8b6c51; stroke:none;" d="M277 328L278 332L260 327L256 328C262.727 340.583 286.639 337.554 289 323L277 328z"/>
<path style="fill:#9e9273; stroke:none;" d="M404 323L404 325L406 325L406 323L404 323M435 323L434 326L435 323z"/>
<path style="fill:#8b6c51; stroke:none;" d="M454 323L454 328L455 328L454 323z"/>
<path style="fill:#b3c4ca; stroke:none;" d="M251 324L252 325L251 324z"/>
<path style="fill:#9e9273; stroke:none;" d="M258 324L259 325L258 324z"/>
<path style="fill:#b3c4ca; stroke:none;" d="M275 325L275 326L280 325L275 325M301 324L303 329L304 329L301 324M307 325C309.254 327.254 311.27 327.407 312 324L307 325M323 324L323 328L327 329L323 324M370 324L369 326L370 324z"/>
<path style="fill:#9e9273; stroke:none;" d="M402 324L403 325L402 324M411 324L412 325L411 324M432 324C430.415 326.498 430.486 327.396 433 329L432 324M442 324L447 342L449 340L454 341L454 338L451 339L451 332L451 331L446 332L442 324z"/>
<path style="fill:#b3c4ca; stroke:none;" d="M453.333 324.667L453.667 325.333L453.333 324.667z"/>
<path style="fill:#8b6c51; stroke:none;" d="M255 325L256 326L255 325z"/>
<path style="fill:#9e9273; stroke:none;" d="M259 325L260 326L259 325z"/>
<path style="fill:#b3c4ca; stroke:none;" d="M296 325L296 326L299 326L296 325z"/>
<path style="fill:#8b6c51; stroke:none;" d="M401 325L402 329L403 329L401 325M432 325L436 329L436 333L437 333L437 325L432 325M451.667 325.333L452.333 325.667L451.667 325.333z"/>
<path style="fill:#6a7889; stroke:none;" d="M457.333 325.667L457.667 326.333L457.333 325.667M267 327L267 328L278 332L277 328L280 327L267 327M364 326L363 328L364 326z"/>
<path style="fill:#b3c4ca; stroke:none;" d="M367 326C360.658 332.361 357.026 336.838 357 346L358 346L359 338L360 338L361 340L364 336L361 334L372 330L372 329L364 333L367 326z"/>
<path style="fill:#9e9273; stroke:none;" d="M401 326L402 327L401 326M406 326L405 328L407 328L406 326z"/>
<path style="fill:#b3c4ca; stroke:none;" d="M431 326L432 327L431 326z"/>
<path style="fill:#9e9273; stroke:none;" d="M448 326L448 329L449 329L448 326M462 326L463 327L462 326M262 327L263 328L262 327M266 327L267 328L266 327z"/>
<path style="fill:#b3c4ca; stroke:none;" d="M295 327L296 328L295 327z"/>
<path style="fill:#6a7889; stroke:none;" d="M371 327L372 328L371 327z"/>
<path style="fill:#9e9273; stroke:none;" d="M392 327L394 333L395 333L396 333L398 330L398 329L397 327L395 330L394 330L392 327M403.333 327.667L403.667 328.333L403.333 327.667z"/>
<path style="fill:#8b6c51; stroke:none;" d="M457 327L455 331L454 331C454.234 335.004 454.6 338.673 451 341L451 342C456.88 341.019 459.084 332.122 457 327z"/>
<path style="fill:#6a7889; stroke:none;" d="M248.667 328.333L249.333 328.667L248.667 328.333M252 328L256 333L252 328z"/>
<path style="fill:#9e9273; stroke:none;" d="M263 328L264 329L263 328z"/>
<path style="fill:#8b6c51; stroke:none;" d="M390 328L393 332L393 333L389 337L389 332L388 332L388 340L386 338L385 338L377 336L377 337L383 342L394 341L399 342L402 339L405 345L405 342L410 342L408 345L412 341C418.598 342.796 427.603 341.603 431 335L430 335L426 340L425 340L409 338L409 341L404 341L406 334L401 335L402 331L395 330L396 333L395 333L394 333L390 328z"/>
<path style="fill:#9e9273; stroke:none;" d="M399 328L400 329L399 328M401 328L400 329L400 330L401 331L402 331L403 330L403 329L401 328M408 328L409 329L408 328z"/>
<path style="fill:#b3c4ca; stroke:none;" d="M294 329L295 334C288.767 331.012 283.66 332.446 278 336L278 337L281 340C286.846 339.351 292.92 342.108 295 335L301 331L294 329M323 329L322 333L323 333L323 329z"/>
<path style="fill:#9e9273; stroke:none;" d="M385.333 329.667L385.667 330.333L385.333 329.667z"/>
<path style="fill:#8b6c51; stroke:none;" d="M408 329L409 330L408 329z"/>
<path style="fill:#9e9273; stroke:none;" d="M435.333 329.667L435.667 330.333L435.333 329.667z"/>
<path style="fill:#b3c4ca; stroke:none;" d="M473 329L475 331L473 329z"/>
<path style="fill:#9e9273; stroke:none;" d="M390 330L391 331L390 330M399 330L400 331L399 330M404 330L406 335L407 335L404 330z"/>
<path style="fill:#8b6c51; stroke:none;" d="M405.333 330.667L405.667 331.333L405.333 330.667z"/>
<path style="fill:#9e9273; stroke:none;" d="M406 330L407 331L406 330M473 330L474 331L473 330M388 331L389 332L388 331M389 332L389 333L393 333L389 332M400 331L401 332L400 331M402 331L403 332L402 331M414 331L415 332L414 331M458.333 331.667L458.667 332.333L458.333 331.667M462.667 331.333L463.333 331.667L462.667 331.333M475 331L478 335L475 331M484 331L485 332L484 331M366 332L367 333L366 332z"/>
<path style="fill:#b3c4ca; stroke:none;" d="M370 332L369 334L370 332z"/>
<path style="fill:#6a7889; stroke:none;" d="M372 332L364 341C368.901 340.176 372.085 336.495 374 332L372 332z"/>
<path style="fill:#9e9273; stroke:none;" d="M387 332L388 333L387 332z"/>
<path style="fill:#8b6c51; stroke:none;" d="M448 332L448 334L450 334L450 332L448 332M472 332L469 337L470 337L472 332z"/>
<path style="fill:#6a7889; stroke:none;" d="M490 332L484 364C494.631 356.507 513.875 332.493 490 332M280 333C273.255 337.098 267.374 334.937 260 334L260 335L270 337L265 339L265 340L267 340L267 341L263 341C265.75 346.363 270.397 347.637 276 346L276 345C271.55 345.683 269.448 344.888 266 342L279 343L279 342L276 340L282 341L280 333z"/>
<path style="fill:#9e9273; stroke:none;" d="M281 333L282 334L281 333z"/>
<path style="fill:#6a7889; stroke:none;" d="M357 333L355 336L357 333M366 333L367 334L366 333z"/>
<path style="fill:#8b6c51; stroke:none;" d="M373 333L373 337L377 336L373 333z"/>
<path style="fill:#b3c4ca; stroke:none;" d="M390.333 333.667L390.667 334.333L390.333 333.667z"/>
<path style="fill:#9e9273; stroke:none;" d="M401 333L401 335L403 333L401 333M427 333L428 334L427 333M433.667 333.333L434.333 333.667L433.667 333.333z"/>
<path style="fill:#8b6c51; stroke:none;" d="M435 333L436 334L435 333z"/>
<path style="fill:#9e9273; stroke:none;" d="M454.333 333.667L454.667 334.333L454.333 333.667M470 333L471 334L470 333z"/>
<path style="fill:#b3c4ca; stroke:none;" d="M250 334L255 339L251 340L251 341L264 347L265 346L262 342L269 338L250 334z"/>
<path style="fill:#050403; stroke:none;" d="M275 334L276 335L275 334z"/>
<path style="fill:#b3c4ca; stroke:none;" d="M322 334L323 335L322 334z"/>
<path style="fill:#9e9273; stroke:none;" d="M389 334L390 335L389 334M409.667 334.333L410.333 334.667L409.667 334.333M430 334L431 335L430 334z"/>
<path style="fill:#6a7889; stroke:none;" d="M431 336L434 335L431 336z"/>
<path style="fill:#8b6c51; stroke:none;" d="M434 334L435 335L434 334z"/>
<path style="fill:#b3c4ca; stroke:none;" d="M447 334L448 340L449 340L447 334z"/>
<path style="fill:#9e9273; stroke:none;" d="M457 334L458 335L457 334M278 335L279 336L278 335z"/>
<path style="fill:#b3c4ca; stroke:none;" d="M367 335L365 338L367 335z"/>
<path style="fill:#9e9273; stroke:none;" d="M390 335L389 337L391 337L390 335M403 335L404 336L403 335M405 335L406 336L405 335M427 335L428 336L427 335z"/>
<path style="fill:#6a7889; stroke:none;" d="M423 337L425 340L426 340L430 335L423 337z"/>
<path style="fill:#8b6c51; stroke:none;" d="M432.667 335.333L433.333 335.667L432.667 335.333z"/>
<path style="fill:#9e9273; stroke:none;" d="M458 335L459 336L458 335M468 335L468 337L470 335L468 335z"/>
<path style="fill:#8b6c51; stroke:none;" d="M472.333 335.667L472.667 336.333L472.333 335.667z"/>
<path style="fill:#b3c4ca; stroke:none;" d="M478 335L479 336L478 335z"/>
<path style="fill:#9e9273; stroke:none;" d="M264 336L264 337L269 337L264 336M310 336L311 337L310 336M361 336L362 337L361 336M378 336L379 337L378 336M387 336L388 337L387 336z"/>
<path style="fill:#050403; stroke:none;" d="M398 336L399 337L398 336z"/>
<path style="fill:#9e9273; stroke:none;" d="M406 336L407 337L406 336M408 336L408 339L410 336L408 336M424.667 336.333L425.333 336.667L424.667 336.333z"/>
<path style="fill:#8b6c51; stroke:none;" d="M449 336L450 337L449 336z"/>
<path style="fill:#9e9273; stroke:none;" d="M452 336L453 337L452 336z"/>
<path style="fill:#6a7889; stroke:none;" d="M458.333 336.667L458.667 337.333L458.333 336.667z"/>
<path style="fill:#9e9273; stroke:none;" d="M463 336L461 338L461 339L463 336M478 336L479 339L480 339L480 336L478 336z"/>
<path style="fill:#6a7889; stroke:none;" d="M510 336L509 339L510 339L510 336z"/>
<path style="fill:#9e9273; stroke:none;" d="M269 337L270 338L269 337M273.667 337.333L274.333 337.667L273.667 337.333z"/>
<path style="fill:#6a7889; stroke:none;" d="M355 337L352 344L355 344L355 337z"/>
<path style="fill:#9e9273; stroke:none;" d="M380 337L381 338L380 337M388.333 337.667L388.667 338.333L388.333 337.667M415 337L416 338L415 337M420 337L421 338L420 337z"/>
<path style="fill:#6a7889; stroke:none;" d="M421 337L422 338L421 337z"/>
<path style="fill:#9e9273; stroke:none;" d="M466 337L467 338L466 337z"/>
<path style="fill:#8b6c51; stroke:none;" d="M467 337L468 338L467 337z"/>
<path style="fill:#9e9273; stroke:none;" d="M227 338L228 339L227 338M237 338L239 341L237 338z"/>
<path style="fill:#b3c4ca; stroke:none;" d="M248 338L248 340L250 340L250 338L248 338z"/>
<path style="fill:#9e9273; stroke:none;" d="M267 338L268 339L267 338z"/>
<path style="fill:#b3c4ca; stroke:none;" d="M274 338L275 339L274 338M296.333 338.667L296.667 339.333L296.333 338.667z"/>
<path style="fill:#9e9273; stroke:none;" d="M382 338L383 339L382 338M384 338L383 340L385 340L384 338M391 338L392 339L391 338M404 338L405 341L404 338M410 338L411 339L410 338M416.667 338.333L417.333 338.667L416.667 338.333z"/>
<path style="fill:#8b6c51; stroke:none;" d="M458 338L460 344L461 344L461 340L458 338M463 338L463 339L466 339L463 338z"/>
<path style="fill:#9e9273; stroke:none;" d="M158 339L158 341L160 341L160 339L158 339M264.333 339.667L264.667 340.333L264.333 339.667M274.333 339.667L274.667 340.333L274.333 339.667z"/>
<path style="fill:#b3c4ca; stroke:none;" d="M351.333 339.667L351.667 340.333L351.333 339.667z"/>
<path style="fill:#6a7889; stroke:none;" d="M362 339L363 340L362 339z"/>
<path style="fill:#b3c4ca; stroke:none;" d="M363 339L364 340L363 339z"/>
<path style="fill:#9e9273; stroke:none;" d="M386.667 339.333L387.333 339.667L386.667 339.333z"/>
<path style="fill:#050403; stroke:none;" d="M396 339L397 340L396 339z"/>
<path style="fill:#9e9273; stroke:none;" d="M409 339L410 340L409 339M411 339L412 340L411 339z"/>
<path style="fill:#6a7889; stroke:none;" d="M414.667 339.333L415.333 339.667L414.667 339.333z"/>
<path style="fill:#b3c4ca; stroke:none;" d="M453 339L454 340L453 339z"/>
<path style="fill:#9e9273; stroke:none;" d="M459.333 339.667L459.667 340.333L459.333 339.667z"/>
<path style="fill:#8b6c51; stroke:none;" d="M461 339L462 340L461 339z"/>
<path style="fill:#9e9273; stroke:none;" d="M480 339L480 345L481 345L480 339M161 340L161 342L163 342L161 340M224 340L225 341L224 340z"/>
<path style="fill:#b3c4ca; stroke:none;" d="M265 340L266 341L265 340z"/>
<path style="fill:#9e9273; stroke:none;" d="M266 340L267 341L266 340z"/>
<path style="fill:#050403; stroke:none;" d="M269 340L270 341L269 340M276 340L279 342L279 343L266 342C270.683 347.619 280.312 347.375 283 340L276 340z"/>
<path style="fill:#6a7889; stroke:none;" d="M283 340L283 342L285 340L283 340z"/>
<path style="fill:#9e9273; stroke:none;" d="M311 340L312 341L311 340M390.667 340.333L391.333 340.667L390.667 340.333M408 340L409 341L408 340z"/>
<path style="fill:#8b6c51; stroke:none;" d="M449 340L449 342L451 340L449 340M472 340L473 341L472 340z"/>
<path style="fill:#9e9273; stroke:none;" d="M235 341L235 342L238 346L243 346L243 345L235 341M262 341L263 342L262 341M309.667 341.333L310.333 341.667L309.667 341.333z"/>
<path style="fill:#b3c4ca; stroke:none;" d="M362 341L361 344L362 344L362 341z"/>
<path style="fill:#6a7889; stroke:none;" d="M363 341L364 342L363 341z"/>
<path style="fill:#050403; stroke:none;" d="M410 341L411 342L410 341z"/>
<path style="fill:#9e9273; stroke:none;" d="M261.333 342.667L261.667 343.333L261.333 342.667z"/>
<path style="fill:#6a7889; stroke:none;" d="M282.333 342.667L282.667 343.333L282.333 342.667z"/>
<path style="fill:#9e9273; stroke:none;" d="M308 342L309 343L308 342z"/>
<path style="fill:#b3c4ca; stroke:none;" d="M350 342L349 349L350 349L350 342z"/>
<path style="fill:#6a7889; stroke:none;" d="M360 342L361 343L360 342M404 343L404 344L410 342L404 343M485 342L486 346L487 346L489 342L485 342z"/>
<path style="fill:#b3c4ca; stroke:none;" d="M283 343L284 344L283 343z"/>
<path style="fill:#6a7889; stroke:none;" d="M284 343L285 344L284 343z"/>
<path style="fill:#9e9273; stroke:none;" d="M307 343L308 344L307 343z"/>
<path style="fill:#6a7889; stroke:none;" d="M359 343L359 346L360 346L359 343M362 343L363 344L362 343z"/>
<path style="fill:#8b6c51; stroke:none;" d="M375 343L376 344L375 343M419 343L420 344L419 343z"/>
<path style="fill:#9e9273; stroke:none;" d="M236 344L237 345L236 344z"/>
<path style="fill:#6a7889; stroke:none;" d="M250 344L251 345L250 344M281 344L282 345L281 344M290 344L291 345L290 344z"/>
<path style="fill:#9e9273; stroke:none;" d="M305.667 344.333L306.333 344.667L305.667 344.333z"/>
<path style="fill:#8b6c51; stroke:none;" d="M399 344L400 345L399 344M401 344L402 345L401 344z"/>
<path style="fill:#6a7889; stroke:none;" d="M409.667 344.333L410.333 344.667L409.667 344.333z"/>
<path style="fill:#8b6c51; stroke:none;" d="M463 344L464 345L463 344z"/>
<path style="fill:#6a7889; stroke:none;" d="M464 344L465 345L464 344M278 345L278 346L281 346L278 345z"/>
<path style="fill:#9e9273; stroke:none;" d="M303.667 345.333L304.333 345.667L303.667 345.333z"/>
<path style="fill:#b3c4ca; stroke:none;" d="M360.333 345.667L360.667 346.333L360.333 345.667z"/>
<path style="fill:#9e9273; stroke:none;" d="M479 345L480 346L479 345z"/>
<path style="fill:#b3c4ca; stroke:none;" d="M484.333 345.667L484.667 346.333L484.333 345.667z"/>
<path style="fill:#9e9273; stroke:none;" d="M510 345L511 346L510 345z"/>
<path style="fill:#6a7889; stroke:none;" d="M250 347L250 348L255 349L250 347z"/>
<path style="fill:#9e9273; stroke:none;" d="M288 348L276 353L276 354C279.991 353.875 291.332 353.477 292 349L303 347L288 348z"/>
<path style="fill:#6a7889; stroke:none;" d="M352 346L354 352L358 352L356 346L352 346M361 346L362 347L361 346z"/>
<path style="fill:#8b6c51; stroke:none;" d="M438 346L439 347L438 346z"/>
<path style="fill:#9e9273; stroke:none;" d="M213 347L211 348L211 349L213 347z"/>
<path style="fill:#b3c4ca; stroke:none;" d="M247 347L248 348L247 347M271 348L271 349L277 349L271 348M277 347L277 348L282 348L277 347M321.667 347.333L322.333 347.667L321.667 347.333M263 348L264 349L263 348M265 351L270 349C267.387 347.502 265.646 347.988 265 351z"/>
<path style="fill:#9e9273; stroke:none;" d="M479 348L480 349L479 348z"/>
<path style="fill:#b3c4ca; stroke:none;" d="M485 348L486 349L485 348z"/>
<path style="fill:#9e9273; stroke:none;" d="M508 348L509 349L508 348M219.667 349.333L220.333 349.667L219.667 349.333M224 349L224 351L235 352L224 349M239 349L240 350L239 349z"/>
<path style="fill:#b3c4ca; stroke:none;" d="M248 349L248 350L253 350L248 349M253 350C255.84 354.02 260.683 353.027 265 352C261.444 348.375 257.696 349.428 253 350z"/>
<path style="fill:#6a7889; stroke:none;" d="M268 351L268 352L288 350C282.406 347.688 273.538 348.928 268 351z"/>
<path style="fill:#050403; stroke:none;" d="M277 349L278 350L277 349z"/>
<path style="fill:#6a7889; stroke:none;" d="M292.667 349.333L293.333 349.667L292.667 349.333z"/>
<path style="fill:#b3c4ca; stroke:none;" d="M320 349L320 353L321 353L320 349z"/>
<path style="fill:#9e9273; stroke:none;" d="M241 350L242 351L241 350z"/>
<path style="fill:#b3c4ca; stroke:none;" d="M267 350L268 351L267 350z"/>
<path style="fill:#9e9273; stroke:none;" d="M276 350L277 351L276 350z"/>
<path style="fill:#6a7889; stroke:none;" d="M288.667 350.333L289.333 350.667L288.667 350.333z"/>
<path style="fill:#b3c4ca; stroke:none;" d="M313 350L318 352L313 350z"/>
<path style="fill:#8b6c51; stroke:none;" d="M412 350L413 351L412 350z"/>
<path style="fill:#9e9273; stroke:none;" d="M243.667 351.333L244.333 351.667L243.667 351.333z"/>
<path style="fill:#b3c4ca; stroke:none;" d="M280 351L281 352L280 351M282 351L283 352L282 351z"/>
<path style="fill:#6a7889; stroke:none;" d="M285 351L286 352L285 351M361 351L362 352L361 351z"/>
<path style="fill:#b3c4ca; stroke:none;" d="M350 352L355 358L350 352z"/>
<path style="fill:#6a7889; stroke:none;" d="M358 352L360 355L358 352z"/>
<path style="fill:#8b6c51; stroke:none;" d="M439 354L442 352L439 354z"/>
<path style="fill:#9e9273; stroke:none;" d="M161 353L163 356L161 353z"/>
<path style="fill:#6a7889; stroke:none;" d="M258.667 353.333L259.333 353.667L258.667 353.333z"/>
<path style="fill:#b3c4ca; stroke:none;" d="M307.667 353.333L308.333 353.667L307.667 353.333M357 353L359 356L358 359L359 359L357 353z"/>
<path style="fill:#8b6c51; stroke:none;" d="M381 353L382 354L381 353z"/>
<path style="fill:#9e9273; stroke:none;" d="M358 354L359 355L358 354z"/>
<path style="fill:#6a7889; stroke:none;" d="M362 354L364 357L362 354z"/>
<path style="fill:#9e9273; stroke:none;" d="M164 355L164 356L168 358L164 355z"/>
<path style="fill:#6a7889; stroke:none;" d="M497 355L498 356L497 355z"/>
<path style="fill:#9e9273; stroke:none;" d="M264 356L264 357L274 358L264 356M275 356L275 357L279 357L275 356M277 358L277 359L285 360L285 359L282 357L277 358z"/>
<path style="fill:#b3c4ca; stroke:none;" d="M331 357L332 358L331 357z"/>
<path style="fill:#9e9273; stroke:none;" d="M169 358L171 360L169 358M275 358L276 359L275 358z"/>
<path style="fill:#b3c4ca; stroke:none;" d="M351 358C352.958 363.051 355.967 366.02 361 368L351 358M356 358L357 359L356 358z"/>
<path style="fill:#6a7889; stroke:none;" d="M369 358L372 360L372 359L369 358z"/>
<path style="fill:#8b6c51; stroke:none;" d="M432 358L432 359L435 359L432 358z"/>
<path style="fill:#6a7889; stroke:none;" d="M355 359L356 360L355 359z"/>
<path style="fill:#9e9273; stroke:none;" d="M463 359L464 360L463 359M172 360L173 361L172 360M461 360L462 361L461 360M174 361L175 362L174 361z"/>
<path style="fill:#b3c4ca; stroke:none;" d="M350 361L350 364L352 363L352 362L350 361z"/>
<path style="fill:#9e9273; stroke:none;" d="M362.667 361.333L363.333 361.667L362.667 361.333M458.667 361.333L459.333 361.667L458.667 361.333M177.667 362.333L178.333 362.667L177.667 362.333M396 368C413.942 373.674 434.2 368.672 452 365L452 364L435 367L435 366L444 363C438.108 361.586 430.969 364.306 425 364.995C416.071 366.027 403.799 362.671 396 368M453 363L453 364L457 363L453 363M369 363L374 365L374 364L369 363M186 364L186 365L191 365L186 364M466 366L469 365L466 366M183 365L184 366L183 365M194 365L194 366L198 366L194 365M375 365L376 366L375 365M190 366L191 367L190 366M200 366L200 367L205 367L200 366M379.667 366.333L380.333 366.667L379.667 366.333M459 368L459 369L465 367L459 368M199 367L200 368L199 367z"/>
<path style="fill:#6a7889; stroke:none;" d="M432 367L432 368L435 368L432 367z"/>
<path style="fill:#b3c4ca; stroke:none;" d="M362 368L363 369L362 368z"/>
<path style="fill:#6a7889; stroke:none;" d="M426.667 368.333L427.333 368.667L426.667 368.333z"/>
<path style="fill:#9e9273; stroke:none;" d="M443.667 373.333L444.333 373.667L443.667 373.333M437 374L437 375L441 375L437 374M379.667 375.333L380.333 375.667L379.667 375.333M397 375L398 376L397 375M422 375L423 376L422 375z"/>
<path style="fill:#b3c4ca; stroke:none;" d="M423 375L424 376L423 375z"/>
<path style="fill:#9e9273; stroke:none;" d="M432 375L432 376L436 376L432 375M385.667 376.333L386.333 376.667L385.667 376.333M391.667 377.333L392.333 377.667L391.667 377.333M397.667 378.333L398.333 378.667L397.667 378.333M403.667 379.333L404.333 379.667L403.667 379.333M409.667 380.333L410.333 380.667L409.667 380.333M435 380L436 381L435 380M415 381L415 382L418 382L415 381M426 381L427 382L426 381M428 381L429 382L428 381M421 382L421 383L424 383L421 382M511 387L512 388L511 387M356 392L357 393L356 392z"/>
<path style="fill:#6a7889; stroke:none;" d="M361 393L362 394L361 393z"/>
<path style="fill:#9e9273; stroke:none;" d="M362 393L363 394L362 393M368 394L369 395L368 394M375 394L376 395L375 394M374 395L375 396L374 395M379 395L379 396L383 396L379 395M384 396L385 397L384 396M386 396L386 397C395.84 400.093 406.805 400.701 417 402.275C435.982 405.205 460.647 413.059 478 402L455 405.83L386 396z"/>
<path style="fill:#b3c4ca; stroke:none;" d="M388 397L389 398L388 397M390 398L391 399L390 398M392 398L393 399L392 398z"/>
<path style="fill:#6a7889; stroke:none;" d="M398 399L399 400L398 399z"/>
<path style="fill:#b3c4ca; stroke:none;" d="M399.667 399.333L400.333 399.667L399.667 399.333z"/>
<path style="fill:#9e9273; stroke:none;" d="M494 399L495 400L494 399z"/>
<path style="fill:#b3c4ca; stroke:none;" d="M404 400L405 401L404 400z"/>
<path style="fill:#9e9273; stroke:none;" d="M479 400L479 401L488 401L479 400M492.667 400.333L493.333 400.667L492.667 400.333z"/>
<path style="fill:#b3c4ca; stroke:none;" d="M410.667 401.333L411.333 401.667L410.667 401.333z"/>
<path style="fill:#6a7889; stroke:none;" d="M470 406L470 407C475.06 406.878 478.195 406.018 480 401L470 406z"/>
<path style="fill:#b3c4ca; stroke:none;" d="M484 401L485 402L484 401M417.667 402.333L418.333 402.667L417.667 402.333M423 403L424 404L423 403M428 404L429 405L428 404M434 405L435 406L434 405M439 406L440 407L439 406M441 406L442 407L441 406z"/>
<path style="fill:#6a7889; stroke:none;" d="M448 406L448 407L451 407L448 406z"/>
</svg>
